STARTFONT 2.1
FONT -HP-Mincho-Bold-R-Normal--18-130-100-100-C-180-JISX0208.1990-0
SIZE 13 100 100
FONTBOUNDINGBOX 18 18 0 -2

STARTPROPERTIES 23
FONTNAME_REGISTRY ""
FOUNDRY "HP"
FAMILY_NAME "Mincho"
WEIGHT_NAME "Bold"
SLANT "R"
SETWIDTH_NAME "Normal"
ADD_STYLE_NAME ""
PIXEL_SIZE 18
POINT_SIZE 130
RESOLUTION_X 100
RESOLUTION_Y 100
SPACING "C"
AVERAGE_WIDTH 180
CHARSET_REGISTRY "JISX0208.1990"
CHARSET_ENCODING "0"
COPYRIGHT "Copyright (c) 1994 Hewlett-Packard Company. Copyright 1994 by Bridge Inc."
_HP_ASXVERSION "@(#) ASX 3.00 $Revision: 13.9 $ minB18k"
WEIGHT 10
X_HEIGHT 16
QUAD_WIDTH 18
DEFAULT_CHAR 8751
FONT_DESCENT 2
FONT_ASCENT 16
ENDPROPERTIES

CHARS 6963

STARTCHAR jisx0208_2121
ENCODING 8481
SWIDTH 960 0
DWIDTH 18 0
BBX 18 18 0 -2
BITMAP
000000
000000
000000
000000
000000
000000
000000
000000
000000
000000
000000
000000
000000
000000
000000
000000
000000
000000
ENDCHAR

STARTCHAR jisx0208_2122
ENCODING 8482
SWIDTH 960 0
DWIDTH 18 0
BBX 18 18 0 -2
BITMAP
000000
000000
000000
000000
000000
000000
000000
000000
000000
000000
000000
000000
000000
000000
300000
1C0000
0C0000
000000
ENDCHAR

STARTCHAR jisx0208_2123
ENCODING 8483
SWIDTH 960 0
DWIDTH 18 0
BBX 18 18 0 -2
BITMAP
000000
000000
000000
000000
000000
000000
000000
000000
000000
000000
000000
000000
000000
1C0000
360000
360000
1C0000
000000
ENDCHAR

STARTCHAR jisx0208_2124
ENCODING 8484
SWIDTH 960 0
DWIDTH 18 0
BBX 18 18 0 -2
BITMAP
000000
000000
000000
000000
000000
000000
000000
000000
000000
000000
000000
000000
000000
380000
380000
180000
300000
000000
ENDCHAR

STARTCHAR jisx0208_2125
ENCODING 8485
SWIDTH 960 0
DWIDTH 18 0
BBX 18 18 0 -2
BITMAP
000000
000000
000000
000000
000000
000000
000000
000000
000000
000000
000000
000000
000000
000000
380000
380000
000000
000000
ENDCHAR

STARTCHAR jisx0208_2126
ENCODING 8486
SWIDTH 960 0
DWIDTH 18 0
BBX 18 18 0 -2
BITMAP
000000
000000
000000
000000
000000
000000
000000
00E000
01F000
00E000
000000
000000
000000
000000
000000
000000
000000
000000
ENDCHAR

STARTCHAR jisx0208_2127
ENCODING 8487
SWIDTH 960 0
DWIDTH 18 0
BBX 18 18 0 -2
BITMAP
000000
000000
000000
000000
000000
00E000
00E000
000000
000000
000000
000000
00E000
00E000
000000
000000
000000
000000
000000
ENDCHAR

STARTCHAR jisx0208_2128
ENCODING 8488
SWIDTH 960 0
DWIDTH 18 0
BBX 18 18 0 -2
BITMAP
000000
000000
000000
000000
000000
00E000
00E000
000000
000000
000000
000000
00E000
00E000
006000
00C000
000000
000000
000000
ENDCHAR

STARTCHAR jisx0208_2129
ENCODING 8489
SWIDTH 960 0
DWIDTH 18 0
BBX 18 18 0 -2
BITMAP
000000
000000
01F000
031800
060C00
070C00
070C00
001800
003000
006000
00C000
00C000
000000
000000
00E000
00E000
000000
000000
ENDCHAR

STARTCHAR jisx0208_212A
ENCODING 8490
SWIDTH 960 0
DWIDTH 18 0
BBX 18 18 0 -2
BITMAP
000000
000000
00C000
00C000
00C000
00C000
00C000
00C000
00C000
00C000
00C000
000000
000000
000000
00E000
00E000
000000
000000
ENDCHAR

STARTCHAR jisx0208_212B
ENCODING 8491
SWIDTH 960 0
DWIDTH 18 0
BBX 18 18 0 -2
BITMAP
000000
180000
6C0000
300000
000000
000000
000000
000000
000000
000000
000000
000000
000000
000000
000000
000000
000000
000000
ENDCHAR

STARTCHAR jisx0208_212C
ENCODING 8492
SWIDTH 960 0
DWIDTH 18 0
BBX 18 18 0 -2
BITMAP
000000
000000
380000
6C0000
6C0000
380000
000000
000000
000000
000000
000000
000000
000000
000000
000000
000000
000000
000000
ENDCHAR

STARTCHAR jisx0208_212D
ENCODING 8493
SWIDTH 960 0
DWIDTH 18 0
BBX 18 18 0 -2
BITMAP
000000
007800
03C000
000000
000000
000000
000000
000000
000000
000000
000000
000000
000000
000000
000000
000000
000000
000000
ENDCHAR

STARTCHAR jisx0208_212E
ENCODING 8494
SWIDTH 960 0
DWIDTH 18 0
BBX 18 18 0 -2
BITMAP
000000
03C000
007800
000000
000000
000000
000000
000000
000000
000000
000000
000000
000000
000000
000000
000000
000000
000000
ENDCHAR

STARTCHAR jisx0208_212F
ENCODING 8495
SWIDTH 960 0
DWIDTH 18 0
BBX 18 18 0 -2
BITMAP
000000
03B800
03B800
000000
000000
000000
000000
000000
000000
000000
000000
000000
000000
000000
000000
000000
000000
000000
ENDCHAR

STARTCHAR jisx0208_2130
ENCODING 8496
SWIDTH 960 0
DWIDTH 18 0
BBX 18 18 0 -2
BITMAP
000000
00E000
03B800
000000
000000
000000
000000
000000
000000
000000
000000
000000
000000
000000
000000
000000
000000
000000
ENDCHAR

STARTCHAR jisx0208_2131
ENCODING 8497
SWIDTH 960 0
DWIDTH 18 0
BBX 18 18 0 -2
BITMAP
000000
7FFFC0
000000
000000
000000
000000
000000
000000
000000
000000
000000
000000
000000
000000
000000
000000
000000
000000
ENDCHAR

STARTCHAR jisx0208_2132
ENCODING 8498
SWIDTH 960 0
DWIDTH 18 0
BBX 18 18 0 -2
BITMAP
000000
000000
000000
000000
000000
000000
000000
000000
000000
000000
000000
000000
000000
000000
000000
000000
7FFFC0
000000
ENDCHAR

STARTCHAR jisx0208_2133
ENCODING 8499
SWIDTH 960 0
DWIDTH 18 0
BBX 18 18 0 -2
BITMAP
000000
000000
000000
000000
000000
060000
038000
00C000
006000
003000
003000
001800
001800
000000
000000
000000
000000
000000
ENDCHAR

STARTCHAR jisx0208_2134
ENCODING 8500
SWIDTH 960 0
DWIDTH 18 0
BBX 18 18 0 -2
BITMAP
000000
000000
001800
000C00
003000
061800
038000
00C000
006000
003000
003000
001800
001800
000000
000000
000000
000000
000000
ENDCHAR

STARTCHAR jisx0208_2135
ENCODING 8501
SWIDTH 960 0
DWIDTH 18 0
BBX 18 18 0 -2
BITMAP
000000
000000
000000
000000
060000
038000
00C000
006000
003000
003000
001800
00F800
001800
000000
000000
000000
000000
000000
ENDCHAR

STARTCHAR jisx0208_2136
ENCODING 8502
SWIDTH 960 0
DWIDTH 18 0
BBX 18 18 0 -2
BITMAP
000000
000000
001800
000C00
063000
039800
00C000
006000
003000
003000
001800
00F800
001800
000000
000000
000000
000000
000000
ENDCHAR

STARTCHAR jisx0208_2137
ENCODING 8503
SWIDTH 960 0
DWIDTH 18 0
BBX 18 18 0 -2
BITMAP
000000
000000
000000
000000
01DC00
019800
019800
033000
033000
066000
066000
0CC000
0CC000
000000
000000
000000
000000
000000
ENDCHAR

STARTCHAR jisx0208_2138
ENCODING 8504
SWIDTH 960 0
DWIDTH 18 0
BBX 18 18 0 -2
BITMAP
000000
00E000
00E000
01B000
031800
060C00
0C0600
180300
700DC0
0FFE00
00C000
00C000
00C000
00C000
00C300
3FFF80
000000
000000
ENDCHAR

STARTCHAR jisx0208_2139
ENCODING 8505
SWIDTH 960 0
DWIDTH 18 0
BBX 18 18 0 -2
BITMAP
000000
000000
01C000
018000
018600
03FF00
030600
060600
060C00
0C1800
199800
00B000
006000
003800
001800
000000
000000
000000
ENDCHAR

STARTCHAR jisx0208_213A
ENCODING 8506
SWIDTH 960 0
DWIDTH 18 0
BBX 18 18 0 -2
BITMAP
000000
000000
000700
000380
000300
000600
000C00
07D800
0C7000
185800
18CC00
318600
330000
360000
2C0000
380000
000000
000000
ENDCHAR

STARTCHAR jisx0208_213B
ENCODING 8507
SWIDTH 960 0
DWIDTH 18 0
BBX 18 18 0 -2
BITMAP
000000
000000
03F800
0E0E00
180300
180300
300180
300180
300180
300180
300180
300180
180300
180300
0E0E00
03F800
000000
000000
ENDCHAR

STARTCHAR jisx0208_213C
ENCODING 8508
SWIDTH 960 0
DWIDTH 18 0
BBX 18 18 0 -2
BITMAP
000000
000000
000000
000000
000000
000000
000000
300300
3FFF80
180180
000000
000000
000000
000000
000000
000000
000000
000000
ENDCHAR

STARTCHAR jisx0208_213D
ENCODING 8509
SWIDTH 960 0
DWIDTH 18 0
BBX 18 18 0 -2
BITMAP
000000
000000
000000
000000
000000
000000
000000
000000
7FFFC0
000000
000000
000000
000000
000000
000000
000000
000000
000000
ENDCHAR

STARTCHAR jisx0208_213E
ENCODING 8510
SWIDTH 960 0
DWIDTH 18 0
BBX 18 18 0 -2
BITMAP
000000
000000
000000
000000
000000
000000
000000
000000
01F000
000000
000000
000000
000000
000000
000000
000000
000000
000000
ENDCHAR

STARTCHAR jisx0208_213F
ENCODING 8511
SWIDTH 960 0
DWIDTH 18 0
BBX 18 18 0 -2
BITMAP
000000
0000C0
000180
000300
000600
000C00
001800
003000
006000
00C000
018000
030000
060000
0C0000
180000
300000
600000
000000
ENDCHAR

STARTCHAR jisx0208_2140
ENCODING 8512
SWIDTH 960 0
DWIDTH 18 0
BBX 18 18 0 -2
BITMAP
000000
600000
300000
180000
0C0000
060000
030000
018000
00C000
006000
003000
001800
000C00
000600
000300
000180
0000C0
000000
ENDCHAR

STARTCHAR jisx0208_2141
ENCODING 8513
SWIDTH 960 0
DWIDTH 18 0
BBX 18 18 0 -2
BITMAP
000000
000000
000000
000000
000000
000000
000000
0F0000
39C0C0
607380
001E00
000000
000000
000000
000000
000000
000000
000000
ENDCHAR

STARTCHAR jisx0208_2142
ENCODING 8514
SWIDTH 960 0
DWIDTH 18 0
BBX 18 18 0 -2
BITMAP
000000
031800
031800
031800
031800
031800
031800
031800
031800
031800
031800
031800
031800
031800
031800
031800
031800
000000
ENDCHAR

STARTCHAR jisx0208_2143
ENCODING 8515
SWIDTH 960 0
DWIDTH 18 0
BBX 18 18 0 -2
BITMAP
000000
00C000
00C000
00C000
00C000
00C000
00C000
00C000
00C000
00C000
00C000
00C000
00C000
00C000
00C000
00C000
00C000
000000
ENDCHAR

STARTCHAR jisx0208_2144
ENCODING 8516
SWIDTH 960 0
DWIDTH 18 0
BBX 18 18 0 -2
BITMAP
000000
000000
000000
000000
000000
000000
000000
000000
1CE700
1CE700
000000
000000
000000
000000
000000
000000
000000
000000
ENDCHAR

STARTCHAR jisx0208_2145
ENCODING 8517
SWIDTH 960 0
DWIDTH 18 0
BBX 18 18 0 -2
BITMAP
000000
000000
000000
000000
000000
000000
000000
000000
0E0E00
0E0E00
000000
000000
000000
000000
000000
000000
000000
000000
ENDCHAR

STARTCHAR jisx0208_2146
ENCODING 8518
SWIDTH 960 0
DWIDTH 18 0
BBX 18 18 0 -2
BITMAP
000000
000180
000300
000380
000380
000000
000000
000000
000000
000000
000000
000000
000000
000000
000000
000000
000000
000000
ENDCHAR

STARTCHAR jisx0208_2147
ENCODING 8519
SWIDTH 960 0
DWIDTH 18 0
BBX 18 18 0 -2
BITMAP
000000
380000
380000
180000
300000
000000
000000
000000
000000
000000
000000
000000
000000
000000
000000
000000
000000
000000
ENDCHAR

STARTCHAR jisx0208_2148
ENCODING 8520
SWIDTH 960 0
DWIDTH 18 0
BBX 18 18 0 -2
BITMAP
000000
000D80
001B00
001B80
001B80
000000
000000
000000
000000
000000
000000
000000
000000
000000
000000
000000
000000
000000
ENDCHAR

STARTCHAR jisx0208_2149
ENCODING 8521
SWIDTH 960 0
DWIDTH 18 0
BBX 18 18 0 -2
BITMAP
000000
370000
370000
1B0000
360000
000000
000000
000000
000000
000000
000000
000000
000000
000000
000000
000000
000000
000000
ENDCHAR

STARTCHAR jisx0208_214A
ENCODING 8522
SWIDTH 960 0
DWIDTH 18 0
BBX 18 18 0 -2
BITMAP
000000
000180
000300
000600
000600
000C00
000C00
000C00
000C00
000C00
000C00
000C00
000C00
000600
000600
000300
000180
000000
ENDCHAR

STARTCHAR jisx0208_214B
ENCODING 8523
SWIDTH 960 0
DWIDTH 18 0
BBX 18 18 0 -2
BITMAP
000000
300000
180000
0C0000
0C0000
060000
060000
060000
060000
060000
060000
060000
060000
0C0000
0C0000
180000
300000
000000
ENDCHAR

STARTCHAR jisx0208_214C
ENCODING 8524
SWIDTH 960 0
DWIDTH 18 0
BBX 18 18 0 -2
BITMAP
000000
000380
000E00
000C00
000C00
000C00
000C00
000C00
000C00
000C00
000C00
000C00
000C00
000C00
000C00
000E00
000380
000000
ENDCHAR

STARTCHAR jisx0208_214D
ENCODING 8525
SWIDTH 960 0
DWIDTH 18 0
BBX 18 18 0 -2
BITMAP
000000
380000
0E0000
060000
060000
060000
060000
060000
060000
060000
060000
060000
060000
060000
060000
0E0000
380000
000000
ENDCHAR

STARTCHAR jisx0208_214E
ENCODING 8526
SWIDTH 960 0
DWIDTH 18 0
BBX 18 18 0 -2
BITMAP
000000
000F80
000C00
000C00
000C00
000C00
000C00
000C00
000C00
000C00
000C00
000C00
000C00
000C00
000C00
000C00
000F80
000000
ENDCHAR

STARTCHAR jisx0208_214F
ENCODING 8527
SWIDTH 960 0
DWIDTH 18 0
BBX 18 18 0 -2
BITMAP
000000
3E0000
060000
060000
060000
060000
060000
060000
060000
060000
060000
060000
060000
060000
060000
060000
3E0000
000000
ENDCHAR

STARTCHAR jisx0208_2150
ENCODING 8528
SWIDTH 960 0
DWIDTH 18 0
BBX 18 18 0 -2
BITMAP
000000
000380
000600
000600
000600
000600
000600
000600
001C00
000600
000600
000600
000600
000600
000600
000600
000380
000000
ENDCHAR

STARTCHAR jisx0208_2151
ENCODING 8529
SWIDTH 960 0
DWIDTH 18 0
BBX 18 18 0 -2
BITMAP
000000
380000
0C0000
0C0000
0C0000
0C0000
0C0000
0C0000
070000
0C0000
0C0000
0C0000
0C0000
0C0000
0C0000
0C0000
380000
000000
ENDCHAR

STARTCHAR jisx0208_2152
ENCODING 8530
SWIDTH 960 0
DWIDTH 18 0
BBX 18 18 0 -2
BITMAP
000000
000180
000180
000300
000300
000600
000600
000C00
000C00
000C00
000C00
000600
000600
000300
000300
000180
000180
000000
ENDCHAR

STARTCHAR jisx0208_2153
ENCODING 8531
SWIDTH 960 0
DWIDTH 18 0
BBX 18 18 0 -2
BITMAP
000000
300000
300000
180000
180000
0C0000
0C0000
060000
060000
060000
060000
0C0000
0C0000
180000
180000
300000
300000
000000
ENDCHAR

STARTCHAR jisx0208_2154
ENCODING 8532
SWIDTH 960 0
DWIDTH 18 0
BBX 18 18 0 -2
BITMAP
000000
000580
000580
000B00
000B00
001600
001600
002C00
002C00
002C00
002C00
001600
001600
000B00
000B00
000580
000580
000000
ENDCHAR

STARTCHAR jisx0208_2155
ENCODING 8533
SWIDTH 960 0
DWIDTH 18 0
BBX 18 18 0 -2
BITMAP
000000
2C0000
2C0000
160000
160000
0B0000
0B0000
058000
058000
058000
058000
0B0000
0B0000
160000
160000
2C0000
2C0000
000000
ENDCHAR

STARTCHAR jisx0208_2156
ENCODING 8534
SWIDTH 960 0
DWIDTH 18 0
BBX 18 18 0 -2
BITMAP
000000
001F80
001800
001800
001800
001800
001800
001800
001800
001800
001800
001800
001800
001800
001800
001800
001800
000000
ENDCHAR

STARTCHAR jisx0208_2157
ENCODING 8535
SWIDTH 960 0
DWIDTH 18 0
BBX 18 18 0 -2
BITMAP
000000
030000
030000
030000
030000
030000
030000
030000
030000
030000
030000
030000
030000
030000
030000
030000
3F0000
000000
ENDCHAR

STARTCHAR jisx0208_2158
ENCODING 8536
SWIDTH 960 0
DWIDTH 18 0
BBX 18 18 0 -2
BITMAP
000000
001F80
001980
001780
001600
001600
001600
001600
001600
001600
001600
001600
001600
001600
001600
001600
001E00
000000
ENDCHAR

STARTCHAR jisx0208_2159
ENCODING 8537
SWIDTH 960 0
DWIDTH 18 0
BBX 18 18 0 -2
BITMAP
000000
0F0000
0B0000
0B0000
0B0000
0B0000
0B0000
0B0000
0B0000
0B0000
0B0000
0B0000
0B0000
0B0000
3B0000
330000
3F0000
000000
ENDCHAR

STARTCHAR jisx0208_215A
ENCODING 8538
SWIDTH 960 0
DWIDTH 18 0
BBX 18 18 0 -2
BITMAP
000000
000F80
000F00
000F00
000E00
000E00
000C00
000C00
000C00
000C00
000C00
000C00
000E00
000E00
000F00
000F00
000F80
000000
ENDCHAR

STARTCHAR jisx0208_215B
ENCODING 8539
SWIDTH 960 0
DWIDTH 18 0
BBX 18 18 0 -2
BITMAP
000000
3E0000
1E0000
1E0000
0E0000
0E0000
060000
060000
060000
060000
060000
060000
0E0000
0E0000
1E0000
1E0000
3E0000
000000
ENDCHAR

STARTCHAR jisx0208_215C
ENCODING 8540
SWIDTH 960 0
DWIDTH 18 0
BBX 18 18 0 -2
BITMAP
000000
000000
000000
00C000
00C000
00C000
00C000
00C000
1FFE00
00C000
00C000
00C000
00C000
00C000
000000
000000
000000
000000
ENDCHAR

STARTCHAR jisx0208_215D
ENCODING 8541
SWIDTH 960 0
DWIDTH 18 0
BBX 18 18 0 -2
BITMAP
000000
000000
000000
000000
000000
000000
000000
000000
1FFF00
000000
000000
000000
000000
000000
000000
000000
000000
000000
ENDCHAR

STARTCHAR jisx0208_215E
ENCODING 8542
SWIDTH 960 0
DWIDTH 18 0
BBX 18 18 0 -2
BITMAP
000000
000000
000000
00C000
00C000
00C000
00C000
1FFE00
00C000
00C000
00C000
00C000
000000
000000
1FFE00
000000
000000
000000
ENDCHAR

STARTCHAR jisx0208_215F
ENCODING 8543
SWIDTH 960 0
DWIDTH 18 0
BBX 18 18 0 -2
BITMAP
000000
000000
000000
000000
0C0600
060C00
031800
01B000
00E000
00E000
01B000
031800
060C00
0C0600
000000
000000
000000
000000
ENDCHAR

STARTCHAR jisx0208_2160
ENCODING 8544
SWIDTH 960 0
DWIDTH 18 0
BBX 18 18 0 -2
BITMAP
000000
000000
000000
00E000
00E000
000000
000000
000000
1FFF00
000000
000000
000000
00E000
00E000
000000
000000
000000
000000
ENDCHAR

STARTCHAR jisx0208_2161
ENCODING 8545
SWIDTH 960 0
DWIDTH 18 0
BBX 18 18 0 -2
BITMAP
000000
000000
000000
000000
000000
000000
1FFF00
000000
000000
000000
000000
1FFF00
000000
000000
000000
000000
000000
000000
ENDCHAR

STARTCHAR jisx0208_2162
ENCODING 8546
SWIDTH 960 0
DWIDTH 18 0
BBX 18 18 0 -2
BITMAP
000000
000000
000000
001800
001800
003000
1FFF00
006000
006000
00C000
00C000
1FFF00
018000
030000
030000
000000
000000
000000
ENDCHAR

STARTCHAR jisx0208_2163
ENCODING 8547
SWIDTH 960 0
DWIDTH 18 0
BBX 18 18 0 -2
BITMAP
000000
000000
000000
000700
001C00
007000
01C000
070000
1C0000
070000
01C000
007000
001C00
000700
000000
000000
000000
000000
ENDCHAR

STARTCHAR jisx0208_2164
ENCODING 8548
SWIDTH 960 0
DWIDTH 18 0
BBX 18 18 0 -2
BITMAP
000000
000000
000000
1C0000
070000
01C000
007000
001C00
000700
001C00
007000
01C000
070000
1C0000
000000
000000
000000
000000
ENDCHAR

STARTCHAR jisx0208_2165
ENCODING 8549
SWIDTH 960 0
DWIDTH 18 0
BBX 18 18 0 -2
BITMAP
000000
000000
000000
000F00
007800
03C000
1E0000
03C000
007800
000F00
000000
1FFF00
000000
000000
1FFF00
000000
000000
000000
ENDCHAR

STARTCHAR jisx0208_2166
ENCODING 8550
SWIDTH 960 0
DWIDTH 18 0
BBX 18 18 0 -2
BITMAP
000000
000000
000000
1E0000
03C000
007800
000F00
007800
03C000
1E0000
000000
1FFF00
000000
000000
1FFF00
000000
000000
000000
ENDCHAR

STARTCHAR jisx0208_2167
ENCODING 8551
SWIDTH 960 0
DWIDTH 18 0
BBX 18 18 0 -2
BITMAP
000000
000000
000000
000000
000000
1F1F00
31B180
60E0C0
60E0C0
60E0C0
31B180
1F1F00
000000
000000
000000
000000
000000
000000
ENDCHAR

STARTCHAR jisx0208_2168
ENCODING 8552
SWIDTH 960 0
DWIDTH 18 0
BBX 18 18 0 -2
BITMAP
000000
000000
000000
000000
00E000
00E000
000000
000000
000000
000000
000000
000000
1C0700
1C0700
000000
000000
000000
000000
ENDCHAR

STARTCHAR jisx0208_2169
ENCODING 8553
SWIDTH 960 0
DWIDTH 18 0
BBX 18 18 0 -2
BITMAP
000000
000000
007F80
000380
000580
000D80
001980
003180
0F6180
18C000
306000
306000
306000
306000
18C000
0F8000
000000
000000
ENDCHAR

STARTCHAR jisx0208_216A
ENCODING 8554
SWIDTH 960 0
DWIDTH 18 0
BBX 18 18 0 -2
BITMAP
000000
000000
01F000
031800
060C00
060C00
060C00
060C00
031800
01F000
00C000
00C000
0FFE00
00C000
00C000
00C000
000000
000000
ENDCHAR

STARTCHAR jisx0208_216B
ENCODING 8555
SWIDTH 960 0
DWIDTH 18 0
BBX 18 18 0 -2
BITMAP
000000
380000
6C0000
6C0000
380000
000000
000000
000000
000000
000000
000000
000000
000000
000000
000000
000000
000000
000000
ENDCHAR

STARTCHAR jisx0208_216C
ENCODING 8556
SWIDTH 960 0
DWIDTH 18 0
BBX 18 18 0 -2
BITMAP
000000
300000
300000
600000
600000
000000
000000
000000
000000
000000
000000
000000
000000
000000
000000
000000
000000
000000
ENDCHAR

STARTCHAR jisx0208_216D
ENCODING 8557
SWIDTH 960 0
DWIDTH 18 0
BBX 18 18 0 -2
BITMAP
000000
2C0000
2C0000
580000
580000
000000
000000
000000
000000
000000
000000
000000
000000
000000
000000
000000
000000
000000
ENDCHAR

STARTCHAR jisx0208_216E
ENCODING 8558
SWIDTH 960 0
DWIDTH 18 0
BBX 18 18 0 -2
BITMAP
000000
380000
6CFB00
6B8F00
360300
060180
0C0180
0C0000
0C0000
0C0000
0C0000
0C0000
060180
060300
038700
00FC00
000000
000000
ENDCHAR

STARTCHAR jisx0208_216F
ENCODING 8559
SWIDTH 960 0
DWIDTH 18 0
BBX 18 18 0 -2
BITMAP
000000
000000
3F3F00
0C0C00
061800
061800
033000
033000
1F7E00
016000
00C000
1FFE00
00C000
00C000
00C000
03F000
000000
000000
ENDCHAR

STARTCHAR jisx0208_2170
ENCODING 8560
SWIDTH 960 0
DWIDTH 18 0
BBX 18 18 0 -2
BITMAP
000000
00C000
07D800
0CB800
18CC00
18CC00
18C000
0EC000
03C000
00F800
00CC00
18C600
18C600
0CC600
0ECC00
0BF800
00C000
000000
ENDCHAR

STARTCHAR jisx0208_2171
ENCODING 8561
SWIDTH 960 0
DWIDTH 18 0
BBX 18 18 0 -2
BITMAP
000000
000000
000000
000000
000000
003000
03F000
063800
0C5C00
0C5C00
0C6000
0CC000
0CC000
0CCC00
059800
03F000
018000
000000
ENDCHAR

STARTCHAR jisx0208_2172
ENCODING 8562
SWIDTH 960 0
DWIDTH 18 0
BBX 18 18 0 -2
BITMAP
000000
000000
007C00
00C600
018E00
018E00
018000
018000
0FFE00
00C000
00C000
00C000
0EC000
19C300
18E300
0FBE00
000000
000000
ENDCHAR

STARTCHAR jisx0208_2173
ENCODING 8563
SWIDTH 960 0
DWIDTH 18 0
BBX 18 18 0 -2
BITMAP
000000
000000
1E0600
330C00
331800
331800
333000
336000
1E6000
00CF00
019980
019980
031980
061980
061980
0C0F00
000000
000000
ENDCHAR

STARTCHAR jisx0208_2174
ENCODING 8564
SWIDTH 960 0
DWIDTH 18 0
BBX 18 18 0 -2
BITMAP
000000
000000
018C00
018C00
018C00
0FFF00
0FFF00
031800
031800
031800
1FFE00
1FFE00
063000
063000
063000
000000
000000
000000
ENDCHAR

STARTCHAR jisx0208_2175
ENCODING 8565
SWIDTH 960 0
DWIDTH 18 0
BBX 18 18 0 -2
BITMAP
000000
000000
03C000
066000
066000
066000
02C000
038000
058000
0CDE00
186C00
186C00
182C00
181800
0C3B00
07EE00
000000
000000
ENDCHAR

STARTCHAR jisx0208_2176
ENCODING 8566
SWIDTH 960 0
DWIDTH 18 0
BBX 18 18 0 -2
BITMAP
000000
000000
000000
000000
00C000
00C000
0EDC00
06B800
01E000
01E000
06B800
0EDC00
00C000
00C000
000000
000000
000000
000000
ENDCHAR

STARTCHAR jisx0208_2177
ENCODING 8567
SWIDTH 960 0
DWIDTH 18 0
BBX 18 18 0 -2
BITMAP
000000
000000
03F800
0E0E00
180300
19EB00
331D80
331980
361980
361980
363180
363300
1BDE00
180000
0E0E00
03F800
000000
000000
ENDCHAR

STARTCHAR jisx0208_2178
ENCODING 8568
SWIDTH 960 0
DWIDTH 18 0
BBX 18 18 0 -2
BITMAP
000000
03F000
061800
063800
063800
030000
03C000
067000
061800
061800
039800
00F000
003000
071800
071800
061800
03F000
000000
ENDCHAR

STARTCHAR jisx0208_2179
ENCODING 8569
SWIDTH 960 0
DWIDTH 18 0
BBX 18 18 0 -2
BITMAP
000000
00E000
00E000
00E000
01B000
01B000
01B000
7F1FC0
380380
0C0600
060C00
060C00
0CE600
0DB600
0F1E00
1C0700
180300
000000
ENDCHAR

STARTCHAR jisx0208_217A
ENCODING 8570
SWIDTH 960 0
DWIDTH 18 0
BBX 18 18 0 -2
BITMAP
000000
00E000
00E000
00E000
01F000
01F000
01F000
7FFFC0
3FFF80
0FFE00
07FC00
07FC00
0FFE00
0FBE00
0F1E00
1C0700
180300
000000
ENDCHAR

STARTCHAR jisx0208_217B
ENCODING 8571
SWIDTH 960 0
DWIDTH 18 0
BBX 18 18 0 -2
BITMAP
000000
000000
01F000
071C00
0C0600
180300
180300
300180
300180
300180
300180
180300
180300
0C0600
071C00
01F000
000000
000000
ENDCHAR

STARTCHAR jisx0208_217C
ENCODING 8572
SWIDTH 960 0
DWIDTH 18 0
BBX 18 18 0 -2
BITMAP
000000
000000
01F000
07FC00
0FFE00
1FFF00
1FFF00
3FFF80
3FFF80
3FFF80
3FFF80
1FFF00
1FFF00
0FFE00
07FC00
01F000
000000
000000
ENDCHAR

STARTCHAR jisx0208_217D
ENCODING 8573
SWIDTH 960 0
DWIDTH 18 0
BBX 18 18 0 -2
BITMAP
000000
000000
01F000
071C00
0C0600
19F300
1B1B00
360D80
360D80
360D80
360D80
1B1B00
19F300
0C0600
071C00
01F000
000000
000000
ENDCHAR

STARTCHAR jisx0208_217E
ENCODING 8574
SWIDTH 960 0
DWIDTH 18 0
BBX 18 18 0 -2
BITMAP
000000
00E000
01B000
031800
060C00
0C0600
180300
300180
6000C0
6000C0
300180
180300
0C0600
060C00
031800
01B000
00E000
000000
ENDCHAR

STARTCHAR jisx0208_2221
ENCODING 8737
SWIDTH 960 0
DWIDTH 18 0
BBX 18 18 0 -2
BITMAP
000000
00E000
01F000
03F800
07FC00
0FFE00
1FFF00
3FFF80
7FFFC0
7FFFC0
3FFF80
1FFF00
0FFE00
07FC00
03F800
01F000
00E000
000000
ENDCHAR

STARTCHAR jisx0208_2222
ENCODING 8738
SWIDTH 960 0
DWIDTH 18 0
BBX 18 18 0 -2
BITMAP
000000
000000
3FFF80
300180
300180
300180
300180
300180
300180
300180
300180
300180
300180
300180
300180
3FFF80
000000
000000
ENDCHAR

STARTCHAR jisx0208_2223
ENCODING 8739
SWIDTH 960 0
DWIDTH 18 0
BBX 18 18 0 -2
BITMAP
000000
000000
3FFF80
3FFF80
3FFF80
3FFF80
3FFF80
3FFF80
3FFF80
3FFF80
3FFF80
3FFF80
3FFF80
3FFF80
3FFF80
3FFF80
000000
000000
ENDCHAR

STARTCHAR jisx0208_2224
ENCODING 8740
SWIDTH 960 0
DWIDTH 18 0
BBX 18 18 0 -2
BITMAP
000000
000000
00E000
00E000
01B000
01B000
031800
031800
060C00
0C0600
0C0600
180300
180300
300180
7FFFC0
000000
000000
000000
ENDCHAR

STARTCHAR jisx0208_2225
ENCODING 8741
SWIDTH 960 0
DWIDTH 18 0
BBX 18 18 0 -2
BITMAP
000000
000000
00E000
00E000
01F000
01F000
03F800
03F800
07FC00
0FFE00
0FFE00
1FFF00
1FFF00
3FFF80
7FFFC0
000000
000000
000000
ENDCHAR

STARTCHAR jisx0208_2226
ENCODING 8742
SWIDTH 960 0
DWIDTH 18 0
BBX 18 18 0 -2
BITMAP
000000
000000
000000
7FFFC0
300180
180300
180300
0C0600
0C0600
060C00
031800
031800
01B000
01B000
00E000
00E000
000000
000000
ENDCHAR

STARTCHAR jisx0208_2227
ENCODING 8743
SWIDTH 960 0
DWIDTH 18 0
BBX 18 18 0 -2
BITMAP
000000
000000
000000
7FFFC0
3FFF80
1FFF00
1FFF00
0FFE00
0FFE00
07FC00
03F800
03F800
01F000
01F000
00E000
00E000
000000
000000
ENDCHAR

STARTCHAR jisx0208_2228
ENCODING 8744
SWIDTH 960 0
DWIDTH 18 0
BBX 18 18 0 -2
BITMAP
000000
000000
30E180
18E300
0C0600
060C00
031800
01B000
38E380
38E380
01B000
031800
060C00
0C0600
18E300
30E180
000000
000000
ENDCHAR

STARTCHAR jisx0208_2229
ENCODING 8745
SWIDTH 960 0
DWIDTH 18 0
BBX 18 18 0 -2
BITMAP
000000
000000
3FFF80
3FFF80
000000
000000
3FFF80
3FFF80
00E000
00E000
00E000
00E000
00E000
00E000
00E000
00E000
000000
000000
ENDCHAR

STARTCHAR jisx0208_222A
ENCODING 8746
SWIDTH 960 0
DWIDTH 18 0
BBX 18 18 0 -2
BITMAP
000000
000000
000000
000000
000000
000000
000E00
000380
7FFFC0
000380
000E00
000000
000000
000000
000000
000000
000000
000000
ENDCHAR

STARTCHAR jisx0208_222B
ENCODING 8747
SWIDTH 960 0
DWIDTH 18 0
BBX 18 18 0 -2
BITMAP
000000
000000
000000
000000
000000
000000
0E0000
380000
7FFFC0
380000
0E0000
000000
000000
000000
000000
000000
000000
000000
ENDCHAR

STARTCHAR jisx0208_222C
ENCODING 8748
SWIDTH 960 0
DWIDTH 18 0
BBX 18 18 0 -2
BITMAP
000000
00C000
01E000
01E000
02B000
02B000
00C000
00C000
00C000
00C000
00C000
00C000
00C000
00C000
00C000
00C000
00C000
000000
ENDCHAR

STARTCHAR jisx0208_222D
ENCODING 8749
SWIDTH 960 0
DWIDTH 18 0
BBX 18 18 0 -2
BITMAP
000000
00C000
00C000
00C000
00C000
00C000
00C000
00C000
00C000
00C000
00C000
00C000
02B000
02B000
01E000
01E000
00C000
000000
ENDCHAR

STARTCHAR jisx0208_222E
ENCODING 8750
SWIDTH 960 0
DWIDTH 18 0
BBX 18 18 0 -2
BITMAP
000000
000000
000000
000000
000000
1FFF00
1FFF00
000000
000000
000000
1FFF00
1FFF00
000000
000000
000000
000000
000000
000000
ENDCHAR

STARTCHAR jisx0208_222F
ENCODING 8751
SWIDTH 960 0
DWIDTH 18 0
BBX 18 18 0 -2
BITMAP
000000
000000
300180
000000
000000
000000
000000
000000
000000
000000
000000
000000
000000
000000
000000
300180
000000
000000
ENDCHAR

STARTCHAR jisx0208_223A
ENCODING 8762
SWIDTH 960 0
DWIDTH 18 0
BBX 18 18 0 -2
BITMAP
000000
000000
000000
07FF00
1C0000
180000
300000
300000
3FFF00
300000
300000
180000
1C0000
07FF00
000000
000000
000000
000000
ENDCHAR

STARTCHAR jisx0208_223B
ENCODING 8763
SWIDTH 960 0
DWIDTH 18 0
BBX 18 18 0 -2
BITMAP
000000
000000
000000
3FF800
000E00
000600
000300
000300
3FFF00
000300
000300
000600
000E00
3FF800
000000
000000
000000
000000
ENDCHAR

STARTCHAR jisx0208_223C
ENCODING 8764
SWIDTH 960 0
DWIDTH 18 0
BBX 18 18 0 -2
BITMAP
000000
000000
000000
07FF00
0C0000
180000
180000
180000
180000
180000
0C0000
07FF00
000000
000000
1FFF00
000000
000000
000000
ENDCHAR

STARTCHAR jisx0208_223D
ENCODING 8765
SWIDTH 960 0
DWIDTH 18 0
BBX 18 18 0 -2
BITMAP
000000
000000
000000
1FFC00
000600
000300
000300
000300
000300
000300
000600
1FFC00
000000
000000
1FFF00
000000
000000
000000
ENDCHAR

STARTCHAR jisx0208_223E
ENCODING 8766
SWIDTH 960 0
DWIDTH 18 0
BBX 18 18 0 -2
BITMAP
000000
000000
000000
000000
03FF00
0E0000
0C0000
180000
180000
180000
180000
0C0000
0E0000
03FF00
000000
000000
000000
000000
ENDCHAR

STARTCHAR jisx0208_223F
ENCODING 8767
SWIDTH 960 0
DWIDTH 18 0
BBX 18 18 0 -2
BITMAP
000000
000000
000000
000000
1FF800
000E00
000600
000300
000300
000300
000300
000600
000E00
1FF800
000000
000000
000000
000000
ENDCHAR

STARTCHAR jisx0208_2240
ENCODING 8768
SWIDTH 960 0
DWIDTH 18 0
BBX 18 18 0 -2
BITMAP
000000
000000
000000
0C0600
0C0600
0C0600
0C0600
0C0600
0C0600
0C0600
0C0600
0C0600
060C00
071C00
01F000
000000
000000
000000
ENDCHAR

STARTCHAR jisx0208_2241
ENCODING 8769
SWIDTH 960 0
DWIDTH 18 0
BBX 18 18 0 -2
BITMAP
000000
000000
000000
01F000
071C00
060C00
0C0600
0C0600
0C0600
0C0600
0C0600
0C0600
0C0600
0C0600
0C0600
000000
000000
000000
ENDCHAR

STARTCHAR jisx0208_224A
ENCODING 8778
SWIDTH 960 0
DWIDTH 18 0
BBX 18 18 0 -2
BITMAP
000000
000000
000000
00E000
00E000
01B000
01B000
031800
031800
060C00
060C00
0C0600
0C0600
180300
180300
000000
000000
000000
ENDCHAR

STARTCHAR jisx0208_224B
ENCODING 8779
SWIDTH 960 0
DWIDTH 18 0
BBX 18 18 0 -2
BITMAP
000000
000000
000000
180300
180300
0C0600
0C0600
060C00
060C00
031800
031800
01B000
01B000
00E000
00E000
000000
000000
000000
ENDCHAR

STARTCHAR jisx0208_224C
ENCODING 8780
SWIDTH 960 0
DWIDTH 18 0
BBX 18 18 0 -2
BITMAP
000000
000000
000000
000000
000000
000000
000000
3FFF80
000180
000180
000180
000000
000000
000000
000000
000000
000000
000000
ENDCHAR

STARTCHAR jisx0208_224D
ENCODING 8781
SWIDTH 960 0
DWIDTH 18 0
BBX 18 18 0 -2
BITMAP
000000
000000
000000
001800
000C00
000600
7FFF00
000180
0000C0
000180
7FFF00
000600
000C00
001800
000000
000000
000000
000000
ENDCHAR

STARTCHAR jisx0208_224E
ENCODING 8782
SWIDTH 960 0
DWIDTH 18 0
BBX 18 18 0 -2
BITMAP
000000
000000
000000
031800
060C00
0C0600
1FFF00
300180
6000C0
300180
1FFF00
0C0600
060C00
031800
000000
000000
000000
000000
ENDCHAR

STARTCHAR jisx0208_224F
ENCODING 8783
SWIDTH 960 0
DWIDTH 18 0
BBX 18 18 0 -2
BITMAP
000000
000000
000000
180300
180300
0C0600
0FFE00
060C00
060C00
031800
031800
01B000
01B000
00E000
00E000
000000
000000
000000
ENDCHAR

STARTCHAR jisx0208_2250
ENCODING 8784
SWIDTH 960 0
DWIDTH 18 0
BBX 18 18 0 -2
BITMAP
000000
000000
000000
0FFE00
000600
000600
000600
000600
0FFE00
000600
000600
000600
000600
000600
0FFE00
000000
000000
000000
ENDCHAR

STARTCHAR jisx0208_225C
ENCODING 8796
SWIDTH 960 0
DWIDTH 18 0
BBX 18 18 0 -2
BITMAP
000000
000000
000000
000300
000600
000C00
001800
003000
006000
00C000
018000
030000
060000
0C0000
1FFF00
000000
000000
000000
ENDCHAR

STARTCHAR jisx0208_225D
ENCODING 8797
SWIDTH 960 0
DWIDTH 18 0
BBX 18 18 0 -2
BITMAP
000000
000000
000000
00C000
00C000
00C000
00C000
00C000
00C000
00C000
00C000
00C000
00C000
00C000
3FFF00
000000
000000
000000
ENDCHAR

STARTCHAR jisx0208_225E
ENCODING 8798
SWIDTH 960 0
DWIDTH 18 0
BBX 18 18 0 -2
BITMAP
000000
07FC00
1C0700
300180
6000C0
000000
000000
000000
000000
000000
000000
000000
000000
000000
000000
000000
000000
000000
ENDCHAR

STARTCHAR jisx0208_225F
ENCODING 8799
SWIDTH 960 0
DWIDTH 18 0
BBX 18 18 0 -2
BITMAP
000000
000000
01F000
031800
060C00
000C00
01EC00
031C00
060C00
060C00
0C0C00
0C0C00
0C1800
0C1800
063000
03E000
000000
000000
ENDCHAR

STARTCHAR jisx0208_2260
ENCODING 8800
SWIDTH 960 0
DWIDTH 18 0
BBX 18 18 0 -2
BITMAP
000000
000000
000000
3FFF80
3FFF80
1C0300
0C0600
0E0600
060C00
070C00
039800
01B000
01B000
00E000
00E000
000000
000000
000000
ENDCHAR

STARTCHAR jisx0208_2261
ENCODING 8801
SWIDTH 960 0
DWIDTH 18 0
BBX 18 18 0 -2
BITMAP
000000
000000
000000
000000
1FFF00
000000
000000
000000
1FFF00
000000
000000
000000
1FFF00
000000
000000
000000
000000
000000
ENDCHAR

STARTCHAR jisx0208_2262
ENCODING 8802
SWIDTH 960 0
DWIDTH 18 0
BBX 18 18 0 -2
BITMAP
000000
000000
000000
070000
070000
000000
1FFF00
000000
000000
000000
1FFF00
000000
001C00
001C00
000000
000000
000000
000000
ENDCHAR

STARTCHAR jisx0208_2263
ENCODING 8803
SWIDTH 960 0
DWIDTH 18 0
BBX 18 18 0 -2
BITMAP
000000
000000
006600
00CC00
019800
033000
066000
0CC000
198000
0CC000
066000
033000
019800
00CC00
006600
000000
000000
000000
ENDCHAR

STARTCHAR jisx0208_2264
ENCODING 8804
SWIDTH 960 0
DWIDTH 18 0
BBX 18 18 0 -2
BITMAP
000000
000000
0CC000
066000
033000
019800
00CC00
006600
003300
006600
00CC00
019800
033000
066000
0CC000
000000
000000
000000
ENDCHAR

STARTCHAR jisx0208_2265
ENCODING 8805
SWIDTH 960 0
DWIDTH 18 0
BBX 18 18 0 -2
BITMAP
000000
007FC0
006000
006000
00C000
00C000
00C000
018000
018000
018000
1B0000
3B0000
6B0000
0E0000
060000
060000
000000
000000
ENDCHAR

STARTCHAR jisx0208_2266
ENCODING 8806
SWIDTH 960 0
DWIDTH 18 0
BBX 18 18 0 -2
BITMAP
000000
000000
000000
000000
000000
1E0F00
331980
6030C0
6060C0
60C0C0
6180C0
331980
1E0F00
000000
000000
000000
000000
000000
ENDCHAR

STARTCHAR jisx0208_2267
ENCODING 8807
SWIDTH 960 0
DWIDTH 18 0
BBX 18 18 0 -2
BITMAP
000000
000000
000000
000000
000000
1E1E00
333300
616180
60C000
60C000
616180
333300
1E1E00
000000
000000
000000
000000
000000
ENDCHAR

STARTCHAR jisx0208_2268
ENCODING 8808
SWIDTH 960 0
DWIDTH 18 0
BBX 18 18 0 -2
BITMAP
000000
000000
000000
000000
1C0700
1C0700
000000
000000
000000
000000
000000
000000
00E000
00E000
000000
000000
000000
000000
ENDCHAR

STARTCHAR jisx0208_2269
ENCODING 8809
SWIDTH 960 0
DWIDTH 18 0
BBX 18 18 0 -2
BITMAP
000000
00F000
019800
01B800
01B800
018000
018000
00C000
00C000
00C000
00C000
006000
006000
076000
076000
066000
03C000
000000
ENDCHAR

STARTCHAR jisx0208_226A
ENCODING 8810
SWIDTH 960 0
DWIDTH 18 0
BBX 18 18 0 -2
BITMAP
000000
078F00
0CD980
0DDB80
0DDB80
0C1800
0C1800
060C00
060C00
060C00
060C00
030600
030600
3B7600
3B7600
336600
1E3C00
000000
ENDCHAR

STARTCHAR jisx0208_2272
ENCODING 8818
SWIDTH 960 0
DWIDTH 18 0
BBX 18 18 0 -2
BITMAP
000000
00E000
01B000
01B000
00E000
00E000
01B000
01B000
031800
031800
060C00
060C00
0FFE00
0C0600
180300
7E0FC0
000000
000000
ENDCHAR

STARTCHAR jisx0208_2273
ENCODING 8819
SWIDTH 960 0
DWIDTH 18 0
BBX 18 18 0 -2
BITMAP
000000
000000
1C6000
366000
36C000
36C000
358000
1D8000
030000
030000
06E700
05AD80
0DAD80
0DAD80
19AD80
18E700
000000
000000
ENDCHAR

STARTCHAR jisx0208_2274
ENCODING 8820
SWIDTH 960 0
DWIDTH 18 0
BBX 18 18 0 -2
BITMAP
000000
000000
001800
031800
031800
031F00
03F800
1F1800
031800
031800
031F00
03F800
1F1800
031800
031800
030000
000000
000000
ENDCHAR

STARTCHAR jisx0208_2275
ENCODING 8821
SWIDTH 960 0
DWIDTH 18 0
BBX 18 18 0 -2
BITMAP
000000
000000
030000
030000
030000
030000
030000
02F000
039800
031800
031800
031800
033000
036000
02C000
038000
000000
000000
ENDCHAR

STARTCHAR jisx0208_2276
ENCODING 8822
SWIDTH 960 0
DWIDTH 18 0
BBX 18 18 0 -2
BITMAP
000000
000000
00C000
00E000
00B000
00D800
00CC00
00C600
00C600
00C600
00CC00
00D800
00C000
03C000
07C000
078000
000000
000000
ENDCHAR

STARTCHAR jisx0208_2277
ENCODING 8823
SWIDTH 960 0
DWIDTH 18 0
BBX 18 18 0 -2
BITMAP
000000
00C000
01E000
06D800
0FFC00
06D800
00C000
01E000
00C000
00C000
00C000
00C000
00C000
00C000
00C000
00C000
01E000
000000
ENDCHAR

STARTCHAR jisx0208_2278
ENCODING 8824
SWIDTH 960 0
DWIDTH 18 0
BBX 18 18 0 -2
BITMAP
000000
00C000
01E000
06D800
0FFC00
06D800
00C000
01E000
00C000
00C000
01E000
00C000
06D800
0FFC00
06D800
01E000
00C000
000000
ENDCHAR

STARTCHAR jisx0208_2279
ENCODING 8825
SWIDTH 960 0
DWIDTH 18 0
BBX 18 18 0 -2
BITMAP
000000
03FC00
07D800
0FD800
0FD800
0FD800
0FD800
07D800
03D800
00D800
00D800
00D800
00D800
00D800
00D800
00D800
00D800
000000
ENDCHAR

STARTCHAR jisx0208_227E
ENCODING 8830
SWIDTH 960 0
DWIDTH 18 0
BBX 18 18 0 -2
BITMAP
000000
03F800
0E0E00
180300
300180
300180
6000C0
6000C0
6000C0
6000C0
6000C0
6000C0
300180
300180
180300
0E0E00
03F800
000000
ENDCHAR

STARTCHAR jisx0208_2330
ENCODING 9008
SWIDTH 960 0
DWIDTH 18 0
BBX 18 18 0 -2
BITMAP
000000
000000
03F000
0E1C00
0C0C00
180600
180600
180600
180600
180600
180600
180600
180600
0C0C00
0E1C00
03F000
000000
000000
ENDCHAR

STARTCHAR jisx0208_2331
ENCODING 9009
SWIDTH 960 0
DWIDTH 18 0
BBX 18 18 0 -2
BITMAP
000000
000000
00C000
01C000
02C000
06C000
00C000
00C000
00C000
00C000
00C000
00C000
00C000
00C000
00C000
07F800
000000
000000
ENDCHAR

STARTCHAR jisx0208_2332
ENCODING 9010
SWIDTH 960 0
DWIDTH 18 0
BBX 18 18 0 -2
BITMAP
000000
000000
03F800
060C00
0C0600
0E0600
0E0600
000C00
001800
007000
01C000
030000
060300
0C0300
0C0600
0FFE00
000000
000000
ENDCHAR

STARTCHAR jisx0208_2333
ENCODING 9011
SWIDTH 960 0
DWIDTH 18 0
BBX 18 18 0 -2
BITMAP
000000
000000
03F000
061800
0C0C00
0E0C00
0E0C00
001800
01F800
000C00
000600
1C0600
1C0600
180600
0C0C00
07F800
000000
000000
ENDCHAR

STARTCHAR jisx0208_2334
ENCODING 9012
SWIDTH 960 0
DWIDTH 18 0
BBX 18 18 0 -2
BITMAP
000000
000000
001800
003800
005800
00D800
00D800
019800
031800
031800
061B00
0C1B00
1FFF00
001800
001800
007E00
000000
000000
ENDCHAR

STARTCHAR jisx0208_2335
ENCODING 9013
SWIDTH 960 0
DWIDTH 18 0
BBX 18 18 0 -2
BITMAP
000000
000000
07FC00
060000
060000
060000
0C0000
0BF800
0E0C00
0C0600
000600
000600
0E0600
0E0600
060C00
03F800
000000
000000
ENDCHAR

STARTCHAR jisx0208_2336
ENCODING 9014
SWIDTH 960 0
DWIDTH 18 0
BBX 18 18 0 -2
BITMAP
000000
000000
03F800
060C00
0C0E00
0C0E00
0C0000
0BF800
0E0C00
0C0600
0C0600
0C0600
0C0600
0C0600
060C00
03F800
000000
000000
ENDCHAR

STARTCHAR jisx0208_2337
ENCODING 9015
SWIDTH 960 0
DWIDTH 18 0
BBX 18 18 0 -2
BITMAP
000000
000000
0FFE00
0C0600
180C00
181800
001800
003000
003000
006000
006000
006000
00C000
00C000
00C000
00C000
000000
000000
ENDCHAR

STARTCHAR jisx0208_2338
ENCODING 9016
SWIDTH 960 0
DWIDTH 18 0
BBX 18 18 0 -2
BITMAP
000000
000000
03F000
061800
0C0C00
0C0C00
0C0C00
061800
07F800
0C0C00
180600
180600
180600
180600
0C0C00
07F800
000000
000000
ENDCHAR

STARTCHAR jisx0208_2339
ENCODING 9017
SWIDTH 960 0
DWIDTH 18 0
BBX 18 18 0 -2
BITMAP
000000
000000
03F800
060C00
0C0600
0C0600
0C0600
0C0600
0C0600
060E00
03F600
000600
000600
0E0600
0E0C00
07F800
000000
000000
ENDCHAR

STARTCHAR jisx0208_2341
ENCODING 9025
SWIDTH 960 0
DWIDTH 18 0
BBX 18 18 0 -2
BITMAP
000000
000000
00C000
00C000
016000
016000
033000
033000
061800
061800
061800
0C0C00
0FFC00
180600
180600
7E1F80
000000
000000
ENDCHAR

STARTCHAR jisx0208_2342
ENCODING 9026
SWIDTH 960 0
DWIDTH 18 0
BBX 18 18 0 -2
BITMAP
000000
000000
1FF800
060C00
060600
060600
060600
060C00
07FC00
060600
060300
060300
060300
060300
060600
1FFC00
000000
000000
ENDCHAR

STARTCHAR jisx0208_2343
ENCODING 9027
SWIDTH 960 0
DWIDTH 18 0
BBX 18 18 0 -2
BITMAP
000000
000000
01F600
071E00
0C0600
0C0300
180300
180000
180000
180000
180000
180000
0C0300
0C0600
070E00
01F800
000000
000000
ENDCHAR

STARTCHAR jisx0208_2344
ENCODING 9028
SWIDTH 960 0
DWIDTH 18 0
BBX 18 18 0 -2
BITMAP
000000
000000
1FF800
060E00
060600
060300
060300
060300
060300
060300
060300
060300
060300
060600
060E00
1FF800
000000
000000
ENDCHAR

STARTCHAR jisx0208_2345
ENCODING 9029
SWIDTH 960 0
DWIDTH 18 0
BBX 18 18 0 -2
BITMAP
000000
000000
1FFC00
060C00
060600
060600
061800
061800
07F800
061800
061800
060000
060300
060300
060600
1FFE00
000000
000000
ENDCHAR

STARTCHAR jisx0208_2346
ENCODING 9030
SWIDTH 960 0
DWIDTH 18 0
BBX 18 18 0 -2
BITMAP
000000
000000
1FFE00
060600
060300
060300
061800
061800
07F800
061800
061800
060000
060000
060000
060000
1F8000
000000
000000
ENDCHAR

STARTCHAR jisx0208_2347
ENCODING 9031
SWIDTH 960 0
DWIDTH 18 0
BBX 18 18 0 -2
BITMAP
000000
000000
01F600
071E00
0C0600
0C0300
180300
180000
180000
187F80
180300
180300
0C0300
0C0700
070B00
01FB00
000000
000000
ENDCHAR

STARTCHAR jisx0208_2348
ENCODING 9032
SWIDTH 960 0
DWIDTH 18 0
BBX 18 18 0 -2
BITMAP
000000
000000
3F1F80
0C0600
0C0600
0C0600
0C0600
0C0600
0FFE00
0C0600
0C0600
0C0600
0C0600
0C0600
0C0600
3F1F80
000000
000000
ENDCHAR

STARTCHAR jisx0208_2349
ENCODING 9033
SWIDTH 960 0
DWIDTH 18 0
BBX 18 18 0 -2
BITMAP
000000
000000
03F000
00C000
00C000
00C000
00C000
00C000
00C000
00C000
00C000
00C000
00C000
00C000
00C000
03F000
000000
000000
ENDCHAR

STARTCHAR jisx0208_234A
ENCODING 9034
SWIDTH 960 0
DWIDTH 18 0
BBX 18 18 0 -2
BITMAP
000000
000000
00FC00
003000
003000
003000
003000
003000
003000
003000
003000
003000
0E3000
0E3000
0C6000
07C000
000000
000000
ENDCHAR

STARTCHAR jisx0208_234B
ENCODING 9035
SWIDTH 960 0
DWIDTH 18 0
BBX 18 18 0 -2
BITMAP
000000
000000
3F3F00
0C0C00
0C1800
0C3000
0C6000
0CC000
0D6000
0B3000
0E3000
0C1800
0C0C00
0C0C00
0C0600
3F1F80
000000
000000
ENDCHAR

STARTCHAR jisx0208_234C
ENCODING 9036
SWIDTH 960 0
DWIDTH 18 0
BBX 18 18 0 -2
BITMAP
000000
000000
1F8000
060000
060000
060000
060000
060000
060000
060000
060000
060000
060300
060300
060600
1FFE00
000000
000000
ENDCHAR

STARTCHAR jisx0208_234D
ENCODING 9037
SWIDTH 960 0
DWIDTH 18 0
BBX 18 18 0 -2
BITMAP
000000
000000
7C07C0
1C0700
160B00
160B00
160B00
1B1B00
1B1B00
1B1B00
19B300
19B300
19B300
18E300
18E300
7EEFC0
000000
000000
ENDCHAR

STARTCHAR jisx0208_234E
ENCODING 9038
SWIDTH 960 0
DWIDTH 18 0
BBX 18 18 0 -2
BITMAP
000000
000000
3C1F80
0E0600
0E0600
0B0600
0D8600
0D8600
0CC600
0C6600
0C6600
0C3600
0C1600
0C1600
0C0E00
3F0600
000000
000000
ENDCHAR

STARTCHAR jisx0208_234F
ENCODING 9039
SWIDTH 960 0
DWIDTH 18 0
BBX 18 18 0 -2
BITMAP
000000
000000
01F000
071C00
0C0600
0C0600
180300
180300
180300
180300
180300
180300
0C0600
0C0600
071C00
01F000
000000
000000
ENDCHAR

STARTCHAR jisx0208_2350
ENCODING 9040
SWIDTH 960 0
DWIDTH 18 0
BBX 18 18 0 -2
BITMAP
000000
000000
1FF800
060C00
060600
060600
060600
060600
060C00
07F800
060000
060000
060000
060000
060000
1F8000
000000
000000
ENDCHAR

STARTCHAR jisx0208_2351
ENCODING 9041
SWIDTH 960 0
DWIDTH 18 0
BBX 18 18 0 -2
BITMAP
000000
000000
01F000
071C00
0C0600
0C0600
180300
180300
180300
180300
180300
180300
0DE600
0B3600
071D80
01F700
000000
000000
ENDCHAR

STARTCHAR jisx0208_2352
ENCODING 9042
SWIDTH 960 0
DWIDTH 18 0
BBX 18 18 0 -2
BITMAP
000000
000000
1FF800
060C00
060600
060600
060600
060600
060C00
07F800
061800
060C00
060C00
060C00
060D80
1F8700
000000
000000
ENDCHAR

STARTCHAR jisx0208_2353
ENCODING 9043
SWIDTH 960 0
DWIDTH 18 0
BBX 18 18 0 -2
BITMAP
000000
000000
03EC00
061C00
0C0600
0C0600
0C0000
070000
01E000
003C00
000600
0C0300
0C0300
060300
070600
05FC00
000000
000000
ENDCHAR

STARTCHAR jisx0208_2354
ENCODING 9044
SWIDTH 960 0
DWIDTH 18 0
BBX 18 18 0 -2
BITMAP
000000
000000
1FFE00
18C600
30C300
30C300
00C000
00C000
00C000
00C000
00C000
00C000
00C000
00C000
00C000
03F000
000000
000000
ENDCHAR

STARTCHAR jisx0208_2355
ENCODING 9045
SWIDTH 960 0
DWIDTH 18 0
BBX 18 18 0 -2
BITMAP
000000
000000
3F1F80
0C0600
0C0600
0C0600
0C0600
0C0600
0C0600
0C0600
0C0600
0C0600
0C0600
0C0600
060C00
03F800
000000
000000
ENDCHAR

STARTCHAR jisx0208_2356
ENCODING 9046
SWIDTH 960 0
DWIDTH 18 0
BBX 18 18 0 -2
BITMAP
000000
000000
7E1F80
180600
180600
0C0C00
0C0C00
061800
061800
061800
033000
033000
016000
016000
00C000
00C000
000000
000000
ENDCHAR

STARTCHAR jisx0208_2357
ENCODING 9047
SWIDTH 960 0
DWIDTH 18 0
BBX 18 18 0 -2
BITMAP
000000
000000
7CCF80
30C300
30C300
196600
196600
196600
196600
0B2C00
0B2C00
0B2C00
0B2C00
061800
061800
061800
000000
000000
ENDCHAR

STARTCHAR jisx0208_2358
ENCODING 9048
SWIDTH 960 0
DWIDTH 18 0
BBX 18 18 0 -2
BITMAP
000000
000000
3F3F00
0C0C00
061800
033000
033000
016000
00C000
00C000
016000
033000
033000
061800
0C0C00
3F3F00
000000
000000
ENDCHAR

STARTCHAR jisx0208_2359
ENCODING 9049
SWIDTH 960 0
DWIDTH 18 0
BBX 18 18 0 -2
BITMAP
000000
000000
3F3F00
0C0C00
0C0C00
061800
061800
033000
033000
016000
016000
00C000
00C000
00C000
00C000
03F000
000000
000000
ENDCHAR

STARTCHAR jisx0208_235A
ENCODING 9050
SWIDTH 960 0
DWIDTH 18 0
BBX 18 18 0 -2
BITMAP
000000
000000
07FF00
060600
0C0C00
0C1800
001800
003000
006000
00C000
018000
018000
030300
060300
0C0600
1FFE00
000000
000000
ENDCHAR

STARTCHAR jisx0208_2361
ENCODING 9057
SWIDTH 960 0
DWIDTH 18 0
BBX 18 18 0 -2
BITMAP
000000
000000
000000
000000
000000
000000
03F000
071800
071800
003800
01D800
071800
0C1800
0C1800
0C3600
07DC00
000000
000000
ENDCHAR

STARTCHAR jisx0208_2362
ENCODING 9058
SWIDTH 960 0
DWIDTH 18 0
BBX 18 18 0 -2
BITMAP
000000
000000
030000
0F0000
030000
030000
02F800
038C00
030600
030600
030600
030600
030600
030600
038C00
0EF800
000000
000000
ENDCHAR

STARTCHAR jisx0208_2363
ENCODING 9059
SWIDTH 960 0
DWIDTH 18 0
BBX 18 18 0 -2
BITMAP
000000
000000
000000
000000
000000
000000
03F000
061800
0C1C00
0C1C00
0C0000
0C0000
0C0000
0C0C00
061800
03F000
000000
000000
ENDCHAR

STARTCHAR jisx0208_2364
ENCODING 9060
SWIDTH 960 0
DWIDTH 18 0
BBX 18 18 0 -2
BITMAP
000000
000000
001800
007800
001800
001800
03D800
063800
0C1800
0C1800
0C1800
0C1800
0C1800
0C1800
063800
03DE00
000000
000000
ENDCHAR

STARTCHAR jisx0208_2365
ENCODING 9061
SWIDTH 960 0
DWIDTH 18 0
BBX 18 18 0 -2
BITMAP
000000
000000
000000
000000
000000
000000
03F000
061800
0C0C00
0C0C00
0FFC00
0C0000
0C0000
0C0C00
061800
03F000
000000
000000
ENDCHAR

STARTCHAR jisx0208_2366
ENCODING 9062
SWIDTH 960 0
DWIDTH 18 0
BBX 18 18 0 -2
BITMAP
000000
000000
007800
00DC00
00DC00
00C000
07F800
00C000
00C000
00C000
00C000
00C000
00C000
00C000
00C000
03F000
000000
000000
ENDCHAR

STARTCHAR jisx0208_2367
ENCODING 9063
SWIDTH 960 0
DWIDTH 18 0
BBX 18 18 0 -2
BITMAP
000000
000000
000000
000000
000000
000000
03DE00
062E00
063000
063000
063000
03E000
060000
07F800
0C0C00
0C0C00
07F800
000000
ENDCHAR

STARTCHAR jisx0208_2368
ENCODING 9064
SWIDTH 960 0
DWIDTH 18 0
BBX 18 18 0 -2
BITMAP
000000
000000
060000
1E0000
060000
060000
05F000
071800
060C00
060C00
060C00
060C00
060C00
060C00
060C00
1FBF00
000000
000000
ENDCHAR

STARTCHAR jisx0208_2369
ENCODING 9065
SWIDTH 960 0
DWIDTH 18 0
BBX 18 18 0 -2
BITMAP
000000
000000
01C000
01C000
000000
000000
00C000
03C000
00C000
00C000
00C000
00C000
00C000
00C000
00C000
03F000
000000
000000
ENDCHAR

STARTCHAR jisx0208_236A
ENCODING 9066
SWIDTH 960 0
DWIDTH 18 0
BBX 18 18 0 -2
BITMAP
000000
000000
00E000
00E000
000000
000000
006000
01E000
006000
006000
006000
006000
006000
006000
076000
076000
03C000
000000
ENDCHAR

STARTCHAR jisx0208_236B
ENCODING 9067
SWIDTH 960 0
DWIDTH 18 0
BBX 18 18 0 -2
BITMAP
000000
000000
060000
1E0000
060000
060000
067C00
063000
066000
06C000
056000
076000
063000
061800
061800
1FBE00
000000
000000
ENDCHAR

STARTCHAR jisx0208_236C
ENCODING 9068
SWIDTH 960 0
DWIDTH 18 0
BBX 18 18 0 -2
BITMAP
000000
000000
00C000
03C000
00C000
00C000
00C000
00C000
00C000
00C000
00C000
00C000
00C000
00C000
00C000
03F000
000000
000000
ENDCHAR

STARTCHAR jisx0208_236D
ENCODING 9069
SWIDTH 960 0
DWIDTH 18 0
BBX 18 18 0 -2
BITMAP
000000
000000
000000
000000
000000
000000
17BC00
7CE600
18C600
18C600
18C600
18C600
18C600
18C600
18C600
7BEF80
000000
000000
ENDCHAR

STARTCHAR jisx0208_236E
ENCODING 9070
SWIDTH 960 0
DWIDTH 18 0
BBX 18 18 0 -2
BITMAP
000000
000000
000000
000000
000000
000000
05F000
1F1800
060C00
060C00
060C00
060C00
060C00
060C00
060C00
1FBF00
000000
000000
ENDCHAR

STARTCHAR jisx0208_236F
ENCODING 9071
SWIDTH 960 0
DWIDTH 18 0
BBX 18 18 0 -2
BITMAP
000000
000000
000000
000000
000000
000000
03F000
061800
0C0C00
0C0C00
0C0C00
0C0C00
0C0C00
0C0C00
061800
03F000
000000
000000
ENDCHAR

STARTCHAR jisx0208_2370
ENCODING 9072
SWIDTH 960 0
DWIDTH 18 0
BBX 18 18 0 -2
BITMAP
000000
000000
000000
000000
000000
000000
02F800
0F8C00
030600
030600
030600
030600
030600
038C00
02F800
030000
0FC000
000000
ENDCHAR

STARTCHAR jisx0208_2371
ENCODING 9073
SWIDTH 960 0
DWIDTH 18 0
BBX 18 18 0 -2
BITMAP
000000
000000
000000
000000
000000
000000
03D800
063800
0C1800
0C1800
0C1800
0C1800
0C1800
063800
03D800
001800
003C00
000000
ENDCHAR

STARTCHAR jisx0208_2372
ENCODING 9074
SWIDTH 960 0
DWIDTH 18 0
BBX 18 18 0 -2
BITMAP
000000
000000
000000
000000
000000
000000
01BC00
075C00
01C000
018000
018000
018000
018000
018000
018000
07E000
000000
000000
ENDCHAR

STARTCHAR jisx0208_2373
ENCODING 9075
SWIDTH 960 0
DWIDTH 18 0
BBX 18 18 0 -2
BITMAP
000000
000000
000000
000000
000000
000000
03D800
063800
061800
060000
03C000
007800
060C00
060C00
070C00
05F800
000000
000000
ENDCHAR

STARTCHAR jisx0208_2374
ENCODING 9076
SWIDTH 960 0
DWIDTH 18 0
BBX 18 18 0 -2
BITMAP
000000
000000
018000
018000
018000
018000
07F000
018000
018000
018000
018000
018000
018000
019800
01B000
00E000
000000
000000
ENDCHAR

STARTCHAR jisx0208_2375
ENCODING 9077
SWIDTH 960 0
DWIDTH 18 0
BBX 18 18 0 -2
BITMAP
000000
000000
000000
000000
000000
000000
060C00
1E3C00
060C00
060C00
060C00
060C00
060C00
060C00
031C00
01EF00
000000
000000
ENDCHAR

STARTCHAR jisx0208_2376
ENCODING 9078
SWIDTH 960 0
DWIDTH 18 0
BBX 18 18 0 -2
BITMAP
000000
000000
000000
000000
000000
000000
1FBF00
060C00
060C00
031800
031800
01B000
01B000
00E000
00E000
00E000
000000
000000
ENDCHAR

STARTCHAR jisx0208_2377
ENCODING 9079
SWIDTH 960 0
DWIDTH 18 0
BBX 18 18 0 -2
BITMAP
000000
000000
000000
000000
000000
000000
7CCF80
30C300
196600
196600
196600
0B2C00
0B2C00
0B2C00
061800
061800
000000
000000
ENDCHAR

STARTCHAR jisx0208_2378
ENCODING 9080
SWIDTH 960 0
DWIDTH 18 0
BBX 18 18 0 -2
BITMAP
000000
000000
000000
000000
000000
000000
1F7E00
061800
033000
016000
00C000
00C000
016000
033000
061800
1F7E00
000000
000000
ENDCHAR

STARTCHAR jisx0208_2379
ENCODING 9081
SWIDTH 960 0
DWIDTH 18 0
BBX 18 18 0 -2
BITMAP
000000
000000
000000
000000
000000
000000
1F7E00
061800
061800
033000
033000
016000
016000
00C000
00C000
0D8000
0F0000
000000
ENDCHAR

STARTCHAR jisx0208_237A
ENCODING 9082
SWIDTH 960 0
DWIDTH 18 0
BBX 18 18 0 -2
BITMAP
000000
000000
000000
000000
000000
000000
07FC00
061800
063000
006000
00C000
00C000
018000
030C00
060C00
0FFC00
000000
000000
ENDCHAR

STARTCHAR jisx0208_2421
ENCODING 9249
SWIDTH 960 0
DWIDTH 18 0
BBX 18 18 0 -2
BITMAP
000000
000000
000000
000000
01C000
00B800
0FE000
018000
01B000
03FC00
05B600
0D6300
196300
18C300
19C600
0F0E00
003800
000000
ENDCHAR

STARTCHAR jisx0208_2422
ENCODING 9250
SWIDTH 960 0
DWIDTH 18 0
BBX 18 18 0 -2
BITMAP
000000
038000
018000
01B800
0FE000
030000
033000
03FC00
073700
0B3300
1B6180
336180
31C180
318300
32C300
1E0E00
007800
000000
ENDCHAR

STARTCHAR jisx0208_2423
ENCODING 9251
SWIDTH 960 0
DWIDTH 18 0
BBX 18 18 0 -2
BITMAP
000000
000000
000000
000000
000000
000000
0C0000
060000
060C00
0C0600
0C0300
0C0300
0D8F00
0B0300
070000
030000
000000
000000
ENDCHAR

STARTCHAR jisx0208_2424
ENCODING 9252
SWIDTH 960 0
DWIDTH 18 0
BBX 18 18 0 -2
BITMAP
000000
000000
000000
300000
180000
180C00
180600
300300
300300
300180
330180
330F80
160180
160000
0C0000
060000
000000
000000
ENDCHAR

STARTCHAR jisx0208_2425
ENCODING 9253
SWIDTH 960 0
DWIDTH 18 0
BBX 18 18 0 -2
BITMAP
000000
000000
000000
000000
030000
01F000
018000
000000
0CF800
0F8C00
060C00
000C00
000C00
001800
001800
007000
01C000
000000
ENDCHAR

STARTCHAR jisx0208_2426
ENCODING 9254
SWIDTH 960 0
DWIDTH 18 0
BBX 18 18 0 -2
BITMAP
000000
038000
00F800
018000
000000
00FC00
1B8600
1E0300
0C0300
000300
000300
000600
000600
000C00
001800
007000
01C000
000000
ENDCHAR

STARTCHAR jisx0208_2427
ENCODING 9255
SWIDTH 960 0
DWIDTH 18 0
BBX 18 18 0 -2
BITMAP
000000
000000
000000
000000
018000
00F000
018000
000000
06F800
07B000
006000
00C000
01E000
036000
066000
0C6600
0C3E00
000000
ENDCHAR

STARTCHAR jisx0208_2428
ENCODING 9256
SWIDTH 960 0
DWIDTH 18 0
BBX 18 18 0 -2
BITMAP
000000
038000
00F800
018000
000000
0CFC00
0F9800
063000
006000
00C000
01F000
033000
063000
0C3000
183300
181F80
000000
000000
ENDCHAR

STARTCHAR jisx0208_2429
ENCODING 9257
SWIDTH 960 0
DWIDTH 18 0
BBX 18 18 0 -2
BITMAP
000000
000000
000000
000000
000000
070000
030000
02DC00
1F8600
030000
037C00
03C600
170600
1B0600
1B6600
073C00
030000
000000
ENDCHAR

STARTCHAR jisx0208_242A
ENCODING 9258
SWIDTH 960 0
DWIDTH 18 0
BBX 18 18 0 -2
BITMAP
000000
0E0000
070000
060E00
06E300
3F8580
060000
067E00
05C300
070180
2E0180
360180
360180
0E6300
063E00
060000
000000
000000
ENDCHAR

STARTCHAR jisx0208_242B
ENCODING 9259
SWIDTH 960 0
DWIDTH 18 0
BBX 18 18 0 -2
BITMAP
000000
070000
038000
030000
030000
33EE00
3E3300
163180
063180
0C30C0
0C33C0
0C36C0
186000
1B6000
31C000
318000
000000
000000
ENDCHAR

STARTCHAR jisx0208_242C
ENCODING 9260
SWIDTH 960 0
DWIDTH 18 0
BBX 18 18 0 -2
BITMAP
000000
070180
0380C0
030300
030180
33EE00
3E3300
163180
063180
0C30C0
0C33C0
0C36C0
186000
1B6000
31C000
318000
000000
000000
ENDCHAR

STARTCHAR jisx0208_242D
ENCODING 9261
SWIDTH 960 0
DWIDTH 18 0
BBX 18 18 0 -2
BITMAP
000000
01E000
006000
185E00
0FF000
003000
182F00
0FF800
001800
07EC00
0C1E00
180600
180000
180000
0E1800
03FC00
000000
000000
ENDCHAR

STARTCHAR jisx0208_242E
ENCODING 9262
SWIDTH 960 0
DWIDTH 18 0
BBX 18 18 0 -2
BITMAP
000000
01E180
0066C0
185B00
0FF000
003000
182F00
0FF800
001800
07EC00
0C1E00
180600
180000
180000
0E1800
03FC00
000000
000000
ENDCHAR

STARTCHAR jisx0208_242F
ENCODING 9263
SWIDTH 960 0
DWIDTH 18 0
BBX 18 18 0 -2
BITMAP
000000
00E000
007000
006000
00C000
018000
030000
060000
060000
030000
018000
00C000
006000
003000
003000
001800
001800
000000
ENDCHAR

STARTCHAR jisx0208_2430
ENCODING 9264
SWIDTH 960 0
DWIDTH 18 0
BBX 18 18 0 -2
BITMAP
000000
00E000
007000
006000
00C600
019B00
030C00
060000
060000
030000
018000
00C000
006000
003000
003000
001800
001800
000000
ENDCHAR

STARTCHAR jisx0208_2431
ENCODING 9265
SWIDTH 960 0
DWIDTH 18 0
BBX 18 18 0 -2
BITMAP
000000
000000
380E00
1C0700
180600
18C5C0
307F00
300600
300600
300600
360600
2C0600
2C0600
380C00
180C00
181800
007000
000000
ENDCHAR

STARTCHAR jisx0208_2432
ENCODING 9266
SWIDTH 960 0
DWIDTH 18 0
BBX 18 18 0 -2
BITMAP
000000
000180
380EC0
1C0580
1806C0
18C5C0
307F00
300600
300600
300600
360600
2C0600
2C0600
380C00
180C00
181800
007000
000000
ENDCHAR

STARTCHAR jisx0208_2433
ENCODING 9267
SWIDTH 960 0
DWIDTH 18 0
BBX 18 18 0 -2
BITMAP
000000
000000
000000
061800
03FC00
018000
030000
000000
000000
000000
000000
180000
180000
180000
0C0700
07FC00
000000
000000
ENDCHAR

STARTCHAR jisx0208_2434
ENCODING 9268
SWIDTH 960 0
DWIDTH 18 0
BBX 18 18 0 -2
BITMAP
000000
000180
0006C0
061B00
03FC00
018000
030000
000000
000000
000000
000000
180000
180000
180000
0C0700
07FC00
000000
000000
ENDCHAR

STARTCHAR jisx0208_2435
ENCODING 9269
SWIDTH 960 0
DWIDTH 18 0
BBX 18 18 0 -2
BITMAP
000000
01E000
006000
006700
383C00
0FF000
003000
001800
001800
07EC00
0C1E00
180600
180000
180000
0E1800
03FC00
000000
000000
ENDCHAR

STARTCHAR jisx0208_2436
ENCODING 9270
SWIDTH 960 0
DWIDTH 18 0
BBX 18 18 0 -2
BITMAP
000000
01E180
0060C0
006700
383D80
0FF000
003000
001800
001800
07EC00
0C1E00
180600
180000
180000
0E1800
03FC00
000000
000000
ENDCHAR

STARTCHAR jisx0208_2437
ENCODING 9271
SWIDTH 960 0
DWIDTH 18 0
BBX 18 18 0 -2
BITMAP
000000
0E0000
070000
060000
060000
060000
060000
060000
0C0000
0C0180
0C0180
0C0300
0C0300
0C0600
061C00
03F000
000000
000000
ENDCHAR

STARTCHAR jisx0208_2438
ENCODING 9272
SWIDTH 960 0
DWIDTH 18 0
BBX 18 18 0 -2
BITMAP
000000
0E0000
070C00
063600
061800
060000
060000
060000
0C0000
0C0180
0C0180
0C0300
0C0300
0C0600
061C00
03F000
000000
000000
ENDCHAR

STARTCHAR jisx0208_2439
ENCODING 9273
SWIDTH 960 0
DWIDTH 18 0
BBX 18 18 0 -2
BITMAP
000000
00E000
007000
006300
63FF80
7E6180
306000
03E000
067000
067000
067000
067000
03B000
006000
006000
01C000
070000
000000
ENDCHAR

STARTCHAR jisx0208_243A
ENCODING 9274
SWIDTH 960 0
DWIDTH 18 0
BBX 18 18 0 -2
BITMAP
000000
00E580
0072C0
006000
63FF80
7E6180
306000
03E000
067000
067000
067000
067000
03B000
006000
006000
01C000
070000
000000
ENDCHAR

STARTCHAR jisx0208_243B
ENCODING 9275
SWIDTH 960 0
DWIDTH 18 0
BBX 18 18 0 -2
BITMAP
000000
001C00
0E0E00
070C00
060C00
060D80
66FFC0
7F8CC0
360C00
066C00
063C00
061800
060000
060000
060700
03FC00
000000
000000
ENDCHAR

STARTCHAR jisx0208_243C
ENCODING 9276
SWIDTH 960 0
DWIDTH 18 0
BBX 18 18 0 -2
BITMAP
000000
001D80
0E0CC0
070B00
060D80
060C00
66FFC0
7F8CC0
360C00
066C00
063C00
061800
060000
060000
060700
03FC00
000000
000000
ENDCHAR

STARTCHAR jisx0208_243D
ENCODING 9277
SWIDTH 960 0
DWIDTH 18 0
BBX 18 18 0 -2
BITMAP
000000
000000
06FC00
079800
007000
00C000
038000
061F80
0BF180
3E6000
00C000
018000
018000
018000
00CC00
007E00
000000
000000
ENDCHAR

STARTCHAR jisx0208_243E
ENCODING 9278
SWIDTH 960 0
DWIDTH 18 0
BBX 18 18 0 -2
BITMAP
000000
000000
06FD80
0798C0
007300
00C180
038000
061F80
0BF180
3E6000
00C000
018000
018000
018000
00CC00
007E00
000000
000000
ENDCHAR

STARTCHAR jisx0208_243F
ENCODING 9279
SWIDTH 960 0
DWIDTH 18 0
BBX 18 18 0 -2
BITMAP
000000
0E0000
070000
060000
05C000
3F0000
0C6600
0C3F00
0C1800
183000
180000
180000
18C000
30C000
30C300
307F80
000000
000000
ENDCHAR

STARTCHAR jisx0208_2440
ENCODING 9280
SWIDTH 960 0
DWIDTH 18 0
BBX 18 18 0 -2
BITMAP
000000
0E0000
070180
0606C0
05C300
3F0000
0C6600
0C3F00
0C1800
183000
180000
180000
18C000
30C000
30C300
307F80
000000
000000
ENDCHAR

STARTCHAR jisx0208_2441
ENCODING 9281
SWIDTH 960 0
DWIDTH 18 0
BBX 18 18 0 -2
BITMAP
000000
070000
030000
333800
1FE000
060000
060000
0CFC00
0B8600
0E0300
1C0300
180300
000300
000600
001C00
01F000
000000
000000
ENDCHAR

STARTCHAR jisx0208_2442
ENCODING 9282
SWIDTH 960 0
DWIDTH 18 0
BBX 18 18 0 -2
BITMAP
000000
070180
0306C0
333B00
1FE000
060000
060000
0CFC00
0B8600
0E0300
1C0300
180300
000300
000600
001C00
01F000
000000
000000
ENDCHAR

STARTCHAR jisx0208_2443
ENCODING 9283
SWIDTH 960 0
DWIDTH 18 0
BBX 18 18 0 -2
BITMAP
000000
000000
000000
000000
000000
000000
000000
007C00
1BC600
1E0300
000300
000300
000300
000600
001C00
01F000
000000
000000
ENDCHAR

STARTCHAR jisx0208_2444
ENCODING 9284
SWIDTH 960 0
DWIDTH 18 0
BBX 18 18 0 -2
BITMAP
000000
000000
000000
000000
00FE00
678300
7C0180
300180
000180
000180
000180
000300
000600
001C00
01F000
000000
000000
000000
ENDCHAR

STARTCHAR jisx0208_2445
ENCODING 9285
SWIDTH 960 0
DWIDTH 18 0
BBX 18 18 0 -2
BITMAP
000000
000180
0006C0
000300
00FE00
678300
7C0180
300180
000180
000180
000180
000300
000600
001C00
01F000
000000
000000
000000
ENDCHAR

STARTCHAR jisx0208_2446
ENCODING 9286
SWIDTH 960 0
DWIDTH 18 0
BBX 18 18 0 -2
BITMAP
000000
000000
000F80
31F980
3F3000
186000
00C000
018000
018000
030000
030000
030000
030000
018000
01CC00
007E00
000000
000000
ENDCHAR

STARTCHAR jisx0208_2447
ENCODING 9287
SWIDTH 960 0
DWIDTH 18 0
BBX 18 18 0 -2
BITMAP
000000
000000
000F80
31F980
3F3000
186300
00C180
018600
018300
030000
030000
030000
030000
018000
01CC00
007E00
000000
000000
ENDCHAR

STARTCHAR jisx0208_2448
ENCODING 9288
SWIDTH 960 0
DWIDTH 18 0
BBX 18 18 0 -2
BITMAP
000000
070000
038000
030000
030000
030C00
033E00
01E000
038000
060000
0C0000
180000
180000
180000
0C0700
07FC00
000000
000000
ENDCHAR

STARTCHAR jisx0208_2449
ENCODING 9289
SWIDTH 960 0
DWIDTH 18 0
BBX 18 18 0 -2
BITMAP
000000
070180
0380C0
030300
030180
030C00
033E00
01E000
038000
060000
0C0000
180000
180000
180000
0C0700
07FC00
000000
000000
ENDCHAR

STARTCHAR jisx0208_244A
ENCODING 9290
SWIDTH 960 0
DWIDTH 18 0
BBX 18 18 0 -2
BITMAP
000000
070000
030000
030000
06E000
3F9E00
060380
0C0580
0C0C00
0C0C00
180C00
180C00
30FC00
318E00
018B00
00F980
000000
000000
ENDCHAR

STARTCHAR jisx0208_244B
ENCODING 9291
SWIDTH 960 0
DWIDTH 18 0
BBX 18 18 0 -2
BITMAP
000000
000000
380000
1CC600
187F00
181800
303000
300000
300000
300000
360000
2CC000
2CC000
38C300
187F80
180000
000000
000000
ENDCHAR

STARTCHAR jisx0208_244C
ENCODING 9292
SWIDTH 960 0
DWIDTH 18 0
BBX 18 18 0 -2
BITMAP
000000
00E000
007000
006000
386000
0DFC00
0F6700
0CC300
1CC180
1CC180
358180
358180
373D80
336300
356380
1C3EC0
000000
000000
ENDCHAR

STARTCHAR jisx0208_244D
ENCODING 9293
SWIDTH 960 0
DWIDTH 18 0
BBX 18 18 0 -2
BITMAP
000000
0E0000
060000
060000
373E00
3EE300
058180
070180
0E0180
0E0180
160180
163D80
366300
2E6380
063EC0
060000
000000
000000
ENDCHAR

STARTCHAR jisx0208_244E
ENCODING 9294
SWIDTH 960 0
DWIDTH 18 0
BBX 18 18 0 -2
BITMAP
000000
000000
000000
01F800
06CE00
0CE300
18C300
18C180
30C180
318180
318180
318180
330300
1B0300
0E0E00
003800
000000
000000
ENDCHAR

STARTCHAR jisx0208_244F
ENCODING 9295
SWIDTH 960 0
DWIDTH 18 0
BBX 18 18 0 -2
BITMAP
000000
000000
381C00
1C0C00
198B80
18FE00
300C00
300C00
300C00
300C00
360C00
2CFC00
2D8E00
398B00
198D80
18F800
000000
000000
ENDCHAR

STARTCHAR jisx0208_2450
ENCODING 9296
SWIDTH 960 0
DWIDTH 18 0
BBX 18 18 0 -2
BITMAP
000000
000580
381AC0
1C0C00
198B80
18FE00
300C00
300C00
300C00
300C00
360C00
2CFC00
2D8E00
398B00
198D80
18F800
000000
000000
ENDCHAR

STARTCHAR jisx0208_2451
ENCODING 9297
SWIDTH 960 0
DWIDTH 18 0
BBX 18 18 0 -2
BITMAP
000000
000380
381EC0
1C0EC0
198B80
18FE00
300C00
300C00
300C00
300C00
360C00
2CFC00
2D8E00
398B00
198D80
18F800
000000
000000
ENDCHAR

STARTCHAR jisx0208_2452
ENCODING 9298
SWIDTH 960 0
DWIDTH 18 0
BBX 18 18 0 -2
BITMAP
000000
000000
000000
31CC00
1F0C00
060E00
0C0B00
180D80
180CC0
300C00
300C00
300C00
301800
301800
187000
0FC000
000000
000000
ENDCHAR

STARTCHAR jisx0208_2453
ENCODING 9299
SWIDTH 960 0
DWIDTH 18 0
BBX 18 18 0 -2
BITMAP
000000
000180
0000C0
31CB00
1F0D80
060E00
0C0B00
180D80
180CC0
300C00
300C00
300C00
301800
301800
187000
0FC000
000000
000000
ENDCHAR

STARTCHAR jisx0208_2454
ENCODING 9300
SWIDTH 960 0
DWIDTH 18 0
BBX 18 18 0 -2
BITMAP
000000
000380
0006C0
31CEC0
1F0B80
060E00
0C0B00
180D80
180CC0
300C00
300C00
300C00
301800
301800
187000
0FC000
000000
000000
ENDCHAR

STARTCHAR jisx0208_2455
ENCODING 9301
SWIDTH 960 0
DWIDTH 18 0
BBX 18 18 0 -2
BITMAP
000000
030000
018000
00F800
006000
00C000
018000
018000
00C000
006000
002E00
063300
6C3180
5633C0
7336C0
01E000
000000
000000
ENDCHAR

STARTCHAR jisx0208_2456
ENCODING 9302
SWIDTH 960 0
DWIDTH 18 0
BBX 18 18 0 -2
BITMAP
000000
030000
018180
00F8C0
006300
00C180
018000
018000
00C000
006000
002E00
063300
6C3180
5633C0
7336C0
01E000
000000
000000
ENDCHAR

STARTCHAR jisx0208_2457
ENCODING 9303
SWIDTH 960 0
DWIDTH 18 0
BBX 18 18 0 -2
BITMAP
000000
030000
018380
00F6C0
0066C0
00C380
018000
018000
00C000
006000
002E00
063300
6C3180
5633C0
7336C0
01E000
000000
000000
ENDCHAR

STARTCHAR jisx0208_2458
ENCODING 9304
SWIDTH 960 0
DWIDTH 18 0
BBX 18 18 0 -2
BITMAP
000000
000000
000000
000000
000000
038000
06C000
6C6000
783000
301C00
000600
000380
0000C0
000000
000000
000000
000000
000000
ENDCHAR

STARTCHAR jisx0208_2459
ENCODING 9305
SWIDTH 960 0
DWIDTH 18 0
BBX 18 18 0 -2
BITMAP
000000
000000
000000
000300
000D80
038600
06C000
6C6000
783000
301C00
000600
000380
0000C0
000000
000000
000000
000000
000000
ENDCHAR

STARTCHAR jisx0208_245A
ENCODING 9306
SWIDTH 960 0
DWIDTH 18 0
BBX 18 18 0 -2
BITMAP
000000
000000
000700
000D80
000D80
038700
06C000
6C6000
783000
301C00
000600
000380
0000C0
000000
000000
000000
000000
000000
ENDCHAR

STARTCHAR jisx0208_245B
ENCODING 9307
SWIDTH 960 0
DWIDTH 18 0
BBX 18 18 0 -2
BITMAP
000000
000000
398700
1CFC00
180C00
180E00
318B80
30FE00
300C00
300C00
360C00
2CFC00
2D8E00
398B00
198D80
18F800
000000
000000
ENDCHAR

STARTCHAR jisx0208_245C
ENCODING 9308
SWIDTH 960 0
DWIDTH 18 0
BBX 18 18 0 -2
BITMAP
000000
000180
3986C0
1CFB00
180C00
180E00
318B80
30FE00
300C00
300C00
360C00
2CFC00
2D8E00
398B00
198D80
18F800
000000
000000
ENDCHAR

STARTCHAR jisx0208_245D
ENCODING 9309
SWIDTH 960 0
DWIDTH 18 0
BBX 18 18 0 -2
BITMAP
000000
000380
3986C0
1CFEC0
180B80
180E00
318B80
30FE00
300C00
300C00
360C00
2CFC00
2D8E00
398B00
198D80
18F800
000000
000000
ENDCHAR

STARTCHAR jisx0208_245E
ENCODING 9310
SWIDTH 960 0
DWIDTH 18 0
BBX 18 18 0 -2
BITMAP
000000
00E000
006000
386700
0FFC00
006000
006000
1C6700
07FC00
006000
006000
0FE000
187800
186E00
0C6300
07C000
000000
000000
ENDCHAR

STARTCHAR jisx0208_245F
ENCODING 9311
SWIDTH 960 0
DWIDTH 18 0
BBX 18 18 0 -2
BITMAP
000000
000000
06F000
07B000
003000
006000
006000
00C700
00C380
0FFB00
198F00
330380
3306C0
360600
1C0C00
001800
007000
000000
ENDCHAR

STARTCHAR jisx0208_2460
ENCODING 9312
SWIDTH 960 0
DWIDTH 18 0
BBX 18 18 0 -2
BITMAP
000000
070000
038000
030000
32E000
1F8700
060180
0F03C0
1B06C0
330000
360600
1C0600
0C0600
0C0600
0C0700
07FE00
000000
000000
ENDCHAR

STARTCHAR jisx0208_2461
ENCODING 9313
SWIDTH 960 0
DWIDTH 18 0
BBX 18 18 0 -2
BITMAP
000000
007000
003800
003000
383000
0DFC00
0F6700
0C6300
1CC180
16C180
358180
338180
330300
358300
1C0E00
007800
000000
000000
ENDCHAR

STARTCHAR jisx0208_2462
ENCODING 9314
SWIDTH 960 0
DWIDTH 18 0
BBX 18 18 0 -2
BITMAP
000000
038000
01C000
198000
0D8000
07E000
0B0000
031800
1B0C00
0FE600
060300
060300
060300
060300
030600
01FC00
000000
000000
ENDCHAR

STARTCHAR jisx0208_2463
ENCODING 9315
SWIDTH 960 0
DWIDTH 18 0
BBX 18 18 0 -2
BITMAP
000000
000000
000000
000000
000000
00F000
071800
067E00
05C300
170300
1B0300
033300
019E00
018000
018000
00C000
00C000
000000
ENDCHAR

STARTCHAR jisx0208_2464
ENCODING 9316
SWIDTH 960 0
DWIDTH 18 0
BBX 18 18 0 -2
BITMAP
000000
01E000
003000
0EF800
0C7E00
0DC300
6F0180
760180
360180
066300
033E00
030000
030000
018000
018000
018000
018000
000000
ENDCHAR

STARTCHAR jisx0208_2465
ENCODING 9317
SWIDTH 960 0
DWIDTH 18 0
BBX 18 18 0 -2
BITMAP
000000
000000
000000
000000
000000
00E000
0E3000
06FC00
05B600
0B3300
0B3300
0E3300
0DB300
0EB600
067C00
066000
01C000
000000
ENDCHAR

STARTCHAR jisx0208_2466
ENCODING 9318
SWIDTH 960 0
DWIDTH 18 0
BBX 18 18 0 -2
BITMAP
000000
00E000
01B000
383000
1CFC00
19B700
1B3300
363180
363180
2C3180
2C3180
2B3180
3B3300
19B700
18FC00
006000
03C000
000000
ENDCHAR

STARTCHAR jisx0208_2467
ENCODING 9319
SWIDTH 960 0
DWIDTH 18 0
BBX 18 18 0 -2
BITMAP
000000
000000
000000
000000
000000
01C000
00E000
00C000
00CC00
00FE00
00C000
00C000
00C000
0FC000
18F000
18DC00
0F8600
000000
ENDCHAR

STARTCHAR jisx0208_2468
ENCODING 9320
SWIDTH 960 0
DWIDTH 18 0
BBX 18 18 0 -2
BITMAP
000000
01C000
00E000
00C000
00C000
00CC00
00FE00
00C000
00C000
00C000
00C000
1FC000
30F800
30CE00
18C300
0F8000
000000
000000
ENDCHAR

STARTCHAR jisx0208_2469
ENCODING 9321
SWIDTH 960 0
DWIDTH 18 0
BBX 18 18 0 -2
BITMAP
000000
070000
01F000
070000
0C0000
0E0000
0C0000
0CFC00
0B8600
160300
1C0300
180300
000300
000600
001C00
01F000
000000
000000
ENDCHAR

STARTCHAR jisx0208_246A
ENCODING 9322
SWIDTH 960 0
DWIDTH 18 0
BBX 18 18 0 -2
BITMAP
000000
0E0000
077800
06CC00
058600
0D8600
0B0600
0B0600
0B0600
0E0600
060600
060600
000C00
000C00
001800
007000
01C000
000000
ENDCHAR

STARTCHAR jisx0208_246B
ENCODING 9323
SWIDTH 960 0
DWIDTH 18 0
BBX 18 18 0 -2
BITMAP
000000
000000
0CF800
0FB000
006000
00C000
018000
03FC00
070600
0C0300
180300
300300
03C300
066600
062E00
03F800
000000
000000
ENDCHAR

STARTCHAR jisx0208_246C
ENCODING 9324
SWIDTH 960 0
DWIDTH 18 0
BBX 18 18 0 -2
BITMAP
000000
0E0000
060000
060000
373E00
3EE300
058300
070300
0E0300
0E0300
160600
160600
360600
2E06C0
060780
060000
000000
000000
ENDCHAR

STARTCHAR jisx0208_246D
ENCODING 9325
SWIDTH 960 0
DWIDTH 18 0
BBX 18 18 0 -2
BITMAP
000000
000000
0CF800
0FB000
006000
00C000
018000
03FC00
070600
0C0300
180300
300300
000300
000600
001C00
03F000
000000
000000
ENDCHAR

STARTCHAR jisx0208_246E
ENCODING 9326
SWIDTH 960 0
DWIDTH 18 0
BBX 18 18 0 -2
BITMAP
000000
000000
000000
000000
000000
070000
030000
030000
0B7C00
0EC600
038300
070300
070300
0B0600
0F0E00
033800
000000
000000
ENDCHAR

STARTCHAR jisx0208_246F
ENCODING 9327
SWIDTH 960 0
DWIDTH 18 0
BBX 18 18 0 -2
BITMAP
000000
0E0000
060000
060000
377E00
3DC300
070180
060180
0E0180
0E0180
160180
160180
360300
2E0E00
067800
060000
000000
000000
ENDCHAR

STARTCHAR jisx0208_2470
ENCODING 9328
SWIDTH 960 0
DWIDTH 18 0
BBX 18 18 0 -2
BITMAP
000000
000000
06F000
07B000
006000
006000
01FC00
06C700
0CC300
198180
198180
330180
333980
366B00
1C6700
003C00
000000
000000
ENDCHAR

STARTCHAR jisx0208_2471
ENCODING 9329
SWIDTH 960 0
DWIDTH 18 0
BBX 18 18 0 -2
BITMAP
000000
000000
06F800
07B000
006000
01F000
031800
060C00
0DCC00
035800
01F000
038000
0E1E00
1B3300
316380
30C580
000000
000000
ENDCHAR

STARTCHAR jisx0208_2472
ENCODING 9330
SWIDTH 960 0
DWIDTH 18 0
BBX 18 18 0 -2
BITMAP
000000
038000
018000
199C00
0FF000
030000
060300
05E380
0F2E00
1C3800
38F000
31B000
033000
030000
030600
01FF00
000000
000000
ENDCHAR

STARTCHAR jisx0208_2473
ENCODING 9331
SWIDTH 960 0
DWIDTH 18 0
BBX 18 18 0 -2
BITMAP
000000
01C000
00E000
00C000
018000
018000
030000
030000
060000
07C000
0E6180
0C6180
186180
186300
306300
303E00
000000
000000
ENDCHAR

STARTCHAR jisx0208_2521
ENCODING 9505
SWIDTH 960 0
DWIDTH 18 0
BBX 18 18 0 -2
BITMAP
000000
000000
000000
000000
000000
000000
0C0600
0FFF00
060600
00EC00
007800
006000
006000
00C000
018000
030000
000000
000000
ENDCHAR

STARTCHAR jisx0208_2522
ENCODING 9506
SWIDTH 960 0
DWIDTH 18 0
BBX 18 18 0 -2
BITMAP
000000
000000
300300
3FFF80
180300
000600
01DC00
00F000
00C000
00C000
00C000
018000
018000
030000
060000
0C0000
000000
000000
ENDCHAR

STARTCHAR jisx0208_2523
ENCODING 9507
SWIDTH 960 0
DWIDTH 18 0
BBX 18 18 0 -2
BITMAP
000000
000000
000000
000000
000000
003800
001C00
003000
006000
00F000
016000
076000
1C6000
006000
006000
00E000
006000
000000
ENDCHAR

STARTCHAR jisx0208_2524
ENCODING 9508
SWIDTH 960 0
DWIDTH 18 0
BBX 18 18 0 -2
BITMAP
000000
001C00
000E00
000C00
001800
003000
006000
00F000
016000
076000
3C6000
006000
006000
006000
006000
00E000
006000
000000
ENDCHAR

STARTCHAR jisx0208_2525
ENCODING 9509
SWIDTH 960 0
DWIDTH 18 0
BBX 18 18 0 -2
BITMAP
000000
000000
000000
000000
000000
00E000
006000
0E6600
07FF00
060600
060600
060600
000C00
000C00
001800
003000
00E000
000000
ENDCHAR

STARTCHAR jisx0208_2526
ENCODING 9510
SWIDTH 960 0
DWIDTH 18 0
BBX 18 18 0 -2
BITMAP
000000
01C000
00E000
00C000
38C600
1FFF00
180600
180600
180600
180600
000C00
000C00
001800
003000
00E000
038000
000000
000000
ENDCHAR

STARTCHAR jisx0208_2527
ENCODING 9511
SWIDTH 960 0
DWIDTH 18 0
BBX 18 18 0 -2
BITMAP
000000
000000
000000
000000
000000
000000
000000
0C1800
0FFC00
06C000
00C000
00C000
00C000
18CC00
1FFE00
0C0600
000000
000000
ENDCHAR

STARTCHAR jisx0208_2528
ENCODING 9512
SWIDTH 960 0
DWIDTH 18 0
BBX 18 18 0 -2
BITMAP
000000
000000
000000
000000
180600
1FFF00
0CC300
00C000
00C000
00C000
00C000
00C000
30C300
3FFF80
180180
000000
000000
000000
ENDCHAR

STARTCHAR jisx0208_2529
ENCODING 9513
SWIDTH 960 0
DWIDTH 18 0
BBX 18 18 0 -2
BITMAP
000000
000000
000000
000000
000000
007000
003000
0C2C00
0FFE00
067000
00B000
01B000
073000
1C3000
01B000
007000
006000
000000
ENDCHAR

STARTCHAR jisx0208_252A
ENCODING 9514
SWIDTH 960 0
DWIDTH 18 0
BBX 18 18 0 -2
BITMAP
000000
007000
003800
003000
303300
3FFF80
187180
00B000
01B000
033000
063000
1C3000
703000
003000
01F000
006000
000000
000000
ENDCHAR

STARTCHAR jisx0208_252B
ENCODING 9515
SWIDTH 960 0
DWIDTH 18 0
BBX 18 18 0 -2
BITMAP
000000
038000
01C000
018000
318600
3FFF00
1B0600
030600
030600
060600
060C00
0C0C00
0C0C00
18D800
307800
003000
000000
000000
ENDCHAR

STARTCHAR jisx0208_252C
ENCODING 9516
SWIDTH 960 0
DWIDTH 18 0
BBX 18 18 0 -2
BITMAP
000000
038180
01C6C0
018300
318600
3FFF00
1B0600
030600
030600
060600
060C00
0C0C00
0C0C00
18D800
307800
003000
000000
000000
ENDCHAR

STARTCHAR jisx0208_252D
ENCODING 9517
SWIDTH 960 0
DWIDTH 18 0
BBX 18 18 0 -2
BITMAP
000000
01C000
00E000
00C000
00C600
30FF00
3FC300
18C000
00C300
30FF80
3FE180
186000
006000
006000
006000
007000
006000
000000
ENDCHAR

STARTCHAR jisx0208_252E
ENCODING 9518
SWIDTH 960 0
DWIDTH 18 0
BBX 18 18 0 -2
BITMAP
000000
01C180
00E6C0
00C300
00C600
30FF00
3FC300
18C000
00C300
30FF80
3FE180
186000
006000
006000
006000
007000
006000
000000
ENDCHAR

STARTCHAR jisx0208_252F
ENCODING 9519
SWIDTH 960 0
DWIDTH 18 0
BBX 18 18 0 -2
BITMAP
000000
038000
01C000
018600
03FF00
030600
060600
0C0C00
180C00
001800
001800
003000
006000
00C000
038000
0E0000
000000
000000
ENDCHAR

STARTCHAR jisx0208_2530
ENCODING 9520
SWIDTH 960 0
DWIDTH 18 0
BBX 18 18 0 -2
BITMAP
000000
038580
01C2C0
018600
03FF00
030600
060600
0C0C00
180C00
001800
001800
003000
006000
00C000
038000
0E0000
000000
000000
ENDCHAR

STARTCHAR jisx0208_2531
ENCODING 9521
SWIDTH 960 0
DWIDTH 18 0
BBX 18 18 0 -2
BITMAP
000000
070000
038000
030000
060300
07FF80
0C1800
181800
301800
001800
003000
003000
006000
00C000
038000
0E0000
000000
000000
ENDCHAR

STARTCHAR jisx0208_2532
ENCODING 9522
SWIDTH 960 0
DWIDTH 18 0
BBX 18 18 0 -2
BITMAP
000000
070580
0382C0
030000
060300
07FF80
0C1800
181800
301800
001800
003000
003000
006000
00C000
038000
0E0000
000000
000000
ENDCHAR

STARTCHAR jisx0208_2533
ENCODING 9523
SWIDTH 960 0
DWIDTH 18 0
BBX 18 18 0 -2
BITMAP
000000
000000
000000
000000
180600
1FFF00
0C0600
000600
000600
000C00
000C00
000C00
180C00
1FFE00
0C0000
000000
000000
000000
ENDCHAR

STARTCHAR jisx0208_2534
ENCODING 9524
SWIDTH 960 0
DWIDTH 18 0
BBX 18 18 0 -2
BITMAP
000000
000580
0002C0
000000
180600
1FFF00
0C0600
000600
000600
000C00
000C00
000C00
180C00
1FFE00
0C0000
000000
000000
000000
ENDCHAR

STARTCHAR jisx0208_2535
ENCODING 9525
SWIDTH 960 0
DWIDTH 18 0
BBX 18 18 0 -2
BITMAP
000000
003800
0E1C00
071800
061800
661980
7FFFC0
3618C0
061800
061800
061800
001800
003000
003000
00E000
038000
000000
000000
ENDCHAR

STARTCHAR jisx0208_2536
ENCODING 9526
SWIDTH 960 0
DWIDTH 18 0
BBX 18 18 0 -2
BITMAP
000000
003980
0E16C0
071B00
061800
661980
7FFFC0
3618C0
061800
061800
061800
001800
003000
003000
00E000
038000
000000
000000
ENDCHAR

STARTCHAR jisx0208_2537
ENCODING 9527
SWIDTH 960 0
DWIDTH 18 0
BBX 18 18 0 -2
BITMAP
000000
000000
000000
0E0000
030000
000000
000180
1C0180
060300
000600
000C00
001800
003000
0CE000
0F8000
060000
000000
000000
ENDCHAR

STARTCHAR jisx0208_2538
ENCODING 9528
SWIDTH 960 0
DWIDTH 18 0
BBX 18 18 0 -2
BITMAP
000000
000300
000D80
0E0600
030000
000000
000180
1C0180
060300
000600
000C00
001800
003000
0CE000
0F8000
060000
000000
000000
ENDCHAR

STARTCHAR jisx0208_2539
ENCODING 9529
SWIDTH 960 0
DWIDTH 18 0
BBX 18 18 0 -2
BITMAP
000000
000000
000000
0C0C00
0FFE00
060C00
000C00
001800
001800
003000
005800
00CC00
018600
070300
3C0300
000000
000000
000000
ENDCHAR

STARTCHAR jisx0208_253A
ENCODING 9530
SWIDTH 960 0
DWIDTH 18 0
BBX 18 18 0 -2
BITMAP
000000
000580
0002C0
0C0C00
0FFE00
060C00
000C00
001800
001800
003000
005800
00CC00
018600
070300
3C0300
000000
000000
000000
ENDCHAR

STARTCHAR jisx0208_253B
ENCODING 9531
SWIDTH 960 0
DWIDTH 18 0
BBX 18 18 0 -2
BITMAP
000000
000000
0E0000
070000
060000
060300
063F80
67E300
7E0600
360C00
061800
060000
060000
060000
060700
03FC00
000000
000000
ENDCHAR

STARTCHAR jisx0208_253C
ENCODING 9532
SWIDTH 960 0
DWIDTH 18 0
BBX 18 18 0 -2
BITMAP
000000
000180
0E06C0
070300
060000
060300
063F80
67E300
7E0600
360C00
061800
060000
060000
060000
060700
03FC00
000000
000000
ENDCHAR

STARTCHAR jisx0208_253D
ENCODING 9533
SWIDTH 960 0
DWIDTH 18 0
BBX 18 18 0 -2
BITMAP
000000
000000
000000
180700
0C0380
060300
060300
000600
000600
000C00
000C00
001800
003000
006000
01C000
070000
000000
000000
ENDCHAR

STARTCHAR jisx0208_253E
ENCODING 9534
SWIDTH 960 0
DWIDTH 18 0
BBX 18 18 0 -2
BITMAP
000000
000580
0002C0
180000
0C0700
060380
060300
000600
000600
000C00
000C00
001800
003000
006000
01C000
070000
000000
000000
ENDCHAR

STARTCHAR jisx0208_253F
ENCODING 9535
SWIDTH 960 0
DWIDTH 18 0
BBX 18 18 0 -2
BITMAP
000000
038000
01C000
018600
03FF00
030600
060600
0C0C00
19CC00
007800
001800
002C00
006600
00C000
038000
0E0000
000000
000000
ENDCHAR

STARTCHAR jisx0208_2540
ENCODING 9536
SWIDTH 960 0
DWIDTH 18 0
BBX 18 18 0 -2
BITMAP
000000
038580
01C2C0
018600
03FF00
030600
060600
0C0C00
19CC00
007800
001800
002C00
006600
00C000
038000
0E0000
000000
000000
ENDCHAR

STARTCHAR jisx0208_2541
ENCODING 9537
SWIDTH 960 0
DWIDTH 18 0
BBX 18 18 0 -2
BITMAP
000000
000C00
007E00
0FE000
006000
006000
306180
3FFFC0
1860C0
006000
006000
006000
00C000
00C000
018000
070000
000000
000000
ENDCHAR

STARTCHAR jisx0208_2542
ENCODING 9538
SWIDTH 960 0
DWIDTH 18 0
BBX 18 18 0 -2
BITMAP
000000
000D80
007CC0
0FE300
006180
006000
306180
3FFFC0
1860C0
006000
006000
006000
00C000
00C000
018000
070000
000000
000000
ENDCHAR

STARTCHAR jisx0208_2543
ENCODING 9539
SWIDTH 960 0
DWIDTH 18 0
BBX 18 18 0 -2
BITMAP
000000
000000
000000
000000
000000
000000
018000
0CCE00
06C700
060600
000600
000C00
000C00
001800
003000
00E000
038000
000000
ENDCHAR

STARTCHAR jisx0208_2544
ENCODING 9540
SWIDTH 960 0
DWIDTH 18 0
BBX 18 18 0 -2
BITMAP
000000
000000
000000
030700
318380
198300
180300
000600
000600
000C00
000C00
001800
003000
006000
01C000
070000
000000
000000
ENDCHAR

STARTCHAR jisx0208_2545
ENCODING 9541
SWIDTH 960 0
DWIDTH 18 0
BBX 18 18 0 -2
BITMAP
000000
000580
0002C0
030000
318700
198380
180300
000600
000600
000C00
000C00
001800
003000
006000
01C000
070000
000000
000000
ENDCHAR

STARTCHAR jisx0208_2546
ENCODING 9542
SWIDTH 960 0
DWIDTH 18 0
BBX 18 18 0 -2
BITMAP
000000
000000
0C0C00
0FFE00
060000
000000
300300
3FFF80
186180
006000
006000
006000
00C000
00C000
018000
070000
000000
000000
ENDCHAR

STARTCHAR jisx0208_2547
ENCODING 9543
SWIDTH 960 0
DWIDTH 18 0
BBX 18 18 0 -2
BITMAP
000000
000180
0C06C0
0FFB00
060000
000000
300300
3FFF80
186180
006000
006000
006000
00C000
00C000
018000
070000
000000
000000
ENDCHAR

STARTCHAR jisx0208_2548
ENCODING 9544
SWIDTH 960 0
DWIDTH 18 0
BBX 18 18 0 -2
BITMAP
000000
038000
01C000
018000
018000
018000
018000
01E000
01B800
018C00
018000
018000
018000
018000
018000
038000
018000
000000
ENDCHAR

STARTCHAR jisx0208_2549
ENCODING 9545
SWIDTH 960 0
DWIDTH 18 0
BBX 18 18 0 -2
BITMAP
000000
038000
01C300
018D80
018600
018000
018000
01E000
01B800
018C00
018000
018000
018000
018000
018000
038000
018000
000000
ENDCHAR

STARTCHAR jisx0208_254A
ENCODING 9546
SWIDTH 960 0
DWIDTH 18 0
BBX 18 18 0 -2
BITMAP
000000
00E000
007000
006000
006000
306180
3FFFC0
1860C0
006000
006000
006000
00C000
00C000
018000
030000
0E0000
000000
000000
ENDCHAR

STARTCHAR jisx0208_254B
ENCODING 9547
SWIDTH 960 0
DWIDTH 18 0
BBX 18 18 0 -2
BITMAP
000000
000000
000000
000000
060C00
03F800
000000
000000
000000
000000
000000
000000
300300
3FFF80
180180
000000
000000
000000
ENDCHAR

STARTCHAR jisx0208_254C
ENCODING 9548
SWIDTH 960 0
DWIDTH 18 0
BBX 18 18 0 -2
BITMAP
000000
000000
000000
0C0600
0FFF00
060600
000600
000C00
078C00
00D800
003000
005800
00CC00
018600
070000
3C0000
000000
000000
ENDCHAR

STARTCHAR jisx0208_254D
ENCODING 9549
SWIDTH 960 0
DWIDTH 18 0
BBX 18 18 0 -2
BITMAP
000000
01C000
006000
003000
0C0C00
0FFE00
061800
003000
006000
00EE00
037300
0E6180
386180
006000
006000
00E000
006000
000000
ENDCHAR

STARTCHAR jisx0208_254E
ENCODING 9550
SWIDTH 960 0
DWIDTH 18 0
BBX 18 18 0 -2
BITMAP
000000
000000
000000
000E00
000700
000600
000C00
001800
001800
003000
006000
00C000
018000
070000
1C0000
000000
000000
000000
ENDCHAR

STARTCHAR jisx0208_254F
ENCODING 9551
SWIDTH 960 0
DWIDTH 18 0
BBX 18 18 0 -2
BITMAP
000000
000000
000000
000000
0E1800
070C00
060600
060600
0C0300
0C0300
180180
180180
300180
600180
000000
000000
000000
000000
ENDCHAR

STARTCHAR jisx0208_2550
ENCODING 9552
SWIDTH 960 0
DWIDTH 18 0
BBX 18 18 0 -2
BITMAP
000000
000000
000180
0006C0
0E1B00
070C00
060600
060600
0C0300
0C0300
180180
180180
300180
600180
000000
000000
000000
000000
ENDCHAR

STARTCHAR jisx0208_2551
ENCODING 9553
SWIDTH 960 0
DWIDTH 18 0
BBX 18 18 0 -2
BITMAP
000000
000380
0006C0
0006C0
0E1B80
070C00
060600
060600
0C0300
0C0300
180180
180180
300180
600180
000000
000000
000000
000000
ENDCHAR

STARTCHAR jisx0208_2552
ENCODING 9554
SWIDTH 960 0
DWIDTH 18 0
BBX 18 18 0 -2
BITMAP
000000
000000
1C0000
0E0000
0C0E00
0C0700
0C7C00
0FC000
0C0000
0C0000
0C0000
0C0000
0C0000
0C0000
0C0700
07FC00
000000
000000
ENDCHAR

STARTCHAR jisx0208_2553
ENCODING 9555
SWIDTH 960 0
DWIDTH 18 0
BBX 18 18 0 -2
BITMAP
000000
000180
1C06C0
0E0300
0C0E00
0C0700
0C7C00
0FC000
0C0000
0C0000
0C0000
0C0000
0C0000
0C0000
0C0700
07FC00
000000
000000
ENDCHAR

STARTCHAR jisx0208_2554
ENCODING 9556
SWIDTH 960 0
DWIDTH 18 0
BBX 18 18 0 -2
BITMAP
000000
000380
1C06C0
0E06C0
0C1B80
0C0E00
0C7C00
0FC000
0C0000
0C0000
0C0000
0C0000
0C0000
0C0000
0C0700
07FC00
000000
000000
ENDCHAR

STARTCHAR jisx0208_2555
ENCODING 9557
SWIDTH 960 0
DWIDTH 18 0
BBX 18 18 0 -2
BITMAP
000000
000000
000000
180300
1FFF80
0C0300
000300
000600
000600
000C00
000C00
001800
003000
006000
01C000
070000
000000
000000
ENDCHAR

STARTCHAR jisx0208_2556
ENCODING 9558
SWIDTH 960 0
DWIDTH 18 0
BBX 18 18 0 -2
BITMAP
000000
000580
0002C0
180300
1FFF80
0C0300
000300
000600
000600
000C00
000C00
001800
003000
006000
01C000
070000
000000
000000
ENDCHAR

STARTCHAR jisx0208_2557
ENCODING 9559
SWIDTH 960 0
DWIDTH 18 0
BBX 18 18 0 -2
BITMAP
000000
000380
0006C0
1806C0
1FFF80
0C0300
000300
000600
000600
000C00
000C00
001800
003000
006000
01C000
070000
000000
000000
ENDCHAR

STARTCHAR jisx0208_2558
ENCODING 9560
SWIDTH 960 0
DWIDTH 18 0
BBX 18 18 0 -2
BITMAP
000000
000000
000000
000000
038000
06C000
0C6000
583000
781800
300C00
000600
000300
000180
0000C0
000000
000000
000000
000000
ENDCHAR

STARTCHAR jisx0208_2559
ENCODING 9561
SWIDTH 960 0
DWIDTH 18 0
BBX 18 18 0 -2
BITMAP
000000
000000
000000
000300
038D80
06C600
0C6000
583000
781800
300C00
000600
000300
000180
0000C0
000000
000000
000000
000000
ENDCHAR

STARTCHAR jisx0208_255A
ENCODING 9562
SWIDTH 960 0
DWIDTH 18 0
BBX 18 18 0 -2
BITMAP
000000
000000
000700
000D80
038D80
06C700
0C6000
583000
781800
300C00
000600
000300
000180
0000C0
000000
000000
000000
000000
ENDCHAR

STARTCHAR jisx0208_255B
ENCODING 9563
SWIDTH 960 0
DWIDTH 18 0
BBX 18 18 0 -2
BITMAP
000000
01C000
00E000
00C000
30C600
3FFF00
18C300
00C000
0CCC00
0CC600
0CC300
18C300
30C300
00C000
06C000
01C000
018000
000000
ENDCHAR

STARTCHAR jisx0208_255C
ENCODING 9564
SWIDTH 960 0
DWIDTH 18 0
BBX 18 18 0 -2
BITMAP
000000
01C180
00E6C0
00C300
30C600
3FFF00
18C300
00C000
0CCC00
0CC600
0CC300
18C300
30C300
00C000
06C000
01C000
018000
000000
ENDCHAR

STARTCHAR jisx0208_255D
ENCODING 9565
SWIDTH 960 0
DWIDTH 18 0
BBX 18 18 0 -2
BITMAP
000000
01C380
00E6C0
00C6C0
30C780
3FFF00
18C300
00C000
0CCC00
0CC600
0CC300
18C300
30C300
00C000
06C000
01C000
018000
000000
ENDCHAR

STARTCHAR jisx0208_255E
ENCODING 9566
SWIDTH 960 0
DWIDTH 18 0
BBX 18 18 0 -2
BITMAP
000000
000000
000000
300300
3FFF80
180300
000600
000600
000C00
061800
033000
016000
00C000
006000
006000
006000
000000
000000
ENDCHAR

STARTCHAR jisx0208_255F
ENCODING 9567
SWIDTH 960 0
DWIDTH 18 0
BBX 18 18 0 -2
BITMAP
000000
000000
07C000
007800
000C00
000000
000000
07C000
007800
000C00
000000
000000
1F8000
00F000
001C00
000600
000000
000000
ENDCHAR

STARTCHAR jisx0208_2560
ENCODING 9568
SWIDTH 960 0
DWIDTH 18 0
BBX 18 18 0 -2
BITMAP
000000
000000
01C000
00E000
00C000
00C000
018000
018000
018000
030000
030C00
060600
060300
2C7F00
3FC180
180180
000000
000000
ENDCHAR

STARTCHAR jisx0208_2561
ENCODING 9569
SWIDTH 960 0
DWIDTH 18 0
BBX 18 18 0 -2
BITMAP
000000
000000
001C00
000E00
000C00
000C00
001800
039800
00F000
003000
005800
00CC00
018000
030000
0E0000
380000
000000
000000
ENDCHAR

STARTCHAR jisx0208_2562
ENCODING 9570
SWIDTH 960 0
DWIDTH 18 0
BBX 18 18 0 -2
BITMAP
000000
000000
180C00
1FFE00
0D8600
018000
018000
618300
7FFF80
318180
018000
018000
018000
018000
018600
00FF00
000000
000000
ENDCHAR

STARTCHAR jisx0208_2563
ENCODING 9571
SWIDTH 960 0
DWIDTH 18 0
BBX 18 18 0 -2
BITMAP
000000
000000
000000
000000
000000
038000
01C000
018600
19FF00
1F8600
0D8C00
019800
00C000
00C000
00C000
00C000
00C000
000000
ENDCHAR

STARTCHAR jisx0208_2564
ENCODING 9572
SWIDTH 960 0
DWIDTH 18 0
BBX 18 18 0 -2
BITMAP
000000
038000
01C000
018000
018180
61FFC0
7F8180
318300
018600
018C00
00D800
00C000
00C000
00C000
00C000
00E000
00C000
000000
ENDCHAR

STARTCHAR jisx0208_2565
ENCODING 9573
SWIDTH 960 0
DWIDTH 18 0
BBX 18 18 0 -2
BITMAP
000000
000000
000000
000000
000000
000000
000000
0C1800
0FFC00
061800
001800
003000
003000
303600
3FFF00
180300
000000
000000
ENDCHAR

STARTCHAR jisx0208_2566
ENCODING 9574
SWIDTH 960 0
DWIDTH 18 0
BBX 18 18 0 -2
BITMAP
000000
000000
000000
000000
0C0C00
0FFE00
060C00
000C00
000C00
001800
001800
001800
301B00
3FFF80
180180
000000
000000
000000
ENDCHAR

STARTCHAR jisx0208_2567
ENCODING 9575
SWIDTH 960 0
DWIDTH 18 0
BBX 18 18 0 -2
BITMAP
000000
000000
000000
000000
000000
000000
0C0C00
0FFE00
060C00
000C00
0C0C00
0FF800
061800
001800
0C1800
0FFC00
060000
000000
ENDCHAR

STARTCHAR jisx0208_2568
ENCODING 9576
SWIDTH 960 0
DWIDTH 18 0
BBX 18 18 0 -2
BITMAP
000000
000000
000000
180600
1FFF00
0C0600
000600
000600
0C0600
0FFC00
060C00
000C00
000C00
180C00
1FFE00
0C0000
000000
000000
ENDCHAR

STARTCHAR jisx0208_2569
ENCODING 9577
SWIDTH 960 0
DWIDTH 18 0
BBX 18 18 0 -2
BITMAP
000000
000000
060C00
03FE00
000000
000000
180300
1FFF80
0C0300
000300
000600
000600
000C00
001800
003000
00E000
038000
000000
ENDCHAR

STARTCHAR jisx0208_256A
ENCODING 9578
SWIDTH 960 0
DWIDTH 18 0
BBX 18 18 0 -2
BITMAP
000000
001C00
0E0E00
070C00
060C00
060C00
060C00
060C00
060C00
060C00
060C00
000C00
001800
001800
007000
01C000
000000
000000
ENDCHAR

STARTCHAR jisx0208_256B
ENCODING 9579
SWIDTH 960 0
DWIDTH 18 0
BBX 18 18 0 -2
BITMAP
000000
000000
00E000
0E7000
076000
066000
066000
066000
066180
066180
0C6300
0C6600
0C6C00
18F800
306000
600000
000000
000000
ENDCHAR

STARTCHAR jisx0208_256C
ENCODING 9580
SWIDTH 960 0
DWIDTH 18 0
BBX 18 18 0 -2
BITMAP
000000
000000
0E0000
070000
060000
060000
060000
060000
060000
060180
060300
060600
061C00
067000
0FC000
060000
000000
000000
ENDCHAR

STARTCHAR jisx0208_256D
ENCODING 9581
SWIDTH 960 0
DWIDTH 18 0
BBX 18 18 0 -2
BITMAP
000000
000000
000000
000000
1C0300
0FFF80
0C0300
0C0300
0C0300
0C0600
0C0600
0C0600
0C0600
0FFF00
0C0000
000000
000000
000000
ENDCHAR

STARTCHAR jisx0208_256E
ENCODING 9582
SWIDTH 960 0
DWIDTH 18 0
BBX 18 18 0 -2
BITMAP
000000
000000
000000
000000
000000
000000
1C0C00
0FFE00
0C0C00
0C0C00
0C0C00
0C1800
001800
003000
006000
01C000
000000
000000
ENDCHAR

STARTCHAR jisx0208_256F
ENCODING 9583
SWIDTH 960 0
DWIDTH 18 0
BBX 18 18 0 -2
BITMAP
000000
000000
000000
380600
1FFF00
180600
180600
180600
180600
180600
000C00
000C00
001800
003000
00E000
038000
000000
000000
ENDCHAR

STARTCHAR jisx0208_2570
ENCODING 9584
SWIDTH 960 0
DWIDTH 18 0
BBX 18 18 0 -2
BITMAP
000000
00E000
007000
006000
306600
3FFF00
166300
066000
066000
666300
7FFF80
306180
006000
006000
006000
006000
006000
000000
ENDCHAR

STARTCHAR jisx0208_2571
ENCODING 9585
SWIDTH 960 0
DWIDTH 18 0
BBX 18 18 0 -2
BITMAP
000000
000000
000000
000000
180600
1FFF00
0C0600
000C00
01B800
00E000
00C000
00C000
30C300
3FFF80
180180
000000
000000
000000
ENDCHAR

STARTCHAR jisx0208_2572
ENCODING 9586
SWIDTH 960 0
DWIDTH 18 0
BBX 18 18 0 -2
BITMAP
000000
000000
180600
1FFF00
0C0600
000600
180600
1FFE00
0C0600
000C00
000C00
001800
003000
006000
01C000
070000
000000
000000
ENDCHAR

STARTCHAR jisx0208_2573
ENCODING 9587
SWIDTH 960 0
DWIDTH 18 0
BBX 18 18 0 -2
BITMAP
000000
000000
000000
1C0000
060000
030000
000180
000180
000300
000600
000C00
001800
007000
19C000
1F0000
0C0000
000000
000000
ENDCHAR

STARTCHAR jisx0208_2574
ENCODING 9588
SWIDTH 960 0
DWIDTH 18 0
BBX 18 18 0 -2
BITMAP
000000
01C580
00E2C0
00C000
38C600
1FFF00
180600
180600
180600
180600
000C00
000C00
001800
003000
00E000
038000
000000
000000
ENDCHAR

STARTCHAR jisx0208_2575
ENCODING 9589
SWIDTH 960 0
DWIDTH 18 0
BBX 18 18 0 -2
BITMAP
000000
000000
000000
000000
000000
01C000
00E000
0CC600
0FFF00
06C600
00C600
018600
018600
030C00
066C00
0C3C00
001800
000000
ENDCHAR

STARTCHAR jisx0208_2576
ENCODING 9590
SWIDTH 960 0
DWIDTH 18 0
BBX 18 18 0 -2
BITMAP
000000
000000
000000
000000
000000
070000
038000
030600
07FF00
063000
0C3000
183000
003000
006000
006000
01C000
070000
000000
ENDCHAR

STARTCHAR jisx0208_2621
ENCODING 9761
SWIDTH 960 0
DWIDTH 18 0
BBX 18 18 0 -2
BITMAP
000000
000000
00C000
00C000
016000
016000
033000
033000
061800
061800
061800
0C0C00
0FFC00
180600
180600
7E1F80
000000
000000
ENDCHAR

STARTCHAR jisx0208_2622
ENCODING 9762
SWIDTH 960 0
DWIDTH 18 0
BBX 18 18 0 -2
BITMAP
000000
000000
1FF800
060C00
060600
060600
060600
060C00
07FC00
060600
060300
060300
060300
060300
060600
1FFC00
000000
000000
ENDCHAR

STARTCHAR jisx0208_2623
ENCODING 9763
SWIDTH 960 0
DWIDTH 18 0
BBX 18 18 0 -2
BITMAP
000000
000000
1FFE00
060600
060300
060300
060000
060000
060000
060000
060000
060000
060000
060000
060000
1F8000
000000
000000
ENDCHAR

STARTCHAR jisx0208_2624
ENCODING 9764
SWIDTH 960 0
DWIDTH 18 0
BBX 18 18 0 -2
BITMAP
000000
000000
00C000
00C000
016000
016000
033000
033000
061800
061800
061800
0C0C00
0C0C00
180600
180600
3FFF00
000000
000000
ENDCHAR

STARTCHAR jisx0208_2625
ENCODING 9765
SWIDTH 960 0
DWIDTH 18 0
BBX 18 18 0 -2
BITMAP
000000
000000
1FFC00
060C00
060600
060600
061800
061800
07F800
061800
061800
060000
060300
060300
060600
1FFE00
000000
000000
ENDCHAR

STARTCHAR jisx0208_2626
ENCODING 9766
SWIDTH 960 0
DWIDTH 18 0
BBX 18 18 0 -2
BITMAP
000000
000000
07FF00
060600
0C0C00
0C1800
001800
003000
006000
00C000
018000
018000
030300
060300
0C0600
1FFE00
000000
000000
ENDCHAR

STARTCHAR jisx0208_2627
ENCODING 9767
SWIDTH 960 0
DWIDTH 18 0
BBX 18 18 0 -2
BITMAP
000000
000000
3F1F80
0C0600
0C0600
0C0600
0C0600
0C0600
0FFE00
0C0600
0C0600
0C0600
0C0600
0C0600
0C0600
3F1F80
000000
000000
ENDCHAR

STARTCHAR jisx0208_2628
ENCODING 9768
SWIDTH 960 0
DWIDTH 18 0
BBX 18 18 0 -2
BITMAP
000000
000000
01F000
071C00
0C0600
0C0600
1B1B00
1B1B00
1BFB00
1B1B00
1B1B00
180300
0C0600
0C0600
071C00
01F000
000000
000000
ENDCHAR

STARTCHAR jisx0208_2629
ENCODING 9769
SWIDTH 960 0
DWIDTH 18 0
BBX 18 18 0 -2
BITMAP
000000
000000
03F000
00C000
00C000
00C000
00C000
00C000
00C000
00C000
00C000
00C000
00C000
00C000
00C000
03F000
000000
000000
ENDCHAR

STARTCHAR jisx0208_262A
ENCODING 9770
SWIDTH 960 0
DWIDTH 18 0
BBX 18 18 0 -2
BITMAP
000000
000000
3F3F00
0C0C00
0C1800
0C3000
0C6000
0CC000
0D6000
0B3000
0E3000
0C1800
0C0C00
0C0C00
0C0600
3F1F80
000000
000000
ENDCHAR

STARTCHAR jisx0208_262B
ENCODING 9771
SWIDTH 960 0
DWIDTH 18 0
BBX 18 18 0 -2
BITMAP
000000
000000
00C000
00C000
016000
016000
033000
033000
061800
061800
061800
0C0C00
0C0C00
180600
180600
7E1F80
000000
000000
ENDCHAR

STARTCHAR jisx0208_262C
ENCODING 9772
SWIDTH 960 0
DWIDTH 18 0
BBX 18 18 0 -2
BITMAP
000000
000000
7C07C0
1C0700
160B00
160B00
160B00
1B1B00
1B1B00
1B1B00
19B300
19B300
19B300
18E300
18E300
7EEFC0
000000
000000
ENDCHAR

STARTCHAR jisx0208_262D
ENCODING 9773
SWIDTH 960 0
DWIDTH 18 0
BBX 18 18 0 -2
BITMAP
000000
000000
3C1F80
0E0600
0E0600
0B0600
0D8600
0D8600
0CC600
0C6600
0C6600
0C3600
0C1600
0C1600
0C0E00
3F0600
000000
000000
ENDCHAR

STARTCHAR jisx0208_262E
ENCODING 9774
SWIDTH 960 0
DWIDTH 18 0
BBX 18 18 0 -2
BITMAP
000000
000000
0FFE00
0C0600
180300
180300
060C00
060C00
07FC00
060C00
060C00
000000
180300
180300
0C0600
0FFE00
000000
000000
ENDCHAR

STARTCHAR jisx0208_262F
ENCODING 9775
SWIDTH 960 0
DWIDTH 18 0
BBX 18 18 0 -2
BITMAP
000000
000000
01F000
071C00
0C0600
0C0600
180300
180300
180300
180300
180300
180300
0C0600
0C0600
071C00
01F000
000000
000000
ENDCHAR

STARTCHAR jisx0208_2630
ENCODING 9776
SWIDTH 960 0
DWIDTH 18 0
BBX 18 18 0 -2
BITMAP
000000
000000
3FFF80
0C0600
0C0600
0C0600
0C0600
0C0600
0C0600
0C0600
0C0600
0C0600
0C0600
0C0600
0C0600
3F1F80
000000
000000
ENDCHAR

STARTCHAR jisx0208_2631
ENCODING 9777
SWIDTH 960 0
DWIDTH 18 0
BBX 18 18 0 -2
BITMAP
000000
000000
1FF800
060C00
060600
060600
060600
060600
060600
060C00
07F800
060000
060000
060000
060000
1F8000
000000
000000
ENDCHAR

STARTCHAR jisx0208_2632
ENCODING 9778
SWIDTH 960 0
DWIDTH 18 0
BBX 18 18 0 -2
BITMAP
000000
000000
1FFC00
0C0C00
060600
030600
018000
00C000
006000
00C000
018000
030000
060300
0C0300
180600
1FFE00
000000
000000
ENDCHAR

STARTCHAR jisx0208_2633
ENCODING 9779
SWIDTH 960 0
DWIDTH 18 0
BBX 18 18 0 -2
BITMAP
000000
000000
1FFE00
18C600
30C300
30C300
00C000
00C000
00C000
00C000
00C000
00C000
00C000
00C000
00C000
03F000
000000
000000
ENDCHAR

STARTCHAR jisx0208_2634
ENCODING 9780
SWIDTH 960 0
DWIDTH 18 0
BBX 18 18 0 -2
BITMAP
000000
000000
0F3C00
196600
30C300
30C300
00C000
00C000
00C000
00C000
00C000
00C000
00C000
00C000
00C000
03F000
000000
000000
ENDCHAR

STARTCHAR jisx0208_2635
ENCODING 9781
SWIDTH 960 0
DWIDTH 18 0
BBX 18 18 0 -2
BITMAP
000000
000000
03F000
00C000
07F800
1CCE00
18C600
30C300
30C300
30C300
30C300
18C600
1CCE00
07F800
00C000
03F000
000000
000000
ENDCHAR

STARTCHAR jisx0208_2636
ENCODING 9782
SWIDTH 960 0
DWIDTH 18 0
BBX 18 18 0 -2
BITMAP
000000
000000
3F3F00
0C0C00
061800
033000
033000
016000
00C000
00C000
016000
033000
033000
061800
0C0C00
3F3F00
000000
000000
ENDCHAR

STARTCHAR jisx0208_2637
ENCODING 9783
SWIDTH 960 0
DWIDTH 18 0
BBX 18 18 0 -2
BITMAP
000000
000000
7BF780
18C600
18C600
18C600
18C600
18C600
18C600
18C600
0CCC00
0EDC00
03F000
00C000
00C000
03F000
000000
000000
ENDCHAR

STARTCHAR jisx0208_2638
ENCODING 9784
SWIDTH 960 0
DWIDTH 18 0
BBX 18 18 0 -2
BITMAP
000000
000000
01F000
071C00
0C0600
0C0600
180300
180300
180300
0C0600
0C0600
060C00
031800
19B300
19B300
1FBF00
000000
000000
ENDCHAR

STARTCHAR jisx0208_2641
ENCODING 9793
SWIDTH 960 0
DWIDTH 18 0
BBX 18 18 0 -2
BITMAP
000000
000000
000000
000000
000000
000000
03C600
066600
0C3600
0C2C00
182C00
183800
183000
187600
0CB600
079C00
000000
000000
ENDCHAR

STARTCHAR jisx0208_2642
ENCODING 9794
SWIDTH 960 0
DWIDTH 18 0
BBX 18 18 0 -2
BITMAP
000000
000000
007C00
00C600
018300
018300
030300
030600
02FC00
060C00
060600
060600
060600
0B0C00
0DF800
0C0000
3F0000
000000
ENDCHAR

STARTCHAR jisx0208_2643
ENCODING 9795
SWIDTH 960 0
DWIDTH 18 0
BBX 18 18 0 -2
BITMAP
000000
000000
000000
000000
000000
000000
078700
0CDC00
00B000
00E000
00C000
018000
018000
018000
030000
030000
0FC000
000000
ENDCHAR

STARTCHAR jisx0208_2644
ENCODING 9796
SWIDTH 960 0
DWIDTH 18 0
BBX 18 18 0 -2
BITMAP
000000
000000
00FC00
018600
018E00
00C000
01F800
030C00
060600
060600
0C0600
0C0600
0C0C00
0C0C00
061800
03F000
000000
000000
ENDCHAR

STARTCHAR jisx0208_2645
ENCODING 9797
SWIDTH 960 0
DWIDTH 18 0
BBX 18 18 0 -2
BITMAP
000000
000000
000000
000000
000000
000000
01F800
030C00
031C00
030000
03F000
060000
0C0000
0C0C00
0C1800
07F000
000000
000000
ENDCHAR

STARTCHAR jisx0208_2646
ENCODING 9798
SWIDTH 960 0
DWIDTH 18 0
BBX 18 18 0 -2
BITMAP
000000
000000
01C600
019C00
00F000
006000
00C000
018000
030000
030000
060000
060000
060000
03F800
000C00
030C00
01F800
000000
ENDCHAR

STARTCHAR jisx0208_2647
ENCODING 9799
SWIDTH 960 0
DWIDTH 18 0
BBX 18 18 0 -2
BITMAP
000000
000000
000000
000000
000000
000000
077C00
0DC600
018600
018600
030600
030C00
030C00
060C00
061800
1F9800
007E00
000000
ENDCHAR

STARTCHAR jisx0208_2648
ENCODING 9800
SWIDTH 960 0
DWIDTH 18 0
BBX 18 18 0 -2
BITMAP
000000
000000
00F800
018C00
030600
030600
060600
060600
07FE00
0C0C00
0C0C00
0C0C00
0C1800
0C1800
063000
03E000
000000
000000
ENDCHAR

STARTCHAR jisx0208_2649
ENCODING 9801
SWIDTH 960 0
DWIDTH 18 0
BBX 18 18 0 -2
BITMAP
000000
000000
000000
000000
000000
000000
03C000
00C000
00C000
018000
018000
018000
030000
033000
036000
01C000
000000
000000
ENDCHAR

STARTCHAR jisx0208_264A
ENCODING 9802
SWIDTH 960 0
DWIDTH 18 0
BBX 18 18 0 -2
BITMAP
000000
000000
000000
000000
000000
000000
078F00
019700
01B000
036000
03E000
033000
063000
063300
063600
1F9C00
000000
000000
ENDCHAR

STARTCHAR jisx0208_264B
ENCODING 9803
SWIDTH 960 0
DWIDTH 18 0
BBX 18 18 0 -2
BITMAP
000000
000000
01E000
033000
03B000
003000
003000
003000
005800
00D800
00D800
019800
031800
031800
061B00
1F8E00
000000
000000
ENDCHAR

STARTCHAR jisx0208_264C
ENCODING 9804
SWIDTH 960 0
DWIDTH 18 0
BBX 18 18 0 -2
BITMAP
000000
000000
000000
000000
000000
000000
018600
018600
018600
030C00
030C00
030C00
061800
071B00
05EE00
0C0000
3C0000
000000
ENDCHAR

STARTCHAR jisx0208_264D
ENCODING 9805
SWIDTH 960 0
DWIDTH 18 0
BBX 18 18 0 -2
BITMAP
000000
000000
000000
000000
000000
000000
060E00
030E00
030600
030C00
018C00
019800
01B000
016000
01C000
018000
000000
000000
ENDCHAR

STARTCHAR jisx0208_264E
ENCODING 9806
SWIDTH 960 0
DWIDTH 18 0
BBX 18 18 0 -2
BITMAP
000000
000000
00E000
00C000
007C00
00C000
018000
018000
01F800
030000
060000
060000
060000
03F800
000C00
018C00
00F800
000000
ENDCHAR

STARTCHAR jisx0208_264F
ENCODING 9807
SWIDTH 960 0
DWIDTH 18 0
BBX 18 18 0 -2
BITMAP
000000
000000
000000
000000
000000
000000
01F800
030C00
060600
060600
0C0600
0C0600
0C0C00
0C0C00
061800
03F000
000000
000000
ENDCHAR

STARTCHAR jisx0208_2650
ENCODING 9808
SWIDTH 960 0
DWIDTH 18 0
BBX 18 18 0 -2
BITMAP
000000
000000
000000
000000
000000
000300
07FE00
0D9800
019800
01B000
033000
033000
066000
066600
2C6C00
383800
000000
000000
ENDCHAR

STARTCHAR jisx0208_2651
ENCODING 9809
SWIDTH 960 0
DWIDTH 18 0
BBX 18 18 0 -2
BITMAP
000000
000000
000000
000000
000000
000000
00F800
018C00
030600
030600
060600
060C00
060C00
071800
0DF000
0C0000
3F0000
000000
ENDCHAR

STARTCHAR jisx0208_2652
ENCODING 9810
SWIDTH 960 0
DWIDTH 18 0
BBX 18 18 0 -2
BITMAP
000000
000000
000000
000000
000000
000180
01FF00
030C00
060600
060600
0C0600
0C0600
0C0C00
0C0C00
061800
03F000
000000
000000
ENDCHAR

STARTCHAR jisx0208_2653
ENCODING 9811
SWIDTH 960 0
DWIDTH 18 0
BBX 18 18 0 -2
BITMAP
000000
000000
000000
000000
000000
000C00
07F800
0CC000
00C000
018000
018000
018000
030000
033000
036000
01C000
000000
000000
ENDCHAR

STARTCHAR jisx0208_2654
ENCODING 9812
SWIDTH 960 0
DWIDTH 18 0
BBX 18 18 0 -2
BITMAP
000000
000000
000000
000000
000000
000000
061800
030C00
030600
030600
030600
060600
060600
060C00
061800
03F000
000000
000000
ENDCHAR

STARTCHAR jisx0208_2655
ENCODING 9813
SWIDTH 960 0
DWIDTH 18 0
BBX 18 18 0 -2
BITMAP
000000
000000
000000
000000
00F000
003000
01F000
035800
066C00
0C6C00
0CCC00
0CCC00
0CD800
05B000
03E000
018000
07E000
000000
ENDCHAR

STARTCHAR jisx0208_2656
ENCODING 9814
SWIDTH 960 0
DWIDTH 18 0
BBX 18 18 0 -2
BITMAP
000000
000000
000000
000000
000000
000000
073F00
0D8C00
0D9800
00B000
00E000
00C000
016000
036000
063000
0C3600
3F1C00
000000
ENDCHAR

STARTCHAR jisx0208_2657
ENCODING 9815
SWIDTH 960 0
DWIDTH 18 0
BBX 18 18 0 -2
BITMAP
000000
000000
000000
000000
000000
000000
0EEC00
0B6600
036600
066600
06C600
0CCC00
0CCC00
0D9800
07F000
018000
07E000
000000
ENDCHAR

STARTCHAR jisx0208_2658
ENCODING 9816
SWIDTH 960 0
DWIDTH 18 0
BBX 18 18 0 -2
BITMAP
000000
000000
000000
000000
000000
000000
018C00
030600
060300
0C6300
0C6300
186300
18C300
18C600
19CC00
0F7800
000000
000000
ENDCHAR

STARTCHAR jisx0208_2721
ENCODING 10017
SWIDTH 960 0
DWIDTH 18 0
BBX 18 18 0 -2
BITMAP
000000
000000
00C000
00C000
016000
016000
033000
033000
061800
061800
061800
0C0C00
0FFC00
180600
180600
7E1F80
000000
000000
ENDCHAR

STARTCHAR jisx0208_2722
ENCODING 10018
SWIDTH 960 0
DWIDTH 18 0
BBX 18 18 0 -2
BITMAP
000000
000000
1FFC00
060C00
060600
060600
060000
060000
07FC00
060600
060300
060300
060300
060300
060600
1FFC00
000000
000000
ENDCHAR

STARTCHAR jisx0208_2723
ENCODING 10019
SWIDTH 960 0
DWIDTH 18 0
BBX 18 18 0 -2
BITMAP
000000
000000
1FF800
060C00
060600
060600
060600
060C00
07FC00
060600
060300
060300
060300
060300
060600
1FFC00
000000
000000
ENDCHAR

STARTCHAR jisx0208_2724
ENCODING 10020
SWIDTH 960 0
DWIDTH 18 0
BBX 18 18 0 -2
BITMAP
000000
000000
1FFE00
060600
060300
060300
060000
060000
060000
060000
060000
060000
060000
060000
060000
1F8000
000000
000000
ENDCHAR

STARTCHAR jisx0208_2725
ENCODING 10021
SWIDTH 960 0
DWIDTH 18 0
BBX 18 18 0 -2
BITMAP
000000
000000
0FFF00
030C00
030C00
030C00
030C00
030C00
030C00
030C00
030C00
030C00
030C00
060C00
060C00
1FFF00
180300
000000
ENDCHAR

STARTCHAR jisx0208_2726
ENCODING 10022
SWIDTH 960 0
DWIDTH 18 0
BBX 18 18 0 -2
BITMAP
000000
000000
1FFC00
060C00
060600
060600
061800
061800
07F800
061800
061800
060000
060300
060300
060600
1FFE00
000000
000000
ENDCHAR

STARTCHAR jisx0208_2727
ENCODING 10023
SWIDTH 960 0
DWIDTH 18 0
BBX 18 18 0 -2
BITMAP
000000
03B800
03B800
000000
1FFC00
060C00
060600
061600
061800
07F800
061800
061800
060300
060300
060600
1FFE00
000000
000000
ENDCHAR

STARTCHAR jisx0208_2728
ENCODING 10024
SWIDTH 960 0
DWIDTH 18 0
BBX 18 18 0 -2
BITMAP
000000
000000
7DEF80
18C600
0CCC00
0CCC00
06D800
06D800
03F000
06D800
06D800
0CCC00
0CCC00
18C600
18C600
7DEF80
000000
000000
ENDCHAR

STARTCHAR jisx0208_2729
ENCODING 10025
SWIDTH 960 0
DWIDTH 18 0
BBX 18 18 0 -2
BITMAP
000000
000000
05F800
070C00
060600
0C0600
0C0600
000C00
01FC00
000600
000300
000300
180300
0C0300
060600
03FC00
000000
000000
ENDCHAR

STARTCHAR jisx0208_272A
ENCODING 10026
SWIDTH 960 0
DWIDTH 18 0
BBX 18 18 0 -2
BITMAP
000000
000000
3F0780
0C0E00
0C0E00
0C1600
0C3600
0C3600
0C6600
0CC600
0CC600
0D8600
0B0600
0B0600
0E0600
3C1F80
000000
000000
ENDCHAR

STARTCHAR jisx0208_272B
ENCODING 10027
SWIDTH 960 0
DWIDTH 18 0
BBX 18 18 0 -2
BITMAP
000000
03B800
03F800
3F0780
0C0E00
0C0E00
0C1600
0C3600
0C3600
0C6600
0CC600
0CC600
0D8600
0B0600
0B0600
3E1F80
000000
000000
ENDCHAR

STARTCHAR jisx0208_272C
ENCODING 10028
SWIDTH 960 0
DWIDTH 18 0
BBX 18 18 0 -2
BITMAP
000000
000000
3F3F00
0C0C00
0C1800
0C1800
0C3000
0C6000
0FE000
0C6000
0C3000
0C1800
0C1800
0C0C00
0C0600
3F1F80
000000
000000
ENDCHAR

STARTCHAR jisx0208_272D
ENCODING 10029
SWIDTH 960 0
DWIDTH 18 0
BBX 18 18 0 -2
BITMAP
000000
000000
07FF00
018C00
018C00
018C00
018C00
018C00
018C00
018C00
018C00
018C00
1D8C00
1D8C00
198C00
0F3F00
000000
000000
ENDCHAR

STARTCHAR jisx0208_272E
ENCODING 10030
SWIDTH 960 0
DWIDTH 18 0
BBX 18 18 0 -2
BITMAP
000000
000000
7C07C0
1C0700
160B00
160B00
160B00
1B1B00
1B1B00
1B1B00
19B300
19B300
19B300
18E300
18E300
7EEFC0
000000
000000
ENDCHAR

STARTCHAR jisx0208_272F
ENCODING 10031
SWIDTH 960 0
DWIDTH 18 0
BBX 18 18 0 -2
BITMAP
000000
000000
3F1F80
0C0600
0C0600
0C0600
0C0600
0C0600
0FFE00
0C0600
0C0600
0C0600
0C0600
0C0600
0C0600
3F1F80
000000
000000
ENDCHAR

STARTCHAR jisx0208_2730
ENCODING 10032
SWIDTH 960 0
DWIDTH 18 0
BBX 18 18 0 -2
BITMAP
000000
000000
01F000
071C00
0C0600
0C0600
180300
180300
180300
180300
180300
180300
0C0600
0C0600
071C00
01F000
000000
000000
ENDCHAR

STARTCHAR jisx0208_2731
ENCODING 10033
SWIDTH 960 0
DWIDTH 18 0
BBX 18 18 0 -2
BITMAP
000000
000000
3FFF80
0C0600
0C0600
0C0600
0C0600
0C0600
0C0600
0C0600
0C0600
0C0600
0C0600
0C0600
0C0600
3F1F80
000000
000000
ENDCHAR

STARTCHAR jisx0208_2732
ENCODING 10034
SWIDTH 960 0
DWIDTH 18 0
BBX 18 18 0 -2
BITMAP
000000
000000
1FF800
060C00
060600
060600
060600
060600
060C00
07F800
060000
060000
060000
060000
060000
1F8000
000000
000000
ENDCHAR

STARTCHAR jisx0208_2733
ENCODING 10035
SWIDTH 960 0
DWIDTH 18 0
BBX 18 18 0 -2
BITMAP
000000
000000
01F600
071E00
0C0600
0C0300
180300
180000
180000
180000
180000
180300
0C0300
0C0600
070E00
01F800
000000
000000
ENDCHAR

STARTCHAR jisx0208_2734
ENCODING 10036
SWIDTH 960 0
DWIDTH 18 0
BBX 18 18 0 -2
BITMAP
000000
000000
1FFE00
18C600
30C300
30C300
00C000
00C000
00C000
00C000
00C000
00C000
00C000
00C000
00C000
03F000
000000
000000
ENDCHAR

STARTCHAR jisx0208_2735
ENCODING 10037
SWIDTH 960 0
DWIDTH 18 0
BBX 18 18 0 -2
BITMAP
000000
000000
1FBF00
060C00
060C00
031800
031800
031800
01B000
01B000
00E000
00E000
00C000
0EC000
0D8000
070000
000000
000000
ENDCHAR

STARTCHAR jisx0208_2736
ENCODING 10038
SWIDTH 960 0
DWIDTH 18 0
BBX 18 18 0 -2
BITMAP
000000
000000
03F000
00C000
07F800
1CCE00
18C600
30C300
30C300
30C300
30C300
18C600
1CCE00
07F800
00C000
03F000
000000
000000
ENDCHAR

STARTCHAR jisx0208_2737
ENCODING 10039
SWIDTH 960 0
DWIDTH 18 0
BBX 18 18 0 -2
BITMAP
000000
000000
3F3F00
0C0C00
061800
033000
033000
016000
00C000
00C000
016000
033000
033000
061800
0C0C00
3F3F00
000000
000000
ENDCHAR

STARTCHAR jisx0208_2738
ENCODING 10040
SWIDTH 960 0
DWIDTH 18 0
BBX 18 18 0 -2
BITMAP
000000
000000
3F1F80
0C0600
0C0600
0C0600
0C0600
0C0600
0C0600
0C0600
0C0600
0C0600
0C0600
0C0600
0C0600
3FFF80
000180
000000
ENDCHAR

STARTCHAR jisx0208_2739
ENCODING 10041
SWIDTH 960 0
DWIDTH 18 0
BBX 18 18 0 -2
BITMAP
000000
000000
3F3F00
0C0C00
0C0C00
0C0C00
0C0C00
0C0C00
0C0C00
0C1C00
062C00
03EC00
000C00
000C00
000C00
003F00
000000
000000
ENDCHAR

STARTCHAR jisx0208_273A
ENCODING 10042
SWIDTH 960 0
DWIDTH 18 0
BBX 18 18 0 -2
BITMAP
000000
000000
7BEF80
18C600
18C600
18C600
18C600
18C600
18C600
18C600
18C600
18C600
18C600
18C600
18C600
7FFF80
000000
000000
ENDCHAR

STARTCHAR jisx0208_273B
ENCODING 10043
SWIDTH 960 0
DWIDTH 18 0
BBX 18 18 0 -2
BITMAP
000000
000000
7BEF80
18C600
18C600
18C600
18C600
18C600
18C600
18C600
18C600
18C600
18C600
18C600
18C600
7FFF80
000180
000000
ENDCHAR

STARTCHAR jisx0208_273C
ENCODING 10044
SWIDTH 960 0
DWIDTH 18 0
BBX 18 18 0 -2
BITMAP
000000
000000
1FC000
1B0000
330000
330000
030000
03FC00
030600
030300
030300
030300
030300
030300
030600
0FFC00
000000
000000
ENDCHAR

STARTCHAR jisx0208_273D
ENCODING 10045
SWIDTH 960 0
DWIDTH 18 0
BBX 18 18 0 -2
BITMAP
000000
000000
7E1F80
180600
180600
180600
180600
1FC600
186600
183600
183600
183600
183600
183600
186600
7FDF80
000000
000000
ENDCHAR

STARTCHAR jisx0208_273E
ENCODING 10046
SWIDTH 960 0
DWIDTH 18 0
BBX 18 18 0 -2
BITMAP
000000
000000
1F8000
060000
060000
060000
060000
07F800
060C00
060600
060600
060600
060600
060600
060C00
1FF800
000000
000000
ENDCHAR

STARTCHAR jisx0208_273F
ENCODING 10047
SWIDTH 960 0
DWIDTH 18 0
BBX 18 18 0 -2
BITMAP
000000
000000
0DF000
0F1C00
0C0600
180600
180300
000300
03FF00
000300
000300
000300
180600
0C0600
0E1C00
03F000
000000
000000
ENDCHAR

STARTCHAR jisx0208_2740
ENCODING 10048
SWIDTH 960 0
DWIDTH 18 0
BBX 18 18 0 -2
BITMAP
000000
000000
7E7E00
18C300
198180
198180
198180
198180
1F8180
198180
198180
198180
198180
198180
18C300
7E7E00
000000
000000
ENDCHAR

STARTCHAR jisx0208_2741
ENCODING 10049
SWIDTH 960 0
DWIDTH 18 0
BBX 18 18 0 -2
BITMAP
000000
000000
03FF00
060C00
0C0C00
0C0C00
0C0C00
0C0C00
060C00
03FC00
030C00
060C00
060C00
060C00
360C00
1C3F00
000000
000000
ENDCHAR

STARTCHAR jisx0208_2751
ENCODING 10065
SWIDTH 960 0
DWIDTH 18 0
BBX 18 18 0 -2
BITMAP
000000
000000
000000
000000
000000
000000
03F000
071800
071800
003800
01D800
071800
0C1800
0C1800
0C3600
07DC00
000000
000000
ENDCHAR

STARTCHAR jisx0208_2752
ENCODING 10066
SWIDTH 960 0
DWIDTH 18 0
BBX 18 18 0 -2
BITMAP
000000
000000
03EC00
063800
0C0000
0C0000
0BF000
0E1800
0C0C00
0C0C00
0C0C00
0C0C00
0C0C00
0C0C00
061800
03F000
000000
000000
ENDCHAR

STARTCHAR jisx0208_2753
ENCODING 10067
SWIDTH 960 0
DWIDTH 18 0
BBX 18 18 0 -2
BITMAP
000000
000000
000000
000000
000000
000000
0FF800
030C00
030C00
030C00
03FC00
030600
030600
030600
030600
0FFC00
000000
000000
ENDCHAR

STARTCHAR jisx0208_2754
ENCODING 10068
SWIDTH 960 0
DWIDTH 18 0
BBX 18 18 0 -2
BITMAP
000000
000000
000000
000000
000000
000000
0FFC00
030C00
030600
030000
030000
030000
030000
030000
030000
0FC000
000000
000000
ENDCHAR

STARTCHAR jisx0208_2755
ENCODING 10069
SWIDTH 960 0
DWIDTH 18 0
BBX 18 18 0 -2
BITMAP
000000
000000
000000
000000
000000
000000
0FFE00
031800
031800
031800
031800
031800
031800
061800
061800
1FFE00
180600
000000
ENDCHAR

STARTCHAR jisx0208_2756
ENCODING 10070
SWIDTH 960 0
DWIDTH 18 0
BBX 18 18 0 -2
BITMAP
000000
000000
000000
000000
000000
000000
03F000
061800
0C0C00
0C0C00
0FFC00
0C0000
0C0000
0C0C00
061800
03F000
000000
000000
ENDCHAR

STARTCHAR jisx0208_2757
ENCODING 10071
SWIDTH 960 0
DWIDTH 18 0
BBX 18 18 0 -2
BITMAP
000000
000000
000000
077000
077000
000000
03F000
061800
0C0C00
0C0C00
0FFC00
0C0000
0C0000
0C0C00
061800
03F000
000000
000000
ENDCHAR

STARTCHAR jisx0208_2758
ENCODING 10072
SWIDTH 960 0
DWIDTH 18 0
BBX 18 18 0 -2
BITMAP
000000
000000
000000
000000
000000
000000
3DDF00
0CCC00
06D800
06D800
03F000
06D800
06D800
0CCC00
0CCC00
3DDF00
000000
000000
ENDCHAR

STARTCHAR jisx0208_2759
ENCODING 10073
SWIDTH 960 0
DWIDTH 18 0
BBX 18 18 0 -2
BITMAP
000000
000000
000000
000000
000000
000000
05F000
071800
060C00
061800
01F000
001800
000C00
060C00
031800
01F000
000000
000000
ENDCHAR

STARTCHAR jisx0208_275A
ENCODING 10074
SWIDTH 960 0
DWIDTH 18 0
BBX 18 18 0 -2
BITMAP
000000
000000
000000
000000
000000
000000
1F9F00
061C00
062C00
066C00
066C00
06CC00
058C00
058C00
070C00
1E3F00
000000
000000
ENDCHAR

STARTCHAR jisx0208_275B
ENCODING 10075
SWIDTH 960 0
DWIDTH 18 0
BBX 18 18 0 -2
BITMAP
000000
000000
000000
03B800
03F800
000000
1F9F00
061C00
062C00
066C00
066C00
06CC00
058C00
058C00
070C00
1E3F00
000000
000000
ENDCHAR

STARTCHAR jisx0208_275C
ENCODING 10076
SWIDTH 960 0
DWIDTH 18 0
BBX 18 18 0 -2
BITMAP
000000
000000
000000
000000
000000
000000
0FBE00
031800
031800
033000
03F000
031800
031800
030C00
030C00
0FDF00
000000
000000
ENDCHAR

STARTCHAR jisx0208_275D
ENCODING 10077
SWIDTH 960 0
DWIDTH 18 0
BBX 18 18 0 -2
BITMAP
000000
000000
000000
000000
000000
000000
07FE00
019800
019800
019800
019800
019800
019800
1D9800
1D9800
0F7E00
000000
000000
ENDCHAR

STARTCHAR jisx0208_275E
ENCODING 10078
SWIDTH 960 0
DWIDTH 18 0
BBX 18 18 0 -2
BITMAP
000000
000000
000000
000000
000000
000000
3E1F00
0E1C00
0B2C00
0B2C00
0B2C00
0D6C00
0D6C00
0D6C00
0CCC00
3EDF00
000000
000000
ENDCHAR

STARTCHAR jisx0208_275F
ENCODING 10079
SWIDTH 960 0
DWIDTH 18 0
BBX 18 18 0 -2
BITMAP
000000
000000
000000
000000
000000
000000
1FBF00
060C00
060C00
060C00
07FC00
060C00
060C00
060C00
060C00
1FBF00
000000
000000
ENDCHAR

STARTCHAR jisx0208_2760
ENCODING 10080
SWIDTH 960 0
DWIDTH 18 0
BBX 18 18 0 -2
BITMAP
000000
000000
000000
000000
000000
000000
03F000
061800
0C0C00
0C0C00
0C0C00
0C0C00
0C0C00
0C0C00
061800
03F000
000000
000000
ENDCHAR

STARTCHAR jisx0208_2761
ENCODING 10081
SWIDTH 960 0
DWIDTH 18 0
BBX 18 18 0 -2
BITMAP
000000
000000
000000
000000
000000
000000
1FFF00
060C00
060C00
060C00
060C00
060C00
060C00
060C00
060C00
1FBF00
000000
000000
ENDCHAR

STARTCHAR jisx0208_2762
ENCODING 10082
SWIDTH 960 0
DWIDTH 18 0
BBX 18 18 0 -2
BITMAP
000000
000000
000000
000000
000000
000000
0EF800
038C00
030600
030600
030600
030600
030600
038C00
02F800
030000
0FC000
000000
ENDCHAR

STARTCHAR jisx0208_2763
ENCODING 10083
SWIDTH 960 0
DWIDTH 18 0
BBX 18 18 0 -2
BITMAP
000000
000000
000000
000000
000000
000000
03F000
061800
0C1C00
0C1C00
0C0000
0C0000
0C0000
0C0C00
061800
03F000
000000
000000
ENDCHAR

STARTCHAR jisx0208_2764
ENCODING 10084
SWIDTH 960 0
DWIDTH 18 0
BBX 18 18 0 -2
BITMAP
000000
000000
000000
000000
000000
000000
0FFC00
0CCC00
18C600
00C000
00C000
00C000
00C000
00C000
00C000
03F000
000000
000000
ENDCHAR

STARTCHAR jisx0208_2765
ENCODING 10085
SWIDTH 960 0
DWIDTH 18 0
BBX 18 18 0 -2
BITMAP
000000
000000
000000
000000
000000
000000
1F7E00
061800
061800
033000
033000
016000
016000
00C000
00C000
0D8000
0F0000
000000
ENDCHAR

STARTCHAR jisx0208_2766
ENCODING 10086
SWIDTH 960 0
DWIDTH 18 0
BBX 18 18 0 -2
BITMAP
000000
000000
03C000
00C000
00C000
00C000
0EBC00
19E600
18C600
18C600
18C600
18C600
18C600
19E600
0EBC00
00C000
03F000
000000
ENDCHAR

STARTCHAR jisx0208_2767
ENCODING 10087
SWIDTH 960 0
DWIDTH 18 0
BBX 18 18 0 -2
BITMAP
000000
000000
000000
000000
000000
000000
1F7E00
061800
033000
016000
00C000
00C000
016000
033000
061800
1F7E00
000000
000000
ENDCHAR

STARTCHAR jisx0208_2768
ENCODING 10088
SWIDTH 960 0
DWIDTH 18 0
BBX 18 18 0 -2
BITMAP
000000
000000
000000
000000
000000
000000
1FBF00
060C00
060C00
060C00
060C00
060C00
060C00
060C00
060C00
1FFF00
000300
000000
ENDCHAR

STARTCHAR jisx0208_2769
ENCODING 10089
SWIDTH 960 0
DWIDTH 18 0
BBX 18 18 0 -2
BITMAP
000000
000000
000000
000000
000000
000000
1F7E00
061800
061800
061800
061800
061800
063800
03D800
001800
007E00
000000
000000
ENDCHAR

STARTCHAR jisx0208_276A
ENCODING 10090
SWIDTH 960 0
DWIDTH 18 0
BBX 18 18 0 -2
BITMAP
000000
000000
000000
000000
000000
000000
3DDF00
0CCC00
0CCC00
0CCC00
0CCC00
0CCC00
0CCC00
0CCC00
0CCC00
3FFF00
000000
000000
ENDCHAR

STARTCHAR jisx0208_276B
ENCODING 10091
SWIDTH 960 0
DWIDTH 18 0
BBX 18 18 0 -2
BITMAP
000000
000000
000000
000000
000000
000000
3DDF00
0CCC00
0CCC00
0CCC00
0CCC00
0CCC00
0CCC00
0CCC00
0CCC00
3FFF00
000300
000000
ENDCHAR

STARTCHAR jisx0208_276C
ENCODING 10092
SWIDTH 960 0
DWIDTH 18 0
BBX 18 18 0 -2
BITMAP
000000
000000
000000
000000
000000
000000
07E000
058000
0D8000
018000
01FC00
018600
018600
018600
018600
07FC00
000000
000000
ENDCHAR

STARTCHAR jisx0208_276D
ENCODING 10093
SWIDTH 960 0
DWIDTH 18 0
BBX 18 18 0 -2
BITMAP
000000
000000
000000
000000
000000
000000
3F1F80
0C0600
0C0600
0C0600
0FC600
0C6600
0C6600
0C6600
0C6600
3FDF80
000000
000000
ENDCHAR

STARTCHAR jisx0208_276E
ENCODING 10094
SWIDTH 960 0
DWIDTH 18 0
BBX 18 18 0 -2
BITMAP
000000
000000
000000
000000
000000
000000
0FC000
030000
030000
030000
03F800
030C00
030C00
030C00
030C00
0FF800
000000
000000
ENDCHAR

STARTCHAR jisx0208_276F
ENCODING 10095
SWIDTH 960 0
DWIDTH 18 0
BBX 18 18 0 -2
BITMAP
000000
000000
000000
000000
000000
000000
03F000
061800
0E0C00
0E0C00
01FC00
000C00
000C00
0C0C00
061800
03F000
000000
000000
ENDCHAR

STARTCHAR jisx0208_2770
ENCODING 10096
SWIDTH 960 0
DWIDTH 18 0
BBX 18 18 0 -2
BITMAP
000000
000000
000000
000000
000000
000000
1FBC00
066600
06C300
06C300
07C300
06C300
06C300
06C300
066600
1FBC00
000000
000000
ENDCHAR

STARTCHAR jisx0208_2771
ENCODING 10097
SWIDTH 960 0
DWIDTH 18 0
BBX 18 18 0 -2
BITMAP
000000
000000
000000
000000
000000
000000
03FE00
061800
061800
061800
061800
03F800
061800
061800
161800
0E7E00
000000
000000
ENDCHAR

STARTCHAR jisx0208_2821
ENCODING 10273
SWIDTH 960 0
DWIDTH 18 0
BBX 18 18 0 -2
BITMAP
000000
000000
000000
000000
000000
000000
000000
000000
FFFFC0
000000
000000
000000
000000
000000
000000
000000
000000
000000
ENDCHAR

STARTCHAR jisx0208_2822
ENCODING 10274
SWIDTH 960 0
DWIDTH 18 0
BBX 18 18 0 -2
BITMAP
00C000
00C000
00C000
00C000
00C000
00C000
00C000
00C000
00C000
00C000
00C000
00C000
00C000
00C000
00C000
00C000
00C000
00C000
ENDCHAR

STARTCHAR jisx0208_2823
ENCODING 10275
SWIDTH 960 0
DWIDTH 18 0
BBX 18 18 0 -2
BITMAP
000000
000000
000000
000000
000000
000000
000000
000000
00FFC0
00C000
00C000
00C000
00C000
00C000
00C000
00C000
00C000
00C000
ENDCHAR

STARTCHAR jisx0208_2824
ENCODING 10276
SWIDTH 960 0
DWIDTH 18 0
BBX 18 18 0 -2
BITMAP
000000
000000
000000
000000
000000
000000
000000
000000
FFC000
00C000
00C000
00C000
00C000
00C000
00C000
00C000
00C000
00C000
ENDCHAR

STARTCHAR jisx0208_2825
ENCODING 10277
SWIDTH 960 0
DWIDTH 18 0
BBX 18 18 0 -2
BITMAP
00C000
00C000
00C000
00C000
00C000
00C000
00C000
00C000
FFC000
000000
000000
000000
000000
000000
000000
000000
000000
000000
ENDCHAR

STARTCHAR jisx0208_2826
ENCODING 10278
SWIDTH 960 0
DWIDTH 18 0
BBX 18 18 0 -2
BITMAP
00C000
00C000
00C000
00C000
00C000
00C000
00C000
00C000
00FFC0
000000
000000
000000
000000
000000
000000
000000
000000
000000
ENDCHAR

STARTCHAR jisx0208_2827
ENCODING 10279
SWIDTH 960 0
DWIDTH 18 0
BBX 18 18 0 -2
BITMAP
00C000
00C000
00C000
00C000
00C000
00C000
00C000
00C000
00FFC0
00C000
00C000
00C000
00C000
00C000
00C000
00C000
00C000
00C000
ENDCHAR

STARTCHAR jisx0208_2828
ENCODING 10280
SWIDTH 960 0
DWIDTH 18 0
BBX 18 18 0 -2
BITMAP
000000
000000
000000
000000
000000
000000
000000
000000
FFFFC0
00C000
00C000
00C000
00C000
00C000
00C000
00C000
00C000
00C000
ENDCHAR

STARTCHAR jisx0208_2829
ENCODING 10281
SWIDTH 960 0
DWIDTH 18 0
BBX 18 18 0 -2
BITMAP
00C000
00C000
00C000
00C000
00C000
00C000
00C000
00C000
FFC000
00C000
00C000
00C000
00C000
00C000
00C000
00C000
00C000
00C000
ENDCHAR

STARTCHAR jisx0208_282A
ENCODING 10282
SWIDTH 960 0
DWIDTH 18 0
BBX 18 18 0 -2
BITMAP
00C000
00C000
00C000
00C000
00C000
00C000
00C000
00C000
FFFFC0
000000
000000
000000
000000
000000
000000
000000
000000
000000
ENDCHAR

STARTCHAR jisx0208_282B
ENCODING 10283
SWIDTH 960 0
DWIDTH 18 0
BBX 18 18 0 -2
BITMAP
00C000
00C000
00C000
00C000
00C000
00C000
00C000
00C000
FFFFC0
00C000
00C000
00C000
00C000
00C000
00C000
00C000
00C000
00C000
ENDCHAR

STARTCHAR jisx0208_282C
ENCODING 10284
SWIDTH 960 0
DWIDTH 18 0
BBX 18 18 0 -2
BITMAP
000000
000000
000000
000000
000000
000000
000000
000000
FFFFC0
FFFFC0
000000
000000
000000
000000
000000
000000
000000
000000
ENDCHAR

STARTCHAR jisx0208_282D
ENCODING 10285
SWIDTH 960 0
DWIDTH 18 0
BBX 18 18 0 -2
BITMAP
00E000
00E000
00E000
00E000
00E000
00E000
00E000
00E000
00E000
00E000
00E000
00E000
00E000
00E000
00E000
00E000
00E000
00E000
ENDCHAR

STARTCHAR jisx0208_282E
ENCODING 10286
SWIDTH 960 0
DWIDTH 18 0
BBX 18 18 0 -2
BITMAP
000000
000000
000000
000000
000000
000000
000000
000000
00FFC0
00FFC0
00E000
00E000
00E000
00E000
00E000
00E000
00E000
00E000
ENDCHAR

STARTCHAR jisx0208_282F
ENCODING 10287
SWIDTH 960 0
DWIDTH 18 0
BBX 18 18 0 -2
BITMAP
000000
000000
000000
000000
000000
000000
000000
000000
FFE000
FFE000
00E000
00E000
00E000
00E000
00E000
00E000
00E000
00E000
ENDCHAR

STARTCHAR jisx0208_2830
ENCODING 10288
SWIDTH 960 0
DWIDTH 18 0
BBX 18 18 0 -2
BITMAP
00E000
00E000
00E000
00E000
00E000
00E000
00E000
00E000
FFE000
FFE000
000000
000000
000000
000000
000000
000000
000000
000000
ENDCHAR

STARTCHAR jisx0208_2831
ENCODING 10289
SWIDTH 960 0
DWIDTH 18 0
BBX 18 18 0 -2
BITMAP
00E000
00E000
00E000
00E000
00E000
00E000
00E000
00E000
00FFC0
00FFC0
000000
000000
000000
000000
000000
000000
000000
000000
ENDCHAR

STARTCHAR jisx0208_2832
ENCODING 10290
SWIDTH 960 0
DWIDTH 18 0
BBX 18 18 0 -2
BITMAP
00E000
00E000
00E000
00E000
00E000
00E000
00E000
00E000
00FFC0
00FFC0
00E000
00E000
00E000
00E000
00E000
00E000
00E000
00E000
ENDCHAR

STARTCHAR jisx0208_2833
ENCODING 10291
SWIDTH 960 0
DWIDTH 18 0
BBX 18 18 0 -2
BITMAP
000000
000000
000000
000000
000000
000000
000000
000000
FFFFC0
FFFFC0
00E000
00E000
00E000
00E000
00E000
00E000
00E000
00E000
ENDCHAR

STARTCHAR jisx0208_2834
ENCODING 10292
SWIDTH 960 0
DWIDTH 18 0
BBX 18 18 0 -2
BITMAP
00E000
00E000
00E000
00E000
00E000
00E000
00E000
00E000
FFE000
FFE000
00E000
00E000
00E000
00E000
00E000
00E000
00E000
00E000
ENDCHAR

STARTCHAR jisx0208_2835
ENCODING 10293
SWIDTH 960 0
DWIDTH 18 0
BBX 18 18 0 -2
BITMAP
00E000
00E000
00E000
00E000
00E000
00E000
00E000
00E000
FFFFC0
FFFFC0
000000
000000
000000
000000
000000
000000
000000
000000
ENDCHAR

STARTCHAR jisx0208_2836
ENCODING 10294
SWIDTH 960 0
DWIDTH 18 0
BBX 18 18 0 -2
BITMAP
00E000
00E000
00E000
00E000
00E000
00E000
00E000
00E000
FFFFC0
FFFFC0
00E000
00E000
00E000
00E000
00E000
00E000
00E000
00E000
ENDCHAR

STARTCHAR jisx0208_2837
ENCODING 10295
SWIDTH 960 0
DWIDTH 18 0
BBX 18 18 0 -2
BITMAP
00E000
00E000
00E000
00E000
00E000
00E000
00E000
00E000
00FFC0
00E000
00E000
00E000
00E000
00E000
00E000
00E000
00E000
00E000
ENDCHAR

STARTCHAR jisx0208_2838
ENCODING 10296
SWIDTH 960 0
DWIDTH 18 0
BBX 18 18 0 -2
BITMAP
000000
000000
000000
000000
000000
000000
000000
000000
FFFFC0
FFFFC0
00C000
00C000
00C000
00C000
00C000
00C000
00C000
00C000
ENDCHAR

STARTCHAR jisx0208_2839
ENCODING 10297
SWIDTH 960 0
DWIDTH 18 0
BBX 18 18 0 -2
BITMAP
00E000
00E000
00E000
00E000
00E000
00E000
00E000
00E000
FFE000
00E000
00E000
00E000
00E000
00E000
00E000
00E000
00E000
00E000
ENDCHAR

STARTCHAR jisx0208_283A
ENCODING 10298
SWIDTH 960 0
DWIDTH 18 0
BBX 18 18 0 -2
BITMAP
00C000
00C000
00C000
00C000
00C000
00C000
00C000
00C000
FFFFC0
FFFFC0
000000
000000
000000
000000
000000
000000
000000
000000
ENDCHAR

STARTCHAR jisx0208_283B
ENCODING 10299
SWIDTH 960 0
DWIDTH 18 0
BBX 18 18 0 -2
BITMAP
00C000
00C000
00C000
00C000
00C000
00C000
00C000
00C000
FFFFC0
FFFFC0
00C000
00C000
00C000
00C000
00C000
00C000
00C000
00C000
ENDCHAR

STARTCHAR jisx0208_283C
ENCODING 10300
SWIDTH 960 0
DWIDTH 18 0
BBX 18 18 0 -2
BITMAP
00C000
00C000
00C000
00C000
00C000
00C000
00C000
00C000
00FFC0
00FFC0
00C000
00C000
00C000
00C000
00C000
00C000
00C000
00C000
ENDCHAR

STARTCHAR jisx0208_283D
ENCODING 10301
SWIDTH 960 0
DWIDTH 18 0
BBX 18 18 0 -2
BITMAP
000000
000000
000000
000000
000000
000000
000000
000000
FFFFC0
00E000
00E000
00E000
00E000
00E000
00E000
00E000
00E000
00E000
ENDCHAR

STARTCHAR jisx0208_283E
ENCODING 10302
SWIDTH 960 0
DWIDTH 18 0
BBX 18 18 0 -2
BITMAP
00C000
00C000
00C000
00C000
00C000
00C000
00C000
00C000
FFC000
FFC000
00C000
00C000
00C000
00C000
00C000
00C000
00C000
00C000
ENDCHAR

STARTCHAR jisx0208_283F
ENCODING 10303
SWIDTH 960 0
DWIDTH 18 0
BBX 18 18 0 -2
BITMAP
00E000
00E000
00E000
00E000
00E000
00E000
00E000
00E000
FFFFC0
000000
000000
000000
000000
000000
000000
000000
000000
000000
ENDCHAR

STARTCHAR jisx0208_2840
ENCODING 10304
SWIDTH 960 0
DWIDTH 18 0
BBX 18 18 0 -2
BITMAP
00E000
00E000
00E000
00E000
00E000
00E000
00E000
00E000
FFFFC0
00E000
00E000
00E000
00E000
00E000
00E000
00E000
00E000
00E000
ENDCHAR

STARTCHAR jisx0208_2D21
ENCODING 11553
SWIDTH 960 0
DWIDTH 18 0
BBX 18 18 0 -2
BITMAP
000000
07F000
1C1C00
30C600
63C300
60C300
C0C180
C0C180
C0C180
C0C180
C0C180
C0C180
60C300
63F300
300600
1C1C00
07F000
000000
ENDCHAR

STARTCHAR jisx0208_2D22
ENCODING 11554
SWIDTH 960 0
DWIDTH 18 0
BBX 18 18 0 -2
BITMAP
000000
07F000
1C1C00
300600
63E300
663300
CC1980
CE1980
C03180
C0E180
C38180
C61980
6C1B00
6FFB00
300600
1C1C00
07F000
000000
ENDCHAR

STARTCHAR jisx0208_2D23
ENCODING 11555
SWIDTH 960 0
DWIDTH 18 0
BBX 18 18 0 -2
BITMAP
000000
07F000
1C1C00
300600
63E300
663300
CE1980
C03180
C1E180
C03180
C01980
CE1980
663300
63E300
300600
1C1C00
07F000
000000
ENDCHAR

STARTCHAR jisx0208_2D24
ENCODING 11556
SWIDTH 960 0
DWIDTH 18 0
BBX 18 18 0 -2
BITMAP
000000
07F000
1C1C00
300600
60E300
60E300
C16180
C36180
C66180
C66180
CC5980
DFF980
606300
60F300
300600
1C1C00
07F000
000000
ENDCHAR

STARTCHAR jisx0208_2D25
ENCODING 11557
SWIDTH 960 0
DWIDTH 18 0
BBX 18 18 0 -2
BITMAP
000000
07F000
1C1C00
300600
6FF300
6C0300
CC0180
CBE180
CE3180
CC1980
C01980
CE1980
663300
63E300
300600
1C1C00
07F000
000000
ENDCHAR

STARTCHAR jisx0208_2D26
ENCODING 11558
SWIDTH 960 0
DWIDTH 18 0
BBX 18 18 0 -2
BITMAP
000000
07F000
1C1C00
300600
63E300
663300
CC3980
CBE180
CE3180
CC1980
CC1980
CC1980
663300
63E300
300600
1C1C00
07F000
000000
ENDCHAR

STARTCHAR jisx0208_2D27
ENCODING 11559
SWIDTH 960 0
DWIDTH 18 0
BBX 18 18 0 -2
BITMAP
000000
07F000
1C1C00
300600
6FFB00
6C3300
CC6180
C06180
C0C180
C0C180
C0C180
C18180
618300
618300
300600
1C1C00
07F000
000000
ENDCHAR

STARTCHAR jisx0208_2D28
ENCODING 11560
SWIDTH 960 0
DWIDTH 18 0
BBX 18 18 0 -2
BITMAP
000000
07F000
1C1C00
300600
63E300
663300
CC1980
C63180
C3E180
C63180
CC1980
CC1980
663300
63E300
300600
1C1C00
07F000
000000
ENDCHAR

STARTCHAR jisx0208_2D29
ENCODING 11561
SWIDTH 960 0
DWIDTH 18 0
BBX 18 18 0 -2
BITMAP
000000
07F000
1C1C00
300600
63E300
663300
CC1980
CC1980
CC1980
C63980
C3D980
CE1980
663300
63E300
300600
1C1C00
07F000
000000
ENDCHAR

STARTCHAR jisx0208_2D2A
ENCODING 11562
SWIDTH 960 0
DWIDTH 18 0
BBX 18 18 0 -2
BITMAP
000000
07F000
1C1C00
300600
6CFB00
5D8B00
CD8D80
CD8D80
CD8D80
CD8D80
CD8D80
CD8D80
6D8B00
5EFB00
300600
1C1C00
07F000
000000
ENDCHAR

STARTCHAR jisx0208_2D2B
ENCODING 11563
SWIDTH 960 0
DWIDTH 18 0
BBX 18 18 0 -2
BITMAP
000000
07F000
1C1C00
300600
6C1B00
5C3B00
CC1980
CC1980
CC1980
CC1980
CC1980
CC1980
6C1B00
5E3B00
300600
1C1C00
07F000
000000
ENDCHAR

STARTCHAR jisx0208_2D2C
ENCODING 11564
SWIDTH 960 0
DWIDTH 18 0
BBX 18 18 0 -2
BITMAP
000000
07F000
1C1C00
300600
6CFB00
5D8B00
CD8D80
CDCD80
CC1980
CC3180
CC6180
CCCD80
6D8B00
5DFB00
300600
1C1C00
07F000
000000
ENDCHAR

STARTCHAR jisx0208_2D2D
ENCODING 11565
SWIDTH 960 0
DWIDTH 18 0
BBX 18 18 0 -2
BITMAP
000000
07F000
1C1C00
300600
6CFB00
5D8B00
CDCD80
CC0D80
CC7980
CC0D80
CC0D80
CDCD80
6D8B00
5EFB00
300600
1C1C00
07F000
000000
ENDCHAR

STARTCHAR jisx0208_2D2E
ENCODING 11566
SWIDTH 960 0
DWIDTH 18 0
BBX 18 18 0 -2
BITMAP
000000
07F000
1C1C00
300600
6C1B00
5C3B00
CC3980
CC5980
CCD980
CCD980
CD9580
CBFD80
6C1B00
5E3B00
300600
1C1C00
07F000
000000
ENDCHAR

STARTCHAR jisx0208_2D2F
ENCODING 11567
SWIDTH 960 0
DWIDTH 18 0
BBX 18 18 0 -2
BITMAP
000000
07F000
1C1C00
300600
6DFB00
5D8300
CD8180
CDF980
CD8D80
CC0D80
CC0D80
CDCD80
6D8B00
5EFB00
300600
1C1C00
07F000
000000
ENDCHAR

STARTCHAR jisx0208_2D30
ENCODING 11568
SWIDTH 960 0
DWIDTH 18 0
BBX 18 18 0 -2
BITMAP
000000
07F000
1C1C00
300600
6CFB00
5D9B00
CD8180
CDF980
CD8D80
CD8D80
CD8D80
CD8D80
6D8B00
5EFB00
300600
1C1C00
07F000
000000
ENDCHAR

STARTCHAR jisx0208_2D31
ENCODING 11569
SWIDTH 960 0
DWIDTH 18 0
BBX 18 18 0 -2
BITMAP
000000
07F000
1C1C00
300600
6DFB00
5D8B00
CD8D80
CC1980
CC1980
CC3180
CC3180
CC3180
6C3300
5E3300
300600
1C1C00
07F000
000000
ENDCHAR

STARTCHAR jisx0208_2D32
ENCODING 11570
SWIDTH 960 0
DWIDTH 18 0
BBX 18 18 0 -2
BITMAP
000000
07F000
1C1C00
300600
6CFB00
5D8B00
CD8D80
CD8D80
CCF980
CD8D80
CD8D80
CD8D80
6D8B00
5EFB00
300600
1C1C00
07F000
000000
ENDCHAR

STARTCHAR jisx0208_2D33
ENCODING 11571
SWIDTH 960 0
DWIDTH 18 0
BBX 18 18 0 -2
BITMAP
000000
07F000
1C1C00
300600
6CFB00
5D8B00
CD8D80
CD8D80
CD8D80
CD8D80
CCFD80
CC0D80
6DCB00
5EFB00
300600
1C1C00
07F000
000000
ENDCHAR

STARTCHAR jisx0208_2D34
ENCODING 11572
SWIDTH 960 0
DWIDTH 18 0
BBX 18 18 0 -2
BITMAP
000000
07F000
1C1C00
300600
6F3B00
596700
D96580
DD6580
C36580
C66580
CC6580
D96580
596700
5FBB00
300600
1C1C00
07F000
000000
ENDCHAR

STARTCHAR jisx0208_2D35
ENCODING 11573
SWIDTH 960 0
DWIDTH 18 0
BBX 18 18 0 -2
BITMAP
000000
000000
07E000
018000
018000
018000
018000
018000
018000
018000
018000
018000
018000
018000
018000
07E000
000000
000000
ENDCHAR

STARTCHAR jisx0208_2D36
ENCODING 11574
SWIDTH 960 0
DWIDTH 18 0
BBX 18 18 0 -2
BITMAP
000000
000000
3FFC00
0C3000
0C3000
0C3000
0C3000
0C3000
0C3000
0C3000
0C3000
0C3000
0C3000
0C3000
0C3000
3FFC00
000000
000000
ENDCHAR

STARTCHAR jisx0208_2D37
ENCODING 11575
SWIDTH 960 0
DWIDTH 18 0
BBX 18 18 0 -2
BITMAP
000000
000000
7FFE00
199800
199800
199800
199800
199800
199800
199800
199800
199800
199800
199800
199800
7FFE00
000000
000000
ENDCHAR

STARTCHAR jisx0208_2D38
ENCODING 11576
SWIDTH 960 0
DWIDTH 18 0
BBX 18 18 0 -2
BITMAP
000000
000000
FF9F80
360600
360600
330C00
330C00
330C00
319800
319800
319800
30B000
30B000
30B000
306000
FC6000
000000
000000
ENDCHAR

STARTCHAR jisx0208_2D39
ENCODING 11577
SWIDTH 960 0
DWIDTH 18 0
BBX 18 18 0 -2
BITMAP
000000
000000
FC3F00
300C00
300C00
181800
181800
0C3000
0C3000
0C3000
066000
066000
02C000
02C000
018000
018000
000000
000000
ENDCHAR

STARTCHAR jisx0208_2D3A
ENCODING 11578
SWIDTH 960 0
DWIDTH 18 0
BBX 18 18 0 -2
BITMAP
000000
000000
FCFF80
303600
303600
186600
186600
186600
0CC600
0CC600
0CC600
058600
058600
058600
030600
031F80
000000
000000
ENDCHAR

STARTCHAR jisx0208_2D3B
ENCODING 11579
SWIDTH 960 0
DWIDTH 18 0
BBX 18 18 0 -2
BITMAP
000000
000000
F3FF80
61B300
61B300
61B300
333300
333300
333300
333300
163300
163300
163300
0C3300
0C3300
0C7F80
000000
000000
ENDCHAR

STARTCHAR jisx0208_2D3C
ENCODING 11580
SWIDTH 960 0
DWIDTH 18 0
BBX 18 18 0 -2
BITMAP
000000
000000
EFFF80
66DB00
66DB00
66DB00
66DB00
66DB00
66DB00
2CDB00
2CDB00
2CDB00
2CDB00
18DB00
18DB00
19FF80
000000
000000
ENDCHAR

STARTCHAR jisx0208_2D3D
ENCODING 11581
SWIDTH 960 0
DWIDTH 18 0
BBX 18 18 0 -2
BITMAP
000000
000000
FF9F00
330C00
330C00
319800
30B000
30B000
306000
306000
30B000
30B000
319800
330C00
330C00
FF9F00
000000
000000
ENDCHAR

STARTCHAR jisx0208_2D3E
ENCODING 11582
SWIDTH 960 0
DWIDTH 18 0
BBX 18 18 0 -2
BITMAP
000000
000000
7E7E00
181800
0C3000
066000
066000
02C000
018000
018000
02C000
066000
066000
0C3000
181800
7E7E00
000000
000000
ENDCHAR

STARTCHAR jisx0208_2D40
ENCODING 11584
SWIDTH 960 0
DWIDTH 18 0
BBX 18 18 0 -2
BITMAP
000000
3C0000
060000
000000
3C0000
060000
000000
7C0000
070000
007700
003300
003300
003300
003300
000300
000600
001C00
000000
ENDCHAR

STARTCHAR jisx0208_2D41
ENCODING 11585
SWIDTH 960 0
DWIDTH 18 0
BBX 18 18 0 -2
BITMAP
000000
380000
180000
FF0000
180000
FF0000
0C0000
0C0000
0C0000
00C600
00FF00
00C600
00C600
00C600
00FF00
00C000
000000
000000
ENDCHAR

STARTCHAR jisx0208_2D42
ENCODING 11586
SWIDTH 960 0
DWIDTH 18 0
BBX 18 18 0 -2
BITMAP
000000
706000
333000
3F8180
F30300
360600
306C00
3F7800
000000
0E0000
780000
180000
FF0000
180000
180000
300000
600000
000000
ENDCHAR

STARTCHAR jisx0208_2D43
ENCODING 11587
SWIDTH 960 0
DWIDTH 18 0
BBX 18 18 0 -2
BITMAP
000000
070000
030000
360000
0CC000
167F00
300000
E00000
000000
701C00
306C00
302C00
3C2C00
362D80
302B00
306E00
30CC00
000000
ENDCHAR

STARTCHAR jisx0208_2D44
ENCODING 11588
SWIDTH 960 0
DWIDTH 18 0
BBX 18 18 0 -2
BITMAP
000000
75BF00
3D8000
667F80
C60180
0C0180
180300
300600
E01C00
180000
0C0000
180000
180000
360000
330000
6F8000
F98000
000000
ENDCHAR

STARTCHAR jisx0208_2D45
ENCODING 11589
SWIDTH 960 0
DWIDTH 18 0
BBX 18 18 0 -2
BITMAP
000000
700000
300000
300000
3C0000
360000
300000
300000
300000
00E000
003180
000300
000600
000C00
00D800
00F000
000000
000000
ENDCHAR

STARTCHAR jisx0208_2D46
ENCODING 11590
SWIDTH 960 0
DWIDTH 18 0
BBX 18 18 0 -2
BITMAP
000000
030000
FF8000
030000
366000
1C3F80
180000
300000
600000
1C0000
6C0000
2C0000
2C0000
2D8000
2B0000
6E0000
CC0000
000000
ENDCHAR

STARTCHAR jisx0208_2D47
ENCODING 11591
SWIDTH 960 0
DWIDTH 18 0
BBX 18 18 0 -2
BITMAP
000000
003B00
181F80
AC3300
E66300
030600
018C00
001800
007000
760E00
3F3600
661600
C61600
2DD580
181580
2C3700
E03600
000000
ENDCHAR

STARTCHAR jisx0208_2D48
ENCODING 11592
SWIDTH 960 0
DWIDTH 18 0
BBX 18 18 0 -2
BITMAP
000000
EE0000
660000
665600
665600
060600
0C0C00
383800
000000
701C00
306C00
302C00
3C2C00
362D80
302B00
306E00
30CC00
000000
ENDCHAR

STARTCHAR jisx0208_2D49
ENCODING 11593
SWIDTH 960 0
DWIDTH 18 0
BBX 18 18 0 -2
BITMAP
000000
E30000
7F8000
632B00
632B00
630300
060600
1C1C00
000000
380000
180000
180000
1E0000
1B0000
180000
180000
180000
000000
ENDCHAR

STARTCHAR jisx0208_2D4A
ENCODING 11594
SWIDTH 960 0
DWIDTH 18 0
BBX 18 18 0 -2
BITMAP
000000
700000
336300
FF7F80
336300
336300
336300
6F7F80
C66000
000000
EE0000
660000
666000
663F80
060000
0C0000
380000
000000
ENDCHAR

STARTCHAR jisx0208_2D4B
ENCODING 11595
SWIDTH 960 0
DWIDTH 18 0
BBX 18 18 0 -2
BITMAP
000000
6B0000
2B0000
300000
3C0000
360000
300000
300000
300000
001C00
006C00
002C00
002C00
002D80
002B00
006E00
00CC00
000000
ENDCHAR

STARTCHAR jisx0208_2D4C
ENCODING 11596
SWIDTH 960 0
DWIDTH 18 0
BBX 18 18 0 -2
BITMAP
000000
706000
333000
3F8180
F30300
360600
306C00
3F7800
000000
380000
180000
180000
1E0000
1B0000
180000
180000
180000
000000
ENDCHAR

STARTCHAR jisx0208_2D4D
ENCODING 11597
SWIDTH 960 0
DWIDTH 18 0
BBX 18 18 0 -2
BITMAP
000000
030000
6D8000
370000
366000
633F80
630000
C30000
000000
E30E00
6D8600
7E3600
EC3700
583580
606600
62C600
7B8600
000000
ENDCHAR

STARTCHAR jisx0208_2D4E
ENCODING 11598
SWIDTH 960 0
DWIDTH 18 0
BBX 18 18 0 -2
BITMAP
000000
787700
0C3300
783300
0C3300
000300
F80600
0E1C00
000000
0B0E00
DB3600
581600
6C1600
6BD580
6C1580
CC3700
CC3600
000000
ENDCHAR

STARTCHAR jisx0208_2D4F
ENCODING 11599
SWIDTH 960 0
DWIDTH 18 0
BBX 18 18 0 -2
BITMAP
000000
030000
058000
1B0000
AC6000
E63F80
030000
018000
000000
058000
658000
300000
C18000
630000
060000
6C0000
780000
000000
ENDCHAR

STARTCHAR jisx0208_2D50
ENCODING 11600
SWIDTH 960 0
DWIDTH 18 0
BBX 18 18 0 -2
BITMAP
000000
000000
000000
000000
000000
000000
777700
ED6D80
6D6D80
6D6D80
6D6D80
6D6D80
6D6D80
6D6D80
6D6D80
EB6B80
000000
000000
ENDCHAR

STARTCHAR jisx0208_2D51
ENCODING 11601
SWIDTH 960 0
DWIDTH 18 0
BBX 18 18 0 -2
BITMAP
000000
000000
000000
000000
000000
000000
38EE00
6DDB00
C6DB00
CEDB00
C0DB00
C0DB00
C6DB00
C6DB00
6CDB00
39D780
000000
000000
ENDCHAR

STARTCHAR jisx0208_2D52
ENCODING 11602
SWIDTH 960 0
DWIDTH 18 0
BBX 18 18 0 -2
BITMAP
000000
000000
600000
E00000
600000
600000
6F7700
66ED80
6C6D80
586D80
786D80
6C6D80
6C6D80
666D80
666D80
EEEB80
000000
000000
ENDCHAR

STARTCHAR jisx0208_2D53
ENCODING 11603
SWIDTH 960 0
DWIDTH 18 0
BBX 18 18 0 -2
BITMAP
000000
000000
000000
000000
000000
000000
771D80
EDB380
6DB300
6DB300
6DB300
6D9E00
6DB000
6DBF00
6D6180
EB6180
003F00
000000
ENDCHAR

STARTCHAR jisx0208_2D54
ENCODING 11604
SWIDTH 960 0
DWIDTH 18 0
BBX 18 18 0 -2
BITMAP
000000
000000
600000
E00000
600000
600000
6F3B80
666580
6C6600
586600
786600
6C3C00
6C6000
667E00
66C300
EEC300
007E00
000000
ENDCHAR

STARTCHAR jisx0208_2D55
ENCODING 11605
SWIDTH 960 0
DWIDTH 18 0
BBX 18 18 0 -2
BITMAP
000000
000000
000000
000000
000000
000000
1C1C00
363600
636300
676700
606000
606000
636300
636300
363600
1C1C00
000000
000000
ENDCHAR

STARTCHAR jisx0208_2D56
ENCODING 11606
SWIDTH 960 0
DWIDTH 18 0
BBX 18 18 0 -2
BITMAP
000000
000700
000D80
000300
000600
000F80
2F7800
F9CC00
318C00
318C00
318C00
318C00
318C00
318C00
318C00
F7DF00
000000
000000
ENDCHAR

STARTCHAR jisx0208_2D5F
ENCODING 11615
SWIDTH 960 0
DWIDTH 18 0
BBX 18 18 0 -2
BITMAP
000000
030B00
FF0D80
18CC00
D6FF80
56CC00
56CC00
56AB80
5CEB00
1AAB00
FEAB00
18AB00
18B600
18B580
18ED80
199B80
19B180
000000
ENDCHAR

STARTCHAR jisx0208_2D60
ENCODING 11616
SWIDTH 960 0
DWIDTH 18 0
BBX 18 18 0 -2
BITMAP
000000
000B00
000B00
001600
001600
000000
000000
000000
000000
000000
000000
000000
000000
000000
000000
000000
000000
000000
ENDCHAR

STARTCHAR jisx0208_2D61
ENCODING 11617
SWIDTH 960 0
DWIDTH 18 0
BBX 18 18 0 -2
BITMAP
000000
000000
000000
000000
000000
000000
000000
000000
000000
000000
000000
000000
000000
2C0000
2C0000
580000
580000
000000
ENDCHAR

STARTCHAR jisx0208_2D62
ENCODING 11618
SWIDTH 960 0
DWIDTH 18 0
BBX 18 18 0 -2
BITMAP
000000
000000
E78000
630000
730000
730000
5B3800
5B6C00
5AC600
6AC600
6AC600
6AC600
66C600
66C600
636D80
F33980
000000
000000
ENDCHAR

STARTCHAR jisx0208_2D63
ENCODING 11619
SWIDTH 960 0
DWIDTH 18 0
BBX 18 18 0 -2
BITMAP
000000
000000
EEEE00
6C6C00
6C6C00
585800
585800
707000
707000
585800
585800
585800
6C6C00
6C6C00
6D6D80
ED6D80
000000
000000
ENDCHAR

STARTCHAR jisx0208_2D64
ENCODING 11620
SWIDTH 960 0
DWIDTH 18 0
BBX 18 18 0 -2
BITMAP
000000
000000
7DEE00
55AC00
55AC00
198C00
196C00
196C00
19EC00
196C00
196C00
198C00
198C00
19AD80
19AD80
3DEF80
000000
000000
ENDCHAR

STARTCHAR jisx0208_2D65
ENCODING 11621
SWIDTH 960 0
DWIDTH 18 0
BBX 18 18 0 -2
BITMAP
000000
07F000
1C1C00
31C600
618300
618300
C19980
C1F980
C18180
C18180
C18180
C18D80
5FFB00
600300
300600
1C1C00
07F000
000000
ENDCHAR

STARTCHAR jisx0208_2D66
ENCODING 11622
SWIDTH 960 0
DWIDTH 18 0
BBX 18 18 0 -2
BITMAP
000000
07F000
1C1C00
31C600
618300
599B00
DFFD80
D99980
D99980
D99980
DFF980
D99980
618300
618300
318600
1C1C00
07F000
000000
ENDCHAR

STARTCHAR jisx0208_2D67
ENCODING 11623
SWIDTH 960 0
DWIDTH 18 0
BBX 18 18 0 -2
BITMAP
000000
07F000
1C1C00
300600
600B00
5FFB00
C18180
C18180
C1E180
C1B180
C19980
C18180
618300
618300
318600
1C1C00
07F000
000000
ENDCHAR

STARTCHAR jisx0208_2D68
ENCODING 11624
SWIDTH 960 0
DWIDTH 18 0
BBX 18 18 0 -2
BITMAP
000000
07F000
1C1C00
338600
630B00
5FFB00
C60180
C61980
CFF980
CCC180
D8C180
B0C180
60CB00
6FFB00
300600
1C1C00
07F000
000000
ENDCHAR

STARTCHAR jisx0208_2D69
ENCODING 11625
SWIDTH 960 0
DWIDTH 18 0
BBX 18 18 0 -2
BITMAP
000000
07F000
1C1C00
338600
630B00
5FFB00
C60180
C61980
CFFD80
CE1980
D61980
B61980
67FB00
661B00
300600
1C1C00
07F000
000000
ENDCHAR

STARTCHAR jisx0208_2D6A
ENCODING 11626
SWIDTH 960 0
DWIDTH 18 0
BBX 18 18 0 -2
BITMAP
000000
300600
6E7300
6D6300
CD6D80
BDFD80
CB6180
CC6580
DBFD80
DE6180
ACF180
AD5980
CD6D80
CB6580
6C6300
6C6300
300600
000000
ENDCHAR

STARTCHAR jisx0208_2D6B
ENCODING 11627
SWIDTH 960 0
DWIDTH 18 0
BBX 18 18 0 -2
BITMAP
000000
300600
638300
630700
BFFD80
C60180
C61980
CFFD80
CE1980
D7F980
B61980
C7F980
C61980
C61980
661B00
667B00
300600
000000
ENDCHAR

STARTCHAR jisx0208_2D6C
ENCODING 11628
SWIDTH 960 0
DWIDTH 18 0
BBX 18 18 0 -2
BITMAP
000000
300600
675B00
666B00
C66180
CC6D80
CC7D80
DBE180
DC6180
AC6180
CC6180
CC3180
CC2D80
CC2D80
6C1B00
6C0B00
300600
000000
ENDCHAR

STARTCHAR jisx0208_2D6D
ENCODING 11629
SWIDTH 960 0
DWIDTH 18 0
BBX 18 18 0 -2
BITMAP
000000
0ACE00
AF6C00
EB6C00
AB8B00
AAD980
AEBB80
EB3D80
AB3180
AB5B00
AF5F80
EBDB00
AB5B00
0B5B00
1B5B00
1B5F00
175B00
000000
ENDCHAR

STARTCHAR jisx0208_2D6E
ENCODING 11630
SWIDTH 960 0
DWIDTH 18 0
BBX 18 18 0 -2
BITMAP
000000
1C0300
187F00
180C00
1B0C00
FF0C00
180C00
186B00
186F00
2C6C00
2C6C00
2C6C00
2C6C00
666C00
666C00
666D80
C2FF80
000000
ENDCHAR

STARTCHAR jisx0208_2D6F
ENCODING 11631
SWIDTH 960 0
DWIDTH 18 0
BBX 18 18 0 -2
BITMAP
000000
033800
BFE000
EB6D80
AB6F80
AB6D80
ABFD80
B76D80
F06D80
AAED80
AEED80
AB5D80
AB6D80
EB6D80
AB6F80
0F6D80
0B6000
000000
ENDCHAR

STARTCHAR jisx0208_2D70
ENCODING 11632
SWIDTH 960 0
DWIDTH 18 0
BBX 18 18 0 -2
BITMAP
000000
000000
000000
0E0000
0E0000
000000
3FFE00
000000
000000
000000
3FFE00
000000
003800
003800
000000
000000
000000
000000
ENDCHAR

STARTCHAR jisx0208_2D71
ENCODING 11633
SWIDTH 960 0
DWIDTH 18 0
BBX 18 18 0 -2
BITMAP
000000
000000
000000
000000
3FFE00
000000
000000
000000
3FFE00
000000
000000
000000
3FFE00
000000
000000
000000
000000
000000
ENDCHAR

STARTCHAR jisx0208_2D72
ENCODING 11634
SWIDTH 960 0
DWIDTH 18 0
BBX 18 18 0 -2
BITMAP
000000
01E000
033000
037000
037000
030000
030000
018000
018000
018000
018000
00C000
00C000
0EC000
0EC000
0CC000
078000
000000
ENDCHAR

STARTCHAR jisx0208_2D73
ENCODING 11635
SWIDTH 960 0
DWIDTH 18 0
BBX 18 18 0 -2
BITMAP
000000
01E000
033000
037000
037000
030000
03C000
056000
0DB000
0DB000
056000
03C000
00C000
0EC000
0EC000
0CC000
078000
000000
ENDCHAR

STARTCHAR jisx0208_2D74
ENCODING 11636
SWIDTH 960 0
DWIDTH 18 0
BBX 18 18 0 -2
BITMAP
000000
000000
3FF800
181800
0C0C00
060C00
030000
018000
00C000
018000
030000
060000
0C0600
180600
300C00
3FFC00
000000
000000
ENDCHAR

STARTCHAR jisx0208_2D75
ENCODING 11637
SWIDTH 960 0
DWIDTH 18 0
BBX 18 18 0 -2
BITMAP
000000
00FF80
00C000
00C000
018000
018000
018000
030000
030000
030000
360000
760000
D60000
1C0000
0C0000
0C0000
000000
000000
ENDCHAR

STARTCHAR jisx0208_2D76
ENCODING 11638
SWIDTH 960 0
DWIDTH 18 0
BBX 18 18 0 -2
BITMAP
000000
000000
000000
018000
018000
018000
018000
018000
018000
018000
018000
018000
018000
018000
7FFE00
000000
000000
000000
ENDCHAR

STARTCHAR jisx0208_2D77
ENCODING 11639
SWIDTH 960 0
DWIDTH 18 0
BBX 18 18 0 -2
BITMAP
000000
000000
000000
000600
000C00
001800
003000
006000
00C000
018000
030000
060000
0C0000
180000
3FFE00
000000
000000
000000
ENDCHAR

STARTCHAR jisx0208_2D78
ENCODING 11640
SWIDTH 960 0
DWIDTH 18 0
BBX 18 18 0 -2
BITMAP
000000
000000
000000
300000
300000
300000
300000
300000
300000
300000
300000
300000
300000
300000
3FFE00
000000
000000
000000
ENDCHAR

STARTCHAR jisx0208_2D79
ENCODING 11641
SWIDTH 960 0
DWIDTH 18 0
BBX 18 18 0 -2
BITMAP
000000
000000
000000
000600
000E00
001600
003600
006600
00C600
018600
030600
060600
0C0600
180600
3FFE00
000000
000000
000000
ENDCHAR

STARTCHAR jisx0208_2D7A
ENCODING 11642
SWIDTH 960 0
DWIDTH 18 0
BBX 18 18 0 -2
BITMAP
000000
000000
000000
000000
380E00
380E00
000000
000000
000000
000000
000000
000000
01C000
01C000
000000
000000
000000
000000
ENDCHAR

STARTCHAR jisx0208_2D7B
ENCODING 11643
SWIDTH 960 0
DWIDTH 18 0
BBX 18 18 0 -2
BITMAP
000000
000000
000000
03E000
0E3800
0C1800
180C00
180C00
180C00
180C00
180C00
180C00
180C00
180C00
180C00
000000
000000
000000
ENDCHAR

STARTCHAR jisx0208_2D7C
ENCODING 11644
SWIDTH 960 0
DWIDTH 18 0
BBX 18 18 0 -2
BITMAP
000000
000000
000000
180C00
180C00
180C00
180C00
180C00
180C00
180C00
180C00
180C00
0C1800
0E3800
03E000
000000
000000
000000
ENDCHAR

STARTCHAR jisx0208_3021
ENCODING 12321
SWIDTH 960 0
DWIDTH 18 0
BBX 18 18 0 -2
BITMAP
000000
000000
7FFF80
033000
033000
033000
3FFF00
333300
333300
333300
333300
3FFF00
333300
033000
033000
033000
7FFF80
000000
ENDCHAR

STARTCHAR jisx0208_3022
ENCODING 12322
SWIDTH 960 0
DWIDTH 18 0
BBX 18 18 0 -2
BITMAP
000000
000000
03FFC0
7C6C00
6C6C00
6C6C00
6BFF80
6B6D80
6B6D80
6B6D80
6B6D80
6BFF80
7B6D80
606C00
606C00
006C00
07FFC0
000000
ENDCHAR

STARTCHAR jisx0208_3023
ENCODING 12323
SWIDTH 960 0
DWIDTH 18 0
BBX 18 18 0 -2
BITMAP
000000
180C00
180C00
187F80
7F0C00
1B0C00
1B0C00
32FFC0
330000
360C00
660C00
760C00
6E7F80
0B0C00
198C00
300C00
60FFC0
000000
ENDCHAR

STARTCHAR jisx0208_3024
ENCODING 12324
SWIDTH 960 0
DWIDTH 18 0
BBX 18 18 0 -2
BITMAP
000000
000000
7DFFC0
660300
660300
6C0300
6CFB00
58DB00
6CDB00
66DB00
66DB00
66DB00
66FB00
5CDB00
60C300
600300
600F00
000000
ENDCHAR

STARTCHAR jisx0208_3025
ENCODING 12325
SWIDTH 960 0
DWIDTH 18 0
BBX 18 18 0 -2
BITMAP
000000
00C000
00C000
7FFF80
000000
000000
0FFC00
0C0C00
0C0C00
0FFC00
016300
033600
0E2C00
761800
06EC00
078600
1E0380
000000
ENDCHAR

STARTCHAR jisx0208_3026
ENCODING 12326
SWIDTH 960 0
DWIDTH 18 0
BBX 18 18 0 -2
BITMAP
000000
007E00
3FC000
0D8C00
06D800
7FFF80
60C180
666580
161B00
17FB00
330000
07F800
0B1800
39B000
00E000
07B800
3C0F00
000000
ENDCHAR

STARTCHAR jisx0208_3027
ENCODING 12327
SWIDTH 960 0
DWIDTH 18 0
BBX 18 18 0 -2
BITMAP
000000
183000
183600
186300
7E6F80
19F980
186000
186000
1EFF80
799800
181800
1BFFC0
181800
182C00
186600
18C300
3B81C0
000000
ENDCHAR

STARTCHAR jisx0208_3028
ENCODING 12328
SWIDTH 960 0
DWIDTH 18 0
BBX 18 18 0 -2
BITMAP
000000
180C00
181600
183300
7F6180
1AC0C0
1B0000
337F80
330000
330000
667F80
766180
6E6180
0B6180
196180
307F80
606180
000000
ENDCHAR

STARTCHAR jisx0208_3029
ENCODING 12329
SWIDTH 960 0
DWIDTH 18 0
BBX 18 18 0 -2
BITMAP
000000
306000
187E00
0CE600
01AC00
003C00
00E700
0399C0
78FF00
181800
18FF00
181800
19FF80
181800
1C1800
360000
63FFC0
000000
ENDCHAR

STARTCHAR jisx0208_302A
ENCODING 12330
SWIDTH 960 0
DWIDTH 18 0
BBX 18 18 0 -2
BITMAP
000000
033000
7FFF80
033000
000000
3F6C00
033800
161B00
0C0E00
17F600
70C380
00C000
3FFF00
016000
033000
0E1C00
380700
000000
ENDCHAR

STARTCHAR jisx0208_302B
ENCODING 12331
SWIDTH 960 0
DWIDTH 18 0
BBX 18 18 0 -2
BITMAP
000000
063000
063000
7FFF80
063000
000000
7FFF80
036000
036000
3FFF00
336300
336300
366B00
2C7B00
300300
3FFF00
300300
000000
ENDCHAR

STARTCHAR jisx0208_302C
ENCODING 12332
SWIDTH 960 0
DWIDTH 18 0
BBX 18 18 0 -2
BITMAP
000000
0E3000
787E00
18CC00
19FF00
7EDB00
18FF00
18DB00
3CFF00
361800
59FF80
599980
19FF80
199980
19FF80
1998C0
181FC0
000000
ENDCHAR

STARTCHAR jisx0208_302D
ENCODING 12333
SWIDTH 960 0
DWIDTH 18 0
BBX 18 18 0 -2
BITMAP
000000
000000
3FFF80
01B000
01B000
1FFF00
19B300
19B300
1FFF00
01B000
01B000
7FFFC0
000000
06C000
366180
360CC0
63FCC0
000000
ENDCHAR

STARTCHAR jisx0208_302E
ENCODING 12334
SWIDTH 960 0
DWIDTH 18 0
BBX 18 18 0 -2
BITMAP
000000
180000
19FF80
198180
7D8180
19FF80
198000
19FF80
199800
1DB300
797F80
198C00
198C00
197F80
1B0C00
1B0C00
36FFC0
000000
ENDCHAR

STARTCHAR jisx0208_302F
ENCODING 12335
SWIDTH 960 0
DWIDTH 18 0
BBX 18 18 0 -2
BITMAP
000000
300000
1BFF80
0B0180
030180
63FF80
330000
1BFFC0
033000
036300
1AFF80
1B1800
331800
32FF80
361800
661800
6DFFC0
000000
ENDCHAR

STARTCHAR jisx0208_3030
ENCODING 12336
SWIDTH 960 0
DWIDTH 18 0
BBX 18 18 0 -2
BITMAP
000000
180000
187F00
186300
7F6300
1B6300
1B6300
1B7F00
1B6300
1B6300
1B6300
1B6300
337F00
336000
3360C0
6300C0
61FFC0
000000
ENDCHAR

STARTCHAR jisx0208_3031
ENCODING 12337
SWIDTH 960 0
DWIDTH 18 0
BBX 18 18 0 -2
BITMAP
000000
031800
7FFFC0
031800
00C000
1FFE00
018600
3FFF80
000000
0FFE00
0C0600
0FFE00
006000
1FFF00
186000
7FFFC0
006000
000000
ENDCHAR

STARTCHAR jisx0208_3032
ENCODING 12338
SWIDTH 960 0
DWIDTH 18 0
BBX 18 18 0 -2
BITMAP
000000
031800
031800
7FFFC0
031800
000000
3FFF80
000000
000000
1FFF00
180300
180300
1FFF00
180300
300000
300000
600000
000000
ENDCHAR

STARTCHAR jisx0208_3033
ENCODING 12339
SWIDTH 960 0
DWIDTH 18 0
BBX 18 18 0 -2
BITMAP
000000
181800
1E1B00
363180
2C3780
7EFCC0
2B1800
2AFFC0
3F3600
2B6300
2AC5C0
3F1C00
007300
558EC0
557980
560700
607C00
000000
ENDCHAR

STARTCHAR jisx0208_3034
ENCODING 12340
SWIDTH 960 0
DWIDTH 18 0
BBX 18 18 0 -2
BITMAP
000000
181800
181800
19FF80
7E0000
18C300
186300
3C6600
3DFFC0
361800
561800
581800
59FF80
181800
181800
181800
181800
000000
ENDCHAR

STARTCHAR jisx0208_3035
ENCODING 12341
SWIDTH 960 0
DWIDTH 18 0
BBX 18 18 0 -2
BITMAP
000000
000000
1FFFC0
180000
183000
183000
183000
183000
17FF80
183000
183000
183000
303000
303000
303000
6FFFC0
000000
000000
ENDCHAR

STARTCHAR jisx0208_3036
ENCODING 12342
SWIDTH 960 0
DWIDTH 18 0
BBX 18 18 0 -2
BITMAP
000000
0C0C00
0C1600
7F3300
0C6180
0CC0C0
7F0600
633600
7F1600
636600
7F3600
0C05C0
0C1F00
7EF600
0C0600
0C0600
0C0600
000000
ENDCHAR

STARTCHAR jisx0208_3037
ENCODING 12343
SWIDTH 960 0
DWIDTH 18 0
BBX 18 18 0 -2
BITMAP
000000
180000
19FF00
186300
7E6600
186600
186C00
186F80
186180
1EB180
78B300
18DB00
18D600
198C00
199600
1B3300
36E1C0
000000
ENDCHAR

STARTCHAR jisx0208_3038
ENCODING 12344
SWIDTH 960 0
DWIDTH 18 0
BBX 18 18 0 -2
BITMAP
000000
00C000
00C000
7FFF80
600180
6C0180
6C7D80
1F6600
196600
316600
5B6600
0B6600
065E00
066000
0C6180
186180
703F80
000000
ENDCHAR

STARTCHAR jisx0208_3039
ENCODING 12345
SWIDTH 960 0
DWIDTH 18 0
BBX 18 18 0 -2
BITMAP
000000
180000
187F00
186300
7F6300
1B6300
1B6300
337F00
336300
366300
666300
767F00
6E6300
0B6300
196300
306300
61FFC0
000000
ENDCHAR

STARTCHAR jisx0208_303A
ENCODING 12346
SWIDTH 960 0
DWIDTH 18 0
BBX 18 18 0 -2
BITMAP
000000
0C0C00
0C0C00
0C0C00
3F8C00
2D7FC0
2D6000
2D6000
2D6000
2D6000
3F6000
2C6000
0C6000
0B6000
0B6000
0F6000
79BFC0
000000
ENDCHAR

STARTCHAR jisx0208_303B
ENCODING 12347
SWIDTH 960 0
DWIDTH 18 0
BBX 18 18 0 -2
BITMAP
000000
0C0C00
160C00
331800
6D9B00
0C3180
3F37C0
32FCC0
3F0000
330000
3F7F80
306180
366180
336180
376180
3B7F80
706180
000000
ENDCHAR

STARTCHAR jisx0208_303C
ENCODING 12348
SWIDTH 960 0
DWIDTH 18 0
BBX 18 18 0 -2
BITMAP
000000
186000
186000
36C000
66FF80
2D8180
1B0180
18FD80
36CD80
7ECD80
18FD80
18CD80
56CD80
56FD80
56C300
180300
181E00
000000
ENDCHAR

STARTCHAR jisx0208_303D
ENCODING 12349
SWIDTH 960 0
DWIDTH 18 0
BBX 18 18 0 -2
BITMAP
000000
181800
181800
36FF80
661800
2DFFC0
186C00
186CC0
36C7C0
7DB000
183000
187F00
56E300
55B600
561C00
187700
19C1C0
000000
ENDCHAR

STARTCHAR jisx0208_303E
ENCODING 12350
SWIDTH 960 0
DWIDTH 18 0
BBX 18 18 0 -2
BITMAP
000000
180C00
1E0C00
360C00
2C0FC0
7F0C00
2B0C00
2B0C00
3F0C00
2B7F80
2B6180
3F6180
006180
556180
556180
567F80
606180
000000
ENDCHAR

STARTCHAR jisx0208_303F
ENCODING 12351
SWIDTH 960 0
DWIDTH 18 0
BBX 18 18 0 -2
BITMAP
000000
002C00
003600
003000
7FFF80
003000
003000
3F3300
333300
331B00
331600
3F1600
300C00
01D600
0F3580
78E380
038180
000000
ENDCHAR

STARTCHAR jisx0208_3040
ENCODING 12352
SWIDTH 960 0
DWIDTH 18 0
BBX 18 18 0 -2
BITMAP
000000
000000
7FFF80
033000
033000
3FFF00
333300
333300
3FFF00
0CCC00
06D800
7FFF80
02B000
06D800
1CCE00
70C380
00C000
000000
ENDCHAR

STARTCHAR jisx0208_3041
ENCODING 12353
SWIDTH 960 0
DWIDTH 18 0
BBX 18 18 0 -2
BITMAP
000000
181800
182C00
186600
7EC300
058180
0B7EC0
0C0000
1B0000
3E0000
56FF00
1AC300
18C300
18C300
18C300
18FF00
18C300
000000
ENDCHAR

STARTCHAR jisx0208_3042
ENCODING 12354
SWIDTH 960 0
DWIDTH 18 0
BBX 18 18 0 -2
BITMAP
000000
00C000
00C000
7FFF80
600180
618180
018000
030000
7FFF80
030C00
060C00
061800
0F9800
00F000
005C00
03C600
3E0300
000000
ENDCHAR

STARTCHAR jisx0208_3043
ENCODING 12355
SWIDTH 960 0
DWIDTH 18 0
BBX 18 18 0 -2
BITMAP
000000
006000
006000
3FFFC0
30C000
318000
2FFF80
330C00
366600
2FFF00
3665C0
37FE00
366600
37FE00
6660C0
6060C0
603FC0
000000
ENDCHAR

STARTCHAR jisx0208_3044
ENCODING 12356
SWIDTH 960 0
DWIDTH 18 0
BBX 18 18 0 -2
BITMAP
000000
180C00
180C00
19FFC0
7D80C0
1980C0
1998C0
181800
183000
1DFFC0
783300
186300
186600
18B600
181C00
187700
39C180
000000
ENDCHAR

STARTCHAR jisx0208_3045
ENCODING 12357
SWIDTH 960 0
DWIDTH 18 0
BBX 18 18 0 -2
BITMAP
000000
001800
001800
7DFF80
6CC300
6C6300
6C6600
6BFFC0
7C0000
6CFF00
6CC300
6CC300
6CFF00
6CC300
7CC300
00FF00
00C300
000000
ENDCHAR

STARTCHAR jisx0208_3046
ENCODING 12358
SWIDTH 960 0
DWIDTH 18 0
BBX 18 18 0 -2
BITMAP
000000
00C000
7FFF80
60C180
618180
1FFE00
031800
07B000
00F800
1F8E00
00C000
00C000
7FFF80
01E000
02B000
0EDC00
38C700
000000
ENDCHAR

STARTCHAR jisx0208_3047
ENCODING 12359
SWIDTH 960 0
DWIDTH 18 0
BBX 18 18 0 -2
BITMAP
000000
7F3F80
633180
7F3F80
633180
7F3F80
60C180
6FFD80
633180
5FFD80
600180
67F980
661980
67F980
661980
67F980
661780
000000
ENDCHAR

STARTCHAR jisx0208_3048
ENCODING 12360
SWIDTH 960 0
DWIDTH 18 0
BBX 18 18 0 -2
BITMAP
000000
160C00
160C00
7EFFC0
16C0C0
1EC0C0
0C1800
3F1800
2AFFC0
2B3300
3F3300
0C6300
0C7600
7F8E00
0C0B00
0C3980
0CE0C0
000000
ENDCHAR

STARTCHAR jisx0208_3049
ENCODING 12361
SWIDTH 960 0
DWIDTH 18 0
BBX 18 18 0 -2
BITMAP
000000
00C000
00C000
7FFF80
01E000
02B000
06D800
1CCE00
70C380
000000
1FFE00
180600
180600
180600
180600
1FFE00
180600
000000
ENDCHAR

STARTCHAR jisx0208_304A
ENCODING 12362
SWIDTH 960 0
DWIDTH 18 0
BBX 18 18 0 -2
BITMAP
000000
000000
180300
180300
198300
18C300
186300
186300
180300
180300
180300
18C600
198600
170E00
1C1B00
707180
03C180
000000
ENDCHAR

STARTCHAR jisx0208_304B
ENCODING 12363
SWIDTH 960 0
DWIDTH 18 0
BBX 18 18 0 -2
BITMAP
000000
0C0000
0BFF00
183300
183300
383300
37FFC0
583300
183300
183300
1BFF00
183300
183000
186000
186000
18C000
198000
000000
ENDCHAR

STARTCHAR jisx0208_304C
ENCODING 12364
SWIDTH 960 0
DWIDTH 18 0
BBX 18 18 0 -2
BITMAP
000000
0C1800
0C1800
181800
1BFFC0
380000
380300
58C300
18C300
186600
186600
186600
186600
180C00
180C00
1BFFC0
180000
000000
ENDCHAR

STARTCHAR jisx0208_304D
ENCODING 12365
SWIDTH 960 0
DWIDTH 18 0
BBX 18 18 0 -2
BITMAP
000000
0C1800
0C1800
181800
1BFFC0
381800
383800
585980
186B00
18CE00
19CC00
16C600
18C600
18C300
18DB00
18F180
1B80C0
000000
ENDCHAR

STARTCHAR jisx0208_304E
ENCODING 12366
SWIDTH 960 0
DWIDTH 18 0
BBX 18 18 0 -2
BITMAP
000000
0C3000
0DFF00
183300
186300
3BFFC0
380000
59FF00
198300
19FF00
181800
19FF80
199800
199800
17FFC0
181800
181800
000000
ENDCHAR

STARTCHAR jisx0208_304F
ENCODING 12367
SWIDTH 960 0
DWIDTH 18 0
BBX 18 18 0 -2
BITMAP
000000
000000
3FFF80
300180
319980
319980
2FFD80
319980
319980
319980
2FFD80
319980
331980
361980
300180
300180
3FFF80
000000
ENDCHAR

STARTCHAR jisx0208_3050
ENCODING 12368
SWIDTH 960 0
DWIDTH 18 0
BBX 18 18 0 -2
BITMAP
000000
00C000
00C000
7FFF80
00C000
00C000
3FFF00
00C300
1FFF00
18C000
3FFF80
30C180
016180
033700
061800
1C0E00
700380
000000
ENDCHAR

STARTCHAR jisx0208_3051
ENCODING 12369
SWIDTH 960 0
DWIDTH 18 0
BBX 18 18 0 -2
BITMAP
000000
007E00
1FC000
00C000
7FFF80
02B000
0EDC00
78C780
018000
018000
7FFF80
030C00
061800
0FB000
00F800
038E00
3E0300
000000
ENDCHAR

STARTCHAR jisx0208_3052
ENCODING 12370
SWIDTH 960 0
DWIDTH 18 0
BBX 18 18 0 -2
BITMAP
000000
001B00
001980
3FFFC0
301800
301800
3FD980
361980
361980
3FDB00
36CB00
2CCB00
2D8600
338EC0
66DAC0
6C31C0
60E0C0
000000
ENDCHAR

STARTCHAR jisx0208_3053
ENCODING 12371
SWIDTH 960 0
DWIDTH 18 0
BBX 18 18 0 -2
BITMAP
000000
000300
3FC300
30C300
30C300
3FC300
303FC0
2FC300
300300
303300
2FDB00
331B00
2AC300
6B6300
5B6300
630300
070F00
000000
ENDCHAR

STARTCHAR jisx0208_3054
ENCODING 12372
SWIDTH 960 0
DWIDTH 18 0
BBX 18 18 0 -2
BITMAP
000000
186600
186600
18CC00
1CFFC0
55CC00
56CC00
58CC00
58FF80
18CC00
18CC00
18FF80
18CC00
18CC00
18CC00
18FFC0
18C000
000000
ENDCHAR

STARTCHAR jisx0208_3055
ENCODING 12373
SWIDTH 960 0
DWIDTH 18 0
BBX 18 18 0 -2
BITMAP
000000
00C000
00C000
3FFF00
061800
033000
7FFF80
000000
0FFC00
0C0C00
0FFC00
0C0C00
0FFC00
00C000
366300
360D80
63FD80
000000
ENDCHAR

STARTCHAR jisx0208_3056
ENCODING 12374
SWIDTH 960 0
DWIDTH 18 0
BBX 18 18 0 -2
BITMAP
000000
3FE180
306180
3FDFC0
300180
2FC180
301980
3FED80
330D80
6AC180
5B6180
070780
00C000
366300
360D80
660CC0
63FCC0
000000
ENDCHAR

STARTCHAR jisx0208_3057
ENCODING 12375
SWIDTH 960 0
DWIDTH 18 0
BBX 18 18 0 -2
BITMAP
000000
000000
0FFE00
0C0600
0FFE00
0C0600
0C0600
0FFE00
030000
060000
1FFF80
719980
033180
0E6300
38C300
038600
0E3C00
000000
ENDCHAR

STARTCHAR jisx0208_3058
ENCODING 12376
SWIDTH 960 0
DWIDTH 18 0
BBX 18 18 0 -2
BITMAP
000000
181800
181800
19FF80
7E1800
182C00
19E780
3C0000
3BFFC0
560300
560300
59FB00
199B00
199B00
19FB00
198300
180F00
000000
ENDCHAR

STARTCHAR jisx0208_3059
ENCODING 12377
SWIDTH 960 0
DWIDTH 18 0
BBX 18 18 0 -2
BITMAP
000000
0C6000
066000
00C000
3FFC00
018C00
031800
03FF00
060300
060600
0FFF80
180180
181980
356D80
65B300
0D8300
001E00
000000
ENDCHAR

STARTCHAR jisx0208_305A
ENCODING 12378
SWIDTH 960 0
DWIDTH 18 0
BBX 18 18 0 -2
BITMAP
000000
000000
1FFE00
18C600
1FFE00
18C600
18C600
1FFE00
000000
000000
7FFF80
0CC000
0C6600
0C2C00
0C1800
0BCE00
7E0380
000000
ENDCHAR

STARTCHAR jisx0208_305B
ENCODING 12379
SWIDTH 960 0
DWIDTH 18 0
BBX 18 18 0 -2
BITMAP
000000
000000
1FFE00
18C600
1FFE00
18C600
1FFE00
033000
033000
3FFF00
033000
033000
7FFF80
000000
061C00
0C0600
380300
000000
ENDCHAR

STARTCHAR jisx0208_305C
ENCODING 12380
SWIDTH 960 0
DWIDTH 18 0
BBX 18 18 0 -2
BITMAP
000000
0E1800
783F80
186180
19B300
7E1600
180C00
1C3800
3DE600
360C00
561FC0
5870C0
59D980
180B00
180600
181C00
19F000
000000
ENDCHAR

STARTCHAR jisx0208_305D
ENCODING 12381
SWIDTH 960 0
DWIDTH 18 0
BBX 18 18 0 -2
BITMAP
000000
0C3600
0C3600
5B6C00
337FC0
16EC00
0D6C00
186C00
377F80
7D6C00
0C6C00
2B7F80
2B6C00
2B6C00
6B6C00
6C7FC0
0C6000
000000
ENDCHAR

STARTCHAR jisx0208_305E
ENCODING 12382
SWIDTH 960 0
DWIDTH 18 0
BBX 18 18 0 -2
BITMAP
000000
183000
18FF00
363300
666300
2DFFC0
180000
18FF00
36C300
7EFF00
180C00
18FF80
56CC00
56CC00
5BFFC0
180C00
180C00
000000
ENDCHAR

STARTCHAR jisx0208_305F
ENCODING 12383
SWIDTH 960 0
DWIDTH 18 0
BBX 18 18 0 -2
BITMAP
000000
000000
1FFF00
18C300
1FFF00
18C300
1FFF00
000000
000000
0FFE00
0C0600
0FFE00
0C0600
0FFE00
0C0600
0C0600
0C1E00
000000
ENDCHAR

STARTCHAR jisx0208_3060
ENCODING 12384
SWIDTH 960 0
DWIDTH 18 0
BBX 18 18 0 -2
BITMAP
000000
033000
7FFF80
033000
001E00
1FF000
00C000
7FFF80
02B000
0EDC00
78C780
018000
7FFF80
061800
0FB000
00F800
3F8E00
000000
ENDCHAR

STARTCHAR jisx0208_3061
ENCODING 12385
SWIDTH 960 0
DWIDTH 18 0
BBX 18 18 0 -2
BITMAP
000000
00C000
00C000
00C000
7FFF80
016000
036000
033300
063600
0E2C00
161800
761800
060C00
060C00
06E600
078300
3C0180
000000
ENDCHAR

STARTCHAR jisx0208_3062
ENCODING 12386
SWIDTH 960 0
DWIDTH 18 0
BBX 18 18 0 -2
BITMAP
000000
000000
3EFF80
00D980
7FFF80
00D980
3EFF80
000000
3F0000
007F00
006300
3F7F00
336300
337F00
336300
3F6300
306700
000000
ENDCHAR

STARTCHAR jisx0208_3063
ENCODING 12387
SWIDTH 960 0
DWIDTH 18 0
BBX 18 18 0 -2
BITMAP
000000
303000
19FF00
0C6300
03FFC0
000000
01FF00
018300
79FF00
181800
19FF80
199800
199800
1BFFC0
1C1800
360000
63FFC0
000000
ENDCHAR

STARTCHAR jisx0208_3064
ENCODING 12388
SWIDTH 960 0
DWIDTH 18 0
BBX 18 18 0 -2
BITMAP
000000
301800
19FF80
0D9980
01FF80
001800
07FFC0
018180
79FF80
198180
19FF80
198180
19FF80
186600
1DC380
360000
63FFC0
000000
ENDCHAR

STARTCHAR jisx0208_3065
ENCODING 12389
SWIDTH 960 0
DWIDTH 18 0
BBX 18 18 0 -2
BITMAP
000000
3FFF80
330000
330000
37FE00
366000
2C6000
306000
2FFF00
306000
30B000
319800
330C00
2E0700
300000
3FFFC0
300000
000000
ENDCHAR

STARTCHAR jisx0208_3066
ENCODING 12390
SWIDTH 960 0
DWIDTH 18 0
BBX 18 18 0 -2
BITMAP
000000
031800
031800
031800
031800
3FFF80
031800
031800
031800
031800
7FFFC0
031800
031800
061800
061800
0C1800
181800
000000
ENDCHAR

STARTCHAR jisx0208_3067
ENCODING 12391
SWIDTH 960 0
DWIDTH 18 0
BBX 18 18 0 -2
BITMAP
000000
00C000
00C000
7FFF80
00C000
018000
1B1800
0E3000
036600
01CC00
039800
0E3000
386000
00B000
039C00
0E0600
380300
000000
ENDCHAR

STARTCHAR jisx0208_3068
ENCODING 12392
SWIDTH 960 0
DWIDTH 18 0
BBX 18 18 0 -2
BITMAP
000000
180B00
180D80
180C00
1BFFC0
7C0C00
180C00
1BED80
1B2D80
1B2D80
1BEB00
1B0B00
1C0600
70F6C0
078AC0
0039C0
00E0C0
000000
ENDCHAR

STARTCHAR jisx0208_3069
ENCODING 12393
SWIDTH 960 0
DWIDTH 18 0
BBX 18 18 0 -2
BITMAP
000000
00C000
00C000
7FFFC0
018C00
030600
067F00
3FC180
000000
0FFE00
0C0600
0FFE00
0C0600
0FFE00
0C0600
0C0600
0C1E00
000000
ENDCHAR

STARTCHAR jisx0208_306A
ENCODING 12394
SWIDTH 960 0
DWIDTH 18 0
BBX 18 18 0 -2
BITMAP
000000
0C0000
0C1FC0
7FD8C0
0C1980
0C1980
1FDB00
18D600
38DB00
5FD980
18D980
18D8C0
1FD8C0
18D8C0
18D780
18D800
1BD800
000000
ENDCHAR

STARTCHAR jisx0208_306B
ENCODING 12395
SWIDTH 960 0
DWIDTH 18 0
BBX 18 18 0 -2
BITMAP
000000
00DD80
7D9B00
1B56C0
19DB80
199B00
33D7C0
301B00
7C1980
6BFFC0
2D9800
2D8D80
2DEB00
2DB600
3B06C0
331AC0
0671C0
000000
ENDCHAR

STARTCHAR jisx0208_306C
ENCODING 12396
SWIDTH 960 0
DWIDTH 18 0
BBX 18 18 0 -2
BITMAP
000000
000000
000000
000000
000000
000000
000000
000000
000000
7FFF80
000000
000000
000000
000000
000000
000000
000000
000000
ENDCHAR

STARTCHAR jisx0208_306D
ENCODING 12397
SWIDTH 960 0
DWIDTH 18 0
BBX 18 18 0 -2
BITMAP
000000
00C000
00C000
7FFF80
00C000
00C000
1FFE00
000000
000000
7FFF80
600180
6C1D80
0CF000
0F8000
0C0600
0C0600
07FE00
000000
ENDCHAR

STARTCHAR jisx0208_306E
ENCODING 12398
SWIDTH 960 0
DWIDTH 18 0
BBX 18 18 0 -2
BITMAP
000000
318600
18C600
00CC00
07FFC0
606C00
30C600
18C600
018300
030180
1600C0
1BFF00
335B00
335B00
335B00
635B00
6FFFC0
000000
ENDCHAR

STARTCHAR jisx0208_306F
ENCODING 12399
SWIDTH 960 0
DWIDTH 18 0
BBX 18 18 0 -2
BITMAP
000000
30C000
18FC00
0D8C00
031800
07FF00
033300
033300
7BFF00
185800
185800
18D800
199980
1B0F80
180000
2C0000
67FFC0
000000
ENDCHAR

STARTCHAR jisx0208_3070
ENCODING 12400
SWIDTH 960 0
DWIDTH 18 0
BBX 18 18 0 -2
BITMAP
000000
0E0F80
79F800
180180
19B180
7EDB00
18DB00
180000
3CDF80
3CD980
56D980
56DF80
58D980
18D980
18D980
18DF80
18D980
000000
ENDCHAR

STARTCHAR jisx0208_3071
ENCODING 12401
SWIDTH 960 0
DWIDTH 18 0
BBX 18 18 0 -2
BITMAP
000000
031800
031800
7FFFC0
031800
00C000
30C000
18FF80
0D9980
019B00
031800
002C00
062C00
0C6600
386600
60C300
0381C0
000000
ENDCHAR

STARTCHAR jisx0208_3072
ENCODING 12402
SWIDTH 960 0
DWIDTH 18 0
BBX 18 18 0 -2
BITMAP
000000
061800
061800
7FFF80
061800
061800
000000
3FFF00
00C000
00C000
00C000
7FFF80
00C000
00C000
00C000
00C000
03C000
000000
ENDCHAR

STARTCHAR jisx0208_3073
ENCODING 12403
SWIDTH 960 0
DWIDTH 18 0
BBX 18 18 0 -2
BITMAP
000000
180000
1EF7C0
3618C0
2C18C0
7F7BC0
2B6300
2AC600
3EF7C0
2B18C0
2AD6C0
3F5AC0
0039C0
555AC0
55D6C0
5618C0
607380
000000
ENDCHAR

STARTCHAR jisx0208_3074
ENCODING 12404
SWIDTH 960 0
DWIDTH 18 0
BBX 18 18 0 -2
BITMAP
000000
018000
018000
031800
030C00
060600
06FF00
7FB180
033180
033000
033000
033000
063000
063000
0C3180
183180
701F80
000000
ENDCHAR

STARTCHAR jisx0208_3075
ENCODING 12405
SWIDTH 960 0
DWIDTH 18 0
BBX 18 18 0 -2
BITMAP
000000
018000
070000
3C3F80
303180
303180
303180
303180
3FB180
303180
303180
303180
303180
3FB780
303000
303000
003000
000000
ENDCHAR

STARTCHAR jisx0208_3076
ENCODING 12406
SWIDTH 960 0
DWIDTH 18 0
BBX 18 18 0 -2
BITMAP
000000
000000
01FF80
7D8180
6D9980
6D9980
6D9980
6D7D80
6D9980
6D9980
6DAD80
6DAD80
7DB580
616580
618180
01FF80
018180
000000
ENDCHAR

STARTCHAR jisx0208_3077
ENCODING 12407
SWIDTH 960 0
DWIDTH 18 0
BBX 18 18 0 -2
BITMAP
000000
000000
0FFC00
0C0C00
0C0C00
0FFC00
000000
1FFE00
180600
1FFE00
180600
1FFE00
180600
1FFE00
000000
0E1E00
780380
000000
ENDCHAR

STARTCHAR jisx0208_3078
ENCODING 12408
SWIDTH 960 0
DWIDTH 18 0
BBX 18 18 0 -2
BITMAP
000000
000000
3FFF80
300180
30C180
30C180
30C180
2FFD80
30C180
316180
316180
333180
361980
2C0D80
300180
300180
3FFF80
000000
ENDCHAR

STARTCHAR jisx0208_3079
ENCODING 12409
SWIDTH 960 0
DWIDTH 18 0
BBX 18 18 0 -2
BITMAP
000000
300000
31FF80
318180
7D9980
359980
357D80
359980
359980
65AD80
65AD80
6DB580
5D6580
0D6580
158180
31FF80
618180
000000
ENDCHAR

STARTCHAR jisx0208_307A
ENCODING 12410
SWIDTH 960 0
DWIDTH 18 0
BBX 18 18 0 -2
BITMAP
000000
000180
3FC180
00C180
00C180
00C180
1FC180
180180
180180
300180
3FC180
30C180
00C180
00C180
018180
018180
0F0180
000000
ENDCHAR

STARTCHAR jisx0208_307B
ENCODING 12411
SWIDTH 960 0
DWIDTH 18 0
BBX 18 18 0 -2
BITMAP
000000
0C3000
163000
333000
6D7FC0
0C6CC0
3F6D80
32CC00
3F0C00
330C00
3F1600
301600
361600
333300
373300
3D6180
70C0C0
000000
ENDCHAR

STARTCHAR jisx0208_307C
ENCODING 12412
SWIDTH 960 0
DWIDTH 18 0
BBX 18 18 0 -2
BITMAP
000000
300F80
19F800
0C0180
01B180
60DB00
30DB00
180000
000F80
01F800
0C1800
0C1800
1BFFC0
181800
301800
301800
61FF80
000000
ENDCHAR

STARTCHAR jisx0208_307D
ENCODING 12413
SWIDTH 960 0
DWIDTH 18 0
BBX 18 18 0 -2
BITMAP
000000
18C600
198600
1B3600
196600
18C600
198600
1B7600
17D600
180600
1BF600
1B3600
33F600
333600
33F6C0
6336C0
6377C0
000000
ENDCHAR

STARTCHAR jisx0208_307E
ENCODING 12414
SWIDTH 960 0
DWIDTH 18 0
BBX 18 18 0 -2
BITMAP
000000
031800
7FFFC0
031800
001800
3E2C00
366600
36BB00
2D81C0
2C7F00
360600
36FF80
360000
3DFFC0
303000
306F00
31F980
000000
ENDCHAR

STARTCHAR jisx0208_3121
ENCODING 12577
SWIDTH 960 0
DWIDTH 18 0
BBX 18 18 0 -2
BITMAP
000000
001800
7E1800
65FF80
6D8180
6D8180
587E00
6C0000
6C0000
65FF80
666C00
666C00
666C00
5CCC00
60CCC0
618CC0
6707C0
000000
ENDCHAR

STARTCHAR jisx0208_3122
ENCODING 12578
SWIDTH 960 0
DWIDTH 18 0
BBX 18 18 0 -2
BITMAP
000000
001800
7E2C00
666600
6CC300
6BBDC0
580000
6C7E00
6C0600
660C00
66FF00
660000
65FF80
5C3000
603300
606380
61FEC0
000000
ENDCHAR

STARTCHAR jisx0208_3123
ENCODING 12579
SWIDTH 960 0
DWIDTH 18 0
BBX 18 18 0 -2
BITMAP
000000
000F00
7DF800
660180
6DB300
6CD600
59FF00
6C0300
6DFF00
660300
65FF00
660000
663000
5ADB00
62C580
62C6C0
66FE00
000000
ENDCHAR

STARTCHAR jisx0208_3124
ENCODING 12580
SWIDTH 960 0
DWIDTH 18 0
BBX 18 18 0 -2
BITMAP
000000
0C0000
0C3F80
7FB180
333F80
1B0000
160000
7FBF80
003180
3F3F80
333180
333F80
3F3180
333F80
330000
3F1B80
3070C0
000000
ENDCHAR

STARTCHAR jisx0208_3125
ENCODING 12581
SWIDTH 960 0
DWIDTH 18 0
BBX 18 18 0 -2
BITMAP
000000
000600
000600
7E0600
660600
65FFC0
660600
660600
66C600
666600
663600
663600
7E0600
600600
600600
000600
001E00
000000
ENDCHAR

STARTCHAR jisx0208_3126
ENCODING 12582
SWIDTH 960 0
DWIDTH 18 0
BBX 18 18 0 -2
BITMAP
000000
00C000
00C000
018000
7FFFC0
030000
030000
060000
060000
0FFF00
160300
360300
660300
060300
060300
07FF00
060300
000000
ENDCHAR

STARTCHAR jisx0208_3127
ENCODING 12583
SWIDTH 960 0
DWIDTH 18 0
BBX 18 18 0 -2
BITMAP
000000
00C000
00C000
7FFF80
600180
600180
0FFC00
00C000
00C000
00C000
7FFF80
00C000
00C000
00C000
00C000
00C000
03C000
000000
ENDCHAR

STARTCHAR jisx0208_3128
ENCODING 12584
SWIDTH 960 0
DWIDTH 18 0
BBX 18 18 0 -2
BITMAP
000000
00C000
018000
0FFE00
0C0600
0C0600
0FFE00
0C0000
0FFF80
0C0000
0C0000
0FFF80
000180
36D980
336B00
630300
000E00
000000
ENDCHAR

STARTCHAR jisx0208_3129
ENCODING 12585
SWIDTH 960 0
DWIDTH 18 0
BBX 18 18 0 -2
BITMAP
000000
000000
3FBF80
018180
018180
31B180
199980
0D8D80
018180
058580
0D8D80
199980
31B180
018180
018180
018180
0F8F80
000000
ENDCHAR

STARTCHAR jisx0208_312A
ENCODING 12586
SWIDTH 960 0
DWIDTH 18 0
BBX 18 18 0 -2
BITMAP
000000
300000
19FF80
0C1800
001800
001800
001800
7BFFC0
181800
181800
181800
181800
181800
187800
1C0000
360000
63FFC0
000000
ENDCHAR

STARTCHAR jisx0208_312B
ENCODING 12587
SWIDTH 960 0
DWIDTH 18 0
BBX 18 18 0 -2
BITMAP
000000
000000
7FFF80
00C000
00C000
3FFF00
30C300
2CB300
36DB00
32CB00
30C300
2CB300
36DB00
32CB00
30C300
30C300
30CF00
000000
ENDCHAR

STARTCHAR jisx0208_312C
ENCODING 12588
SWIDTH 960 0
DWIDTH 18 0
BBX 18 18 0 -2
BITMAP
000000
00C000
038000
1E1F80
181980
199980
199980
199980
199980
199980
179980
1D9980
731980
031780
061800
0C1800
381800
000000
ENDCHAR

STARTCHAR jisx0208_312D
ENCODING 12589
SWIDTH 960 0
DWIDTH 18 0
BBX 18 18 0 -2
BITMAP
000000
330600
1B0C00
163F80
7FB180
0DBF80
0DB180
7FBF80
6C3000
6C3FC0
7FB000
0DBFC0
1D80C0
2D55C0
6B56C0
0CD8C0
0CC380
000000
ENDCHAR

STARTCHAR jisx0208_312E
ENCODING 12590
SWIDTH 960 0
DWIDTH 18 0
BBX 18 18 0 -2
BITMAP
000000
00C000
7FFF80
636180
0E6580
783E00
0C0000
0C7F00
3F6300
0C7F00
0C6300
7F7F00
0C6300
167F00
1B2C00
306D80
61C780
000000
ENDCHAR

STARTCHAR jisx0208_312F
ENCODING 12591
SWIDTH 960 0
DWIDTH 18 0
BBX 18 18 0 -2
BITMAP
000000
000000
1FFC00
018C00
018C00
018C00
018C00
030C00
7FFF80
031800
031800
031800
061800
061800
061800
7FFF80
000000
000000
ENDCHAR

STARTCHAR jisx0208_3130
ENCODING 12592
SWIDTH 960 0
DWIDTH 18 0
BBX 18 18 0 -2
BITMAP
000000
003300
7FB300
0C3600
0C7FC0
186600
18E600
1F6600
3B7F80
3B6600
5B6600
1B7F80
1B6600
1B6600
1F6600
187FC0
006000
000000
ENDCHAR

STARTCHAR jisx0208_3131
ENCODING 12593
SWIDTH 960 0
DWIDTH 18 0
BBX 18 18 0 -2
BITMAP
000000
018000
070000
3C7F00
300300
300300
300300
300300
300300
3F7F00
300300
300300
300300
300300
300300
3FFF00
300300
000000
ENDCHAR

STARTCHAR jisx0208_3132
ENCODING 12594
SWIDTH 960 0
DWIDTH 18 0
BBX 18 18 0 -2
BITMAP
000000
300000
18FE00
0CC600
00C600
60BE00
30B600
18B600
03FF80
030180
1B0180
1B7D80
336D80
336D80
337D80
636180
630780
000000
ENDCHAR

STARTCHAR jisx0208_3133
ENCODING 12595
SWIDTH 960 0
DWIDTH 18 0
BBX 18 18 0 -2
BITMAP
000000
003000
003F80
7C3000
6BFFC0
6B30C0
6B3EC0
6AF000
6B3180
6B1F80
6B0000
7B2C00
05AD80
06AD80
0CAB00
0C2C00
1BFFC0
000000
ENDCHAR

STARTCHAR jisx0208_3134
ENCODING 12596
SWIDTH 960 0
DWIDTH 18 0
BBX 18 18 0 -2
BITMAP
000000
000000
00FF00
7EC300
66C300
66FF00
66C300
66C300
66FF00
66C300
66C300
7EC300
60FF00
600000
006700
01C180
0700C0
000000
ENDCHAR

STARTCHAR jisx0208_3135
ENCODING 12597
SWIDTH 960 0
DWIDTH 18 0
BBX 18 18 0 -2
BITMAP
000000
196600
7EDF80
3D6F00
56D580
196600
3FFF00
333300
3FFF00
000000
3F8600
317F80
3F8600
31B600
3F9600
330600
7DDE00
000000
ENDCHAR

STARTCHAR jisx0208_3136
ENCODING 12598
SWIDTH 960 0
DWIDTH 18 0
BBX 18 18 0 -2
BITMAP
000000
031800
7FFFC0
031800
000300
3FC300
30C300
30C300
3FBFC0
300300
2FC300
303300
3FDB00
330300
6AC300
5B6300
070F00
000000
ENDCHAR

STARTCHAR jisx0208_3137
ENCODING 12599
SWIDTH 960 0
DWIDTH 18 0
BBX 18 18 0 -2
BITMAP
000000
180000
1F3F80
333180
363F80
7FB180
2DBF80
2D8000
3F7FC0
2D56C0
2D7FC0
3F8000
007F80
559B00
558E00
563B00
60E1C0
000000
ENDCHAR

STARTCHAR jisx0208_3138
ENCODING 12600
SWIDTH 960 0
DWIDTH 18 0
BBX 18 18 0 -2
BITMAP
000000
181800
181800
1818C0
7F7EC0
1B1980
1B1B00
32FFC0
360C00
361800
663180
6C7700
5DBC00
0E3000
1B30C0
3330C0
601FC0
000000
ENDCHAR

STARTCHAR jisx0208_3139
ENCODING 12601
SWIDTH 960 0
DWIDTH 18 0
BBX 18 18 0 -2
BITMAP
000000
000000
3FFF80
300000
300000
2FBF80
2CD600
2FD600
2CD600
2CD600
2FFFC0
2C0C00
2D8E00
2CD600
6DD6C0
6F36C0
5CE7C0
000000
ENDCHAR

STARTCHAR jisx0208_313A
ENCODING 12602
SWIDTH 960 0
DWIDTH 18 0
BBX 18 18 0 -2
BITMAP
000000
303600
183300
0BFFC0
003000
603000
33FF80
1B3180
033180
03FF80
1B3180
1B3180
33FF80
333180
333180
633180
633780
000000
ENDCHAR

STARTCHAR jisx0208_313B
ENCODING 12603
SWIDTH 960 0
DWIDTH 18 0
BBX 18 18 0 -2
BITMAP
000000
000700
007C00
0FCC00
0CCC00
0CCC00
0CCC00
0CCC00
0CC600
0CC600
0CC600
18C600
18B300
18DB00
30F980
37CD80
600CC0
000000
ENDCHAR

STARTCHAR jisx0208_313C
ENCODING 12604
SWIDTH 960 0
DWIDTH 18 0
BBX 18 18 0 -2
BITMAP
000000
000000
3FBF80
31B180
3FBF80
31B180
3FBF80
300180
300180
33F980
30C180
33F980
30C180
30C180
37FD80
300180
300F80
000000
ENDCHAR

STARTCHAR jisx0208_313D
ENCODING 12605
SWIDTH 960 0
DWIDTH 18 0
BBX 18 18 0 -2
BITMAP
000000
00C300
006600
7BFFC0
6C6C00
6DFF80
6D6D80
6DCF80
6D8180
6DFF80
6D8180
7DFF80
600600
67FFC0
018600
00C600
001E00
000000
ENDCHAR

STARTCHAR jisx0208_313E
ENCODING 12606
SWIDTH 960 0
DWIDTH 18 0
BBX 18 18 0 -2
BITMAP
000000
000000
1FFE00
000000
000000
000000
000000
000000
7FFF80
018000
018000
031800
030C00
060600
0CFF00
7F8300
000180
000000
ENDCHAR

STARTCHAR jisx0208_313F
ENCODING 12607
SWIDTH 960 0
DWIDTH 18 0
BBX 18 18 0 -2
BITMAP
000000
300000
1BFF80
0B0180
003000
01FF00
003000
01FF00
79B300
19FF00
19B300
19FF00
183000
1BFF80
1C3000
363000
63FFC0
000000
ENDCHAR

STARTCHAR jisx0208_3140
ENCODING 12608
SWIDTH 960 0
DWIDTH 18 0
BBX 18 18 0 -2
BITMAP
000000
000000
3FFF00
00C000
7FFF80
60C180
5EBD80
00C000
1EBE00
000000
3FFF00
000000
7FFF80
031800
060C00
0CFE00
3F8300
000000
ENDCHAR

STARTCHAR jisx0208_3141
ENCODING 12609
SWIDTH 960 0
DWIDTH 18 0
BBX 18 18 0 -2
BITMAP
000000
031800
031800
7FFFC0
031800
000000
0C0F80
0DF800
181800
181800
381800
5BFFC0
181800
181800
181800
181800
19FF80
000000
ENDCHAR

STARTCHAR jisx0208_3142
ENCODING 12610
SWIDTH 960 0
DWIDTH 18 0
BBX 18 18 0 -2
BITMAP
000000
0C0000
160000
32FFC0
6DB300
0C3300
3F3F00
333300
3F3300
333F00
3F3300
303300
363300
332FC0
36FB00
3B0300
700300
000000
ENDCHAR

STARTCHAR jisx0208_3143
ENCODING 12611
SWIDTH 960 0
DWIDTH 18 0
BBX 18 18 0 -2
BITMAP
000000
060000
07C000
063F80
7FD980
605980
6F5980
18D980
375980
6D8B00
1FCB00
396B00
5F8600
198600
1F8B00
199980
1FB0C0
000000
ENDCHAR

STARTCHAR jisx0208_3144
ENCODING 12612
SWIDTH 960 0
DWIDTH 18 0
BBX 18 18 0 -2
BITMAP
000000
18C300
0C6600
7FFFC0
6000C0
6FFEC0
0C0600
0C0600
0FFE00
00C000
018000
1FFF00
180300
180300
180300
1FFF00
180300
000000
ENDCHAR

STARTCHAR jisx0208_3145
ENCODING 12613
SWIDTH 960 0
DWIDTH 18 0
BBX 18 18 0 -2
BITMAP
000000
3FBF80
31B180
3FBF80
31B180
3FBF80
31B180
3FBF80
1B1B00
31B180
018000
7FFFC0
031800
061800
0BB000
00FC00
3F8780
000000
ENDCHAR

STARTCHAR jisx0208_3146
ENCODING 12614
SWIDTH 960 0
DWIDTH 18 0
BBX 18 18 0 -2
BITMAP
000000
000000
3FC180
30C300
3FC600
30CC00
3FB800
060180
7FE300
000600
3FCC00
30B800
3FC0C0
060180
358300
36CE00
6E3800
000000
ENDCHAR

STARTCHAR jisx0208_3147
ENCODING 12615
SWIDTH 960 0
DWIDTH 18 0
BBX 18 18 0 -2
BITMAP
000000
001800
001800
7C1800
6CFF00
6CDB00
6CDB00
7CDB00
6CDB00
6CDB00
6BFFC0
6C1800
7C2C00
606600
60C300
018180
0700C0
000000
ENDCHAR

STARTCHAR jisx0208_3148
ENCODING 12616
SWIDTH 960 0
DWIDTH 18 0
BBX 18 18 0 -2
BITMAP
000000
00C000
00C000
3FFF00
30C300
30C300
3FFF00
30C300
30C300
3FFF00
30C000
00CC00
005800
007000
01B180
0F1D80
780780
000000
ENDCHAR

STARTCHAR jisx0208_3149
ENCODING 12617
SWIDTH 960 0
DWIDTH 18 0
BBX 18 18 0 -2
BITMAP
000000
198600
0CCC00
001800
7FFF80
600180
60C180
00C000
00C000
7FFF80
01E000
02B000
06D800
0CCC00
18C600
70C380
00C000
000000
ENDCHAR

STARTCHAR jisx0208_314A
ENCODING 12618
SWIDTH 960 0
DWIDTH 18 0
BBX 18 18 0 -2
BITMAP
000000
038000
00E000
000000
000000
0FC000
00C300
00C600
3EEC00
02D800
06B000
06B000
0CD800
18CC00
30C600
60C380
03C000
000000
ENDCHAR

STARTCHAR jisx0208_314B
ENCODING 12619
SWIDTH 960 0
DWIDTH 18 0
BBX 18 18 0 -2
BITMAP
000000
307000
181C00
0C0000
000000
61F800
301980
181B00
03D600
005C00
18DC00
18D600
319600
319B00
331980
6618C0
607800
000000
ENDCHAR

STARTCHAR jisx0208_314C
ENCODING 12620
SWIDTH 960 0
DWIDTH 18 0
BBX 18 18 0 -2
BITMAP
000000
303000
183000
0BFF80
033180
633180
33FF80
1B3180
033180
03FF80
1B3000
183300
301600
301C00
302CC0
60E6C0
6781C0
000000
ENDCHAR

STARTCHAR jisx0208_314D
ENCODING 12621
SWIDTH 960 0
DWIDTH 18 0
BBX 18 18 0 -2
BITMAP
000000
006600
7E6600
19FFC0
186600
181800
18FF00
7EDB00
18DB00
18DB00
18DB00
1BFFC0
1C1800
702C00
006600
00C300
0381C0
000000
ENDCHAR

STARTCHAR jisx0208_314E
ENCODING 12622
SWIDTH 960 0
DWIDTH 18 0
BBX 18 18 0 -2
BITMAP
000000
000000
3FF800
0C1800
0C1800
0FBF00
0CB300
16C300
1B8300
32CE00
6E6000
000000
1FFE00
1B6600
1B6600
1B6600
7FFF80
000000
ENDCHAR

STARTCHAR jisx0208_314F
ENCODING 12623
SWIDTH 960 0
DWIDTH 18 0
BBX 18 18 0 -2
BITMAP
000000
300000
377FC0
3C0600
318C00
1FBF80
003180
03B180
3E3F80
063180
063F80
7FB180
0E3180
173F80
358000
661B80
0670C0
000000
ENDCHAR

STARTCHAR jisx0208_3150
ENCODING 12624
SWIDTH 960 0
DWIDTH 18 0
BBX 18 18 0 -2
BITMAP
000000
300000
377FC0
3C0600
318C00
1FBF80
003180
003180
3F3F80
003180
003F80
7FB180
0C3180
2B3F80
2D8000
6D9B80
1C70C0
000000
ENDCHAR

STARTCHAR jisx0208_3151
ENCODING 12625
SWIDTH 960 0
DWIDTH 18 0
BBX 18 18 0 -2
BITMAP
000000
033000
033000
7FFF80
033000
00C000
00C000
1FFE00
18C600
18C600
18C600
7FFF80
016000
033000
061800
1C0E00
700380
000000
ENDCHAR

STARTCHAR jisx0208_3152
ENCODING 12626
SWIDTH 960 0
DWIDTH 18 0
BBX 18 18 0 -2
BITMAP
000000
0CC000
1BEF80
30B000
61B000
0BF800
0C0FC0
1BFB00
3B1B00
5BFB00
186300
1BFB00
1B6300
1B6300
17FB00
186300
186700
000000
ENDCHAR

STARTCHAR jisx0208_3153
ENCODING 12627
SWIDTH 960 0
DWIDTH 18 0
BBX 18 18 0 -2
BITMAP
000000
003000
3E1800
000C00
7F0000
00F800
001980
3E1B00
01DE00
3E5C00
005600
005600
3EDB00
36DB00
359980
3F18C0
303800
000000
ENDCHAR

STARTCHAR jisx0208_3154
ENCODING 12628
SWIDTH 960 0
DWIDTH 18 0
BBX 18 18 0 -2
BITMAP
000000
0C6300
163300
333600
618600
3F7F80
0C6180
0C6180
0C6180
7F7F80
0C1600
6D9600
6D9600
2B3600
2C36C0
0F66C0
7CC7C0
000000
ENDCHAR

STARTCHAR jisx0208_3155
ENCODING 12629
SWIDTH 960 0
DWIDTH 18 0
BBX 18 18 0 -2
BITMAP
000000
301800
181800
0BFFC0
000000
60CC00
30CC00
198F80
019980
039D80
15B580
195B00
319B00
318E00
318E00
619B00
6171C0
000000
ENDCHAR

STARTCHAR jisx0208_3156
ENCODING 12630
SWIDTH 960 0
DWIDTH 18 0
BBX 18 18 0 -2
BITMAP
000000
003000
003000
0FFFC0
6C0000
2CFC00
1CCD80
0CCD80
0D8F80
1B0000
2C0000
6BFE00
0CC600
186C00
183800
30EE00
6783C0
000000
ENDCHAR

STARTCHAR jisx0208_3157
ENCODING 12631
SWIDTH 960 0
DWIDTH 18 0
BBX 18 18 0 -2
BITMAP
000000
061800
031800
033000
3FFF80
060C00
060C00
0C0600
180300
7001C0
0FFE00
0DB600
0DB600
0DB600
0DB600
7FFFC0
000000
000000
ENDCHAR

STARTCHAR jisx0208_3158
ENCODING 12632
SWIDTH 960 0
DWIDTH 18 0
BBX 18 18 0 -2
BITMAP
000000
000000
3FBF80
363180
363180
3FB180
363180
3FB180
363F80
363580
3FB600
00B600
55B300
56B300
58B180
616180
0760C0
000000
ENDCHAR

STARTCHAR jisx0208_3159
ENCODING 12633
SWIDTH 960 0
DWIDTH 18 0
BBX 18 18 0 -2
BITMAP
000000
18C300
186300
186600
1C0600
55FF80
558180
558180
598180
198180
19FF80
186C00
186C00
186C00
18CCC0
198CC0
1707C0
000000
ENDCHAR

STARTCHAR jisx0208_315A
ENCODING 12634
SWIDTH 960 0
DWIDTH 18 0
BBX 18 18 0 -2
BITMAP
000000
000000
3EFF00
00C300
7EFF00
00C300
00FF00
3E1800
003000
3E7F80
00C180
015D80
3E7180
366580
363D80
3E0180
300700
000000
ENDCHAR

STARTCHAR jisx0208_315B
ENCODING 12635
SWIDTH 960 0
DWIDTH 18 0
BBX 18 18 0 -2
BITMAP
000000
0C0B00
0C0D80
0C0C00
3F7FC0
0C6C00
0C6D80
7F6D80
0C6B00
2C6B00
2F6600
2C7600
2DEAC0
3C19C0
2C30C0
670000
61FFC0
000000
ENDCHAR

STARTCHAR jisx0208_315C
ENCODING 12636
SWIDTH 960 0
DWIDTH 18 0
BBX 18 18 0 -2
BITMAP
000000
000000
3FBF80
31B180
3FBF80
31B180
3FBF80
300180
333180
316180
37F980
361980
37F980
316180
336D80
2E3D80
300780
000000
ENDCHAR

STARTCHAR jisx0208_315D
ENCODING 12637
SWIDTH 960 0
DWIDTH 18 0
BBX 18 18 0 -2
BITMAP
000000
180000
1BFFC0
183000
7EFF00
18C300
18FF00
3CC300
3CFF00
36C300
56FF00
586000
58FF00
1BB600
181C00
187700
1BC1C0
000000
ENDCHAR

STARTCHAR jisx0208_315E
ENCODING 12638
SWIDTH 960 0
DWIDTH 18 0
BBX 18 18 0 -2
BITMAP
000000
000000
3FFFC0
300000
2FC580
2CC6C0
2FC600
2CC600
2FBFC0
300600
2FC600
2CCB00
2FCB00
2CCB00
2FD980
6CD980
6DB0C0
000000
ENDCHAR

STARTCHAR jisx0208_315F
ENCODING 12639
SWIDTH 960 0
DWIDTH 18 0
BBX 18 18 0 -2
BITMAP
000000
000000
3FFF00
30C300
30C300
30C300
30C300
30C300
30C300
3FFF00
300300
300300
300300
300300
300300
300300
300F00
000000
ENDCHAR

STARTCHAR jisx0208_3160
ENCODING 12640
SWIDTH 960 0
DWIDTH 18 0
BBX 18 18 0 -2
BITMAP
000000
000000
3FFF80
30C180
37FD80
30C180
2FFD80
300180
37F980
361980
37F980
31CD80
32F980
2ECD80
30C180
300180
3FFF80
000000
ENDCHAR

STARTCHAR jisx0208_3161
ENCODING 12641
SWIDTH 960 0
DWIDTH 18 0
BBX 18 18 0 -2
BITMAP
000000
180000
19FFC0
198000
197F00
196300
7D7F00
196300
197F00
199800
19FFC0
19B300
1D7600
718E00
017B00
018000
01FFC0
000000
ENDCHAR

STARTCHAR jisx0208_3162
ENCODING 12642
SWIDTH 960 0
DWIDTH 18 0
BBX 18 18 0 -2
BITMAP
000000
00C000
018000
7FFF80
031800
06CC00
0CC600
1FFB00
6CCDC0
0CCC00
0FFC00
0CCC00
0CCC00
0FFC00
0CC180
00C180
007F80
000000
ENDCHAR

STARTCHAR jisx0208_3163
ENCODING 12643
SWIDTH 960 0
DWIDTH 18 0
BBX 18 18 0 -2
BITMAP
000000
00C000
7FFF80
600180
600180
6FFD80
0C0C00
0FFC00
0C0C00
0FFC00
018000
7FFF80
061800
0BB000
00F000
039C00
3E0700
000000
ENDCHAR

STARTCHAR jisx0208_3164
ENCODING 12644
SWIDTH 960 0
DWIDTH 18 0
BBX 18 18 0 -2
BITMAP
000000
0003C0
7EFE00
060C00
0C0C00
0C6C00
186F80
1F6C00
336C00
036C00
366C00
366C00
6DFFC0
0C0000
160000
338000
60FFC0
000000
ENDCHAR

STARTCHAR jisx0208_3165
ENCODING 12645
SWIDTH 960 0
DWIDTH 18 0
BBX 18 18 0 -2
BITMAP
000000
0C0000
0C0000
1FBF80
19B180
31B180
5B3180
0B3780
063000
0C30C0
181FC0
700000
00C000
066300
366D80
360CC0
63FCC0
000000
ENDCHAR

STARTCHAR jisx0208_3166
ENCODING 12646
SWIDTH 960 0
DWIDTH 18 0
BBX 18 18 0 -2
BITMAP
000000
181800
183000
19FF80
7E6600
18DB00
199980
1AFEC0
18DB00
1EDB00
78FF00
18DB00
18DB00
18FF00
18D8C0
1818C0
380FC0
000000
ENDCHAR

STARTCHAR jisx0208_3167
ENCODING 12647
SWIDTH 960 0
DWIDTH 18 0
BBX 18 18 0 -2
BITMAP
000000
180F80
19F800
19B180
7EDB00
180600
19FF80
163000
1C3000
7BFFC0
186000
187F00
18E300
19B600
1B1C00
167700
39C1C0
000000
ENDCHAR

STARTCHAR jisx0208_3168
ENCODING 12648
SWIDTH 960 0
DWIDTH 18 0
BBX 18 18 0 -2
BITMAP
000000
307E00
180600
0CC600
00C300
618300
318180
1B0180
0600C0
01FF00
198300
198300
318300
318300
318300
61FF00
618300
000000
ENDCHAR

STARTCHAR jisx0208_3169
ENCODING 12649
SWIDTH 960 0
DWIDTH 18 0
BBX 18 18 0 -2
BITMAP
000000
301800
181800
0BFFC0
0300C0
62FEC0
301800
19FF80
019980
019980
19FF80
199980
319980
31FF80
300000
60E700
6781C0
000000
ENDCHAR

STARTCHAR jisx0208_316A
ENCODING 12650
SWIDTH 960 0
DWIDTH 18 0
BBX 18 18 0 -2
BITMAP
000000
00C000
06C600
0CCC00
19C000
017000
031C00
0E0600
38C300
00C000
06C600
0D6C00
196000
033000
061800
1C0E00
7003C0
000000
ENDCHAR

STARTCHAR jisx0208_316B
ENCODING 12651
SWIDTH 960 0
DWIDTH 18 0
BBX 18 18 0 -2
BITMAP
000000
183000
183000
187F00
1B6300
56C600
5D8C00
580000
59BF80
19B180
19B180
19BF80
2DB180
35B180
31B180
61BF80
61B180
000000
ENDCHAR

STARTCHAR jisx0208_316C
ENCODING 12652
SWIDTH 960 0
DWIDTH 18 0
BBX 18 18 0 -2
BITMAP
000000
180000
1BFFC0
182C00
182C00
55FF80
5DAD80
59AD80
59AD80
19AD80
19FF80
181800
2C1800
35FF80
301800
601800
63FFC0
000000
ENDCHAR

STARTCHAR jisx0208_316D
ENCODING 12653
SWIDTH 960 0
DWIDTH 18 0
BBX 18 18 0 -2
BITMAP
000000
033000
033000
7FFF80
033000
0BEC00
0C0C00
7C0D80
0BEF00
0B2C00
1B2C00
2BED80
6C0780
000000
1B6600
31B300
61B180
000000
ENDCHAR

STARTCHAR jisx0208_316E
ENCODING 12654
SWIDTH 960 0
DWIDTH 18 0
BBX 18 18 0 -2
BITMAP
000000
061800
661800
2DFF80
181800
3BFFC0
580000
0CFF00
0CC300
1CC300
2CFF00
6C3800
0CED80
0B6B00
0C6600
0C7B00
3BC1C0
000000
ENDCHAR

STARTCHAR jisx0208_316F
ENCODING 12655
SWIDTH 960 0
DWIDTH 18 0
BBX 18 18 0 -2
BITMAP
000000
180000
18FF00
360300
66FF00
2C0300
1BFFC0
181800
367000
7DD980
183B00
186E00
55DE00
562B00
58ED80
1B8CC0
183800
000000
ENDCHAR

STARTCHAR jisx0208_3170
ENCODING 12656
SWIDTH 960 0
DWIDTH 18 0
BBX 18 18 0 -2
BITMAP
000000
0B0C00
3FCC00
2ADF00
3FDB00
2AB600
3FBF80
003580
7FB580
003580
3FB580
30BF80
3FB000
01B000
3330C0
1BB0C0
7E1FC0
000000
ENDCHAR

STARTCHAR jisx0208_3171
ENCODING 12657
SWIDTH 960 0
DWIDTH 18 0
BBX 18 18 0 -2
BITMAP
000000
031800
031800
7FFFC0
031800
0C0000
0C0000
1FBF80
18B180
31B180
6DB180
073180
033780
063000
0C30C0
1830C0
701FC0
000000
ENDCHAR

STARTCHAR jisx0208_3172
ENCODING 12658
SWIDTH 960 0
DWIDTH 18 0
BBX 18 18 0 -2
BITMAP
000000
031800
7FFFC0
031800
3FFF80
30C180
37FD80
30C180
2FFD80
300180
37FD80
360D80
37FD80
31E580
32BD80
2EC580
3FFF80
000000
ENDCHAR

STARTCHAR jisx0208_3173
ENCODING 12659
SWIDTH 960 0
DWIDTH 18 0
BBX 18 18 0 -2
BITMAP
000000
003000
603000
33FF00
183000
07FF80
000000
01FF00
798300
198300
19FF00
186D80
19B700
1731C0
1C3000
360000
63FFC0
000000
ENDCHAR

STARTCHAR jisx0208_3174
ENCODING 12660
SWIDTH 960 0
DWIDTH 18 0
BBX 18 18 0 -2
BITMAP
000000
0C1F00
160300
333300
61B180
3F3180
0C6180
0C60C0
7EC0C0
0C7F80
0C6180
6B6180
2B6180
2C6180
0C6180
0F7F80
786180
000000
ENDCHAR

STARTCHAR jisx0208_3175
ENCODING 12661
SWIDTH 960 0
DWIDTH 18 0
BBX 18 18 0 -2
BITMAP
000000
0C0000
1FBF00
31B300
5AB700
0DB0C0
1FFFC0
6C0600
0FFE00
0C0600
0FFE00
0C0000
0FFF80
0C0000
0FFF80
1B6D80
336700
000000
ENDCHAR

STARTCHAR jisx0208_3176
ENCODING 12662
SWIDTH 960 0
DWIDTH 18 0
BBX 18 18 0 -2
BITMAP
000000
18C000
18C000
19FF80
198000
1B0000
7EFF00
18C300
18C300
18FF00
180000
180000
1DFF80
79AD80
01AD80
01AD80
03FFC0
000000
ENDCHAR

STARTCHAR jisx0208_3177
ENCODING 12663
SWIDTH 960 0
DWIDTH 18 0
BBX 18 18 0 -2
BITMAP
000000
180C00
180C00
181600
7F9600
183300
183300
186180
1EC0C0
1B1800
1B0C00
1B0600
1B0000
333000
331800
330C00
6E0600
000000
ENDCHAR

STARTCHAR jisx0208_3178
ENCODING 12664
SWIDTH 960 0
DWIDTH 18 0
BBX 18 18 0 -2
BITMAP
000000
300000
19FF80
0C3000
003000
603000
33FFC0
186000
006000
006000
18FF00
18C300
300300
300300
300600
600600
603C00
000000
ENDCHAR

STARTCHAR jisx0208_3179
ENCODING 12665
SWIDTH 960 0
DWIDTH 18 0
BBX 18 18 0 -2
BITMAP
000000
0C0000
2CFF80
2CD980
2CD980
3EFF80
6CD980
6CD980
0CFF80
3F1800
0C1800
0CFF80
0B3180
0E3180
786180
00C180
038700
000000
ENDCHAR

STARTCHAR jisx0208_317A
ENCODING 12666
SWIDTH 960 0
DWIDTH 18 0
BBX 18 18 0 -2
BITMAP
000000
000000
3F3F00
333300
333300
333300
333300
333300
33F300
333300
300300
300300
300300
300300
300300
3FFF00
300300
000000
ENDCHAR

STARTCHAR jisx0208_317B
ENCODING 12667
SWIDTH 960 0
DWIDTH 18 0
BBX 18 18 0 -2
BITMAP
000000
00C000
00C000
00C000
1FFE00
18C600
18C600
18C600
18C600
7FFF80
00C000
016000
033000
061800
0C0C00
380700
600180
000000
ENDCHAR

STARTCHAR jisx0208_317C
ENCODING 12668
SWIDTH 960 0
DWIDTH 18 0
BBX 18 18 0 -2
BITMAP
000000
00C000
018000
1FFE00
180600
1AB600
18C600
17F600
19B600
16D600
180600
00C000
7FFF80
016000
033000
0E1C00
780780
000000
ENDCHAR

STARTCHAR jisx0208_317D
ENCODING 12669
SWIDTH 960 0
DWIDTH 18 0
BBX 18 18 0 -2
BITMAP
000000
0C3000
181800
180C00
300000
65FFC0
0C1800
0C1800
181800
381800
59FF80
181800
181800
181800
181800
181800
1BFFC0
000000
ENDCHAR

STARTCHAR jisx0208_317E
ENCODING 12670
SWIDTH 960 0
DWIDTH 18 0
BBX 18 18 0 -2
BITMAP
000000
006000
006000
3FFF80
300000
306000
303000
301800
30C000
36C300
36C180
36C180
36C0C0
2CC0C0
2CC300
60C300
607F00
000000
ENDCHAR

STARTCHAR jisx0208_3221
ENCODING 12833
SWIDTH 960 0
DWIDTH 18 0
BBX 18 18 0 -2
BITMAP
000000
180000
19FF80
199980
7D9980
199980
19FF80
199980
199980
1D9980
79FF80
199980
181800
181800
181800
181800
381800
000000
ENDCHAR

STARTCHAR jisx0208_3222
ENCODING 12834
SWIDTH 960 0
DWIDTH 18 0
BBX 18 18 0 -2
BITMAP
000000
000000
00FF80
7E1800
661800
661800
661800
661800
7EFF80
661800
661800
661800
661800
7E1800
601800
01FFC0
000000
000000
ENDCHAR

STARTCHAR jisx0208_3223
ENCODING 12835
SWIDTH 960 0
DWIDTH 18 0
BBX 18 18 0 -2
BITMAP
000000
186600
186600
19FF80
7E6600
186600
1BFFC0
3C1800
3CFF00
36DB00
56FF00
58DB00
58DB00
18FF00
180000
18E700
1B81C0
000000
ENDCHAR

STARTCHAR jisx0208_3224
ENCODING 12836
SWIDTH 960 0
DWIDTH 18 0
BBX 18 18 0 -2
BITMAP
000000
001800
001800
7F9800
603000
633FC0
5B6CC0
6B6D80
66CB00
670C00
6D9600
6D9600
581600
603300
7FB300
606180
60C0C0
000000
ENDCHAR

STARTCHAR jisx0208_3225
ENCODING 12837
SWIDTH 960 0
DWIDTH 18 0
BBX 18 18 0 -2
BITMAP
000000
000000
003E00
7FB600
6036C0
6336C0
5B63C0
6AC000
660000
677F00
6DB300
6DB300
581600
601600
7F8C00
603700
60E1C0
000000
ENDCHAR

STARTCHAR jisx0208_3226
ENCODING 12838
SWIDTH 960 0
DWIDTH 18 0
BBX 18 18 0 -2
BITMAP
000000
000000
3FFF00
00C000
00C000
00C000
00C000
00C000
1FFE00
00C000
00C000
00C000
00C000
00C000
00C000
7FFF80
000000
000000
ENDCHAR

STARTCHAR jisx0208_3227
ENCODING 12839
SWIDTH 960 0
DWIDTH 18 0
BBX 18 18 0 -2
BITMAP
000000
01F800
061800
060C00
0CC600
19B300
7339C0
0FEC00
000000
7F7F00
333300
1B1B00
070700
1B1B00
737300
030300
0F0F00
000000
ENDCHAR

STARTCHAR jisx0208_3228
ENCODING 12840
SWIDTH 960 0
DWIDTH 18 0
BBX 18 18 0 -2
BITMAP
000000
181800
183000
19FF80
7D8180
055580
0D9980
0D7D80
19BD80
355580
5D8180
161800
1BFFC0
182C00
186600
18C300
1B81C0
000000
ENDCHAR

STARTCHAR jisx0208_3229
ENCODING 12841
SWIDTH 960 0
DWIDTH 18 0
BBX 18 18 0 -2
BITMAP
000000
198600
0CCC00
7FFF80
630180
6FFD80
0C0C00
0FFC00
0C0C00
0FFC00
0C0000
0FFF80
0C0000
0FFF80
000180
36D980
66D700
000000
ENDCHAR

STARTCHAR jisx0208_322A
ENCODING 12842
SWIDTH 960 0
DWIDTH 18 0
BBX 18 18 0 -2
BITMAP
000000
001800
7F3000
60FF00
66C300
76FF00
56C300
6EFF00
6CC000
6EFF80
5AC000
5AFF80
700180
615580
7F5580
636180
000700
000000
ENDCHAR

STARTCHAR jisx0208_322B
ENCODING 12843
SWIDTH 960 0
DWIDTH 18 0
BBX 18 18 0 -2
BITMAP
000000
033000
033000
3FFF00
033000
033000
7FFF80
00C000
1FFE00
18C600
1FFE00
18C600
18C600
1FFE00
000000
0E1E00
780380
000000
ENDCHAR

STARTCHAR jisx0208_322C
ENCODING 12844
SWIDTH 960 0
DWIDTH 18 0
BBX 18 18 0 -2
BITMAP
000000
000000
3FFF80
300180
361980
331980
333180
2FFD80
30C180
30C180
36CD80
36CD80
36CD80
37FD80
360D80
300180
300780
000000
ENDCHAR

STARTCHAR jisx0208_322D
ENCODING 12845
SWIDTH 960 0
DWIDTH 18 0
BBX 18 18 0 -2
BITMAP
000000
303000
183000
0C3000
03FF80
633180
333180
1B3180
033180
033180
1BFF80
1B3180
303000
303000
303000
603000
603000
000000
ENDCHAR

STARTCHAR jisx0208_322E
ENCODING 12846
SWIDTH 960 0
DWIDTH 18 0
BBX 18 18 0 -2
BITMAP
000000
031800
031800
7FFFC0
031800
000000
331800
161980
1C5B00
6CD600
059800
0E2C00
162C00
766600
066600
0CC300
3B81C0
000000
ENDCHAR

STARTCHAR jisx0208_322F
ENCODING 12847
SWIDTH 960 0
DWIDTH 18 0
BBX 18 18 0 -2
BITMAP
000000
061800
061800
0BFF80
0CC600
186C00
17FFC0
380000
59FF00
198300
19FF00
198300
19FF00
183000
1AD980
1AC6C0
167EC0
000000
ENDCHAR

STARTCHAR jisx0208_3230
ENCODING 12848
SWIDTH 960 0
DWIDTH 18 0
BBX 18 18 0 -2
BITMAP
000000
000000
1FFF00
180300
180300
1FFF00
180000
1FFF80
18CC00
199E00
17F300
186000
306000
37FF00
306000
606000
5FFFC0
000000
ENDCHAR

STARTCHAR jisx0208_3231
ENCODING 12849
SWIDTH 960 0
DWIDTH 18 0
BBX 18 18 0 -2
BITMAP
000000
181800
181800
1BFF80
5CC600
566C00
57FFC0
580000
19FF00
198300
19FF00
198300
19FF00
183000
1AD980
1AC6C0
167EC0
000000
ENDCHAR

STARTCHAR jisx0208_3232
ENCODING 12850
SWIDTH 960 0
DWIDTH 18 0
BBX 18 18 0 -2
BITMAP
000000
001800
3E1800
35FF80
366600
362C00
3DFFC0
360000
36FF00
36C300
3EFF00
36C300
36FF00
360000
355980
6566C0
6DBEC0
000000
ENDCHAR

STARTCHAR jisx0208_3233
ENCODING 12851
SWIDTH 960 0
DWIDTH 18 0
BBX 18 18 0 -2
BITMAP
000000
0C0000
0CFF00
0C0300
3F3600
0C1C00
0CFF80
1ED980
1ED980
2AFF80
2AD980
6CD980
6CFF80
0CD980
0CD980
0CD980
0CD780
000000
ENDCHAR

STARTCHAR jisx0208_3234
ENCODING 12852
SWIDTH 960 0
DWIDTH 18 0
BBX 18 18 0 -2
BITMAP
000000
0C1800
0C1800
2C1800
2C1800
3F1800
6CFF80
6C1800
0C1800
0C1800
0B1800
1E1800
6C1800
0C1800
0C1800
0DFFC0
0C0000
000000
ENDCHAR

STARTCHAR jisx0208_3235
ENCODING 12853
SWIDTH 960 0
DWIDTH 18 0
BBX 18 18 0 -2
BITMAP
000000
000000
1FFE00
000600
001C00
003000
00E000
018000
030000
060000
0C0000
180000
180180
300180
300180
1FFF80
000000
000000
ENDCHAR

STARTCHAR jisx0208_3236
ENCODING 12854
SWIDTH 960 0
DWIDTH 18 0
BBX 18 18 0 -2
BITMAP
000000
0C6000
0C6000
1BFFC0
18CC00
398C00
39B600
5B3300
55FDC0
19B600
19FE00
19B600
19B600
19FE00
19B0C0
1830C0
181FC0
000000
ENDCHAR

STARTCHAR jisx0208_3237
ENCODING 12855
SWIDTH 960 0
DWIDTH 18 0
BBX 18 18 0 -2
BITMAP
000000
180000
181F80
3FD980
361980
661980
061980
7FD980
061980
061980
37D980
361980
361980
361780
35D800
2F1800
781800
000000
ENDCHAR

STARTCHAR jisx0208_3238
ENCODING 12856
SWIDTH 960 0
DWIDTH 18 0
BBX 18 18 0 -2
BITMAP
000000
000000
1FFE00
18C600
18C600
17F600
18C600
196600
173600
180600
1FFE00
000000
066000
363300
360D80
660CC0
03FC00
000000
ENDCHAR

STARTCHAR jisx0208_3239
ENCODING 12857
SWIDTH 960 0
DWIDTH 18 0
BBX 18 18 0 -2
BITMAP
000000
300000
19FF00
0D8300
018300
61FF00
318300
198300
01FF00
000000
180000
1BFF80
336D80
336D80
336D80
636D80
67FFC0
000000
ENDCHAR

STARTCHAR jisx0208_323A
ENCODING 12858
SWIDTH 960 0
DWIDTH 18 0
BBX 18 18 0 -2
BITMAP
000000
0E0F00
79F800
19B300
18D600
7E0000
19FF00
180300
3BFF00
360300
39FF00
580000
583000
1AD980
1AC0C0
16C6C0
187E00
000000
ENDCHAR

STARTCHAR jisx0208_323B
ENCODING 12859
SWIDTH 960 0
DWIDTH 18 0
BBX 18 18 0 -2
BITMAP
000000
00C000
00C000
3FFF00
0C0C00
060C00
061800
7FFF80
000000
0FFC00
0C0C00
0C0C00
0FFC00
0C0C00
0C0C00
0FFC00
0C0C00
000000
ENDCHAR

STARTCHAR jisx0208_323C
ENCODING 12860
SWIDTH 960 0
DWIDTH 18 0
BBX 18 18 0 -2
BITMAP
000000
000000
000000
7FFF80
00C000
00C000
00C000
00E000
00B800
00CC00
00C600
00C000
00C000
00C000
00C000
00C000
00C000
000000
ENDCHAR

STARTCHAR jisx0208_323D
ENCODING 12861
SWIDTH 960 0
DWIDTH 18 0
BBX 18 18 0 -2
BITMAP
000000
033000
033000
063000
063000
0C30C0
0C3180
1C3700
2C3C00
6C3000
0C3000
0C3000
0C3000
0C30C0
0C30C0
0C30C0
0C1FC0
000000
ENDCHAR

STARTCHAR jisx0208_323E
ENCODING 12862
SWIDTH 960 0
DWIDTH 18 0
BBX 18 18 0 -2
BITMAP
000000
0C0000
0DFFC0
0D8000
198000
198000
39FF00
396300
596300
596300
19B600
19B600
1B3600
1B1C00
1B1C00
167700
15C1C0
000000
ENDCHAR

STARTCHAR jisx0208_323F
ENCODING 12863
SWIDTH 960 0
DWIDTH 18 0
BBX 18 18 0 -2
BITMAP
000000
060000
060000
0DFFC0
0C0300
180300
180300
39F300
59B300
19B300
19B300
19B300
19F300
198300
180300
180300
180F00
000000
ENDCHAR

STARTCHAR jisx0208_3240
ENCODING 12864
SWIDTH 960 0
DWIDTH 18 0
BBX 18 18 0 -2
BITMAP
000000
0D8000
0D8000
198000
198F80
37ED80
39AD80
59AD80
59AD80
19AD80
19AD80
19AD80
19AD80
1B2D80
1B2D80
1B2F80
16ED80
000000
ENDCHAR

STARTCHAR jisx0208_3241
ENCODING 12865
SWIDTH 960 0
DWIDTH 18 0
BBX 18 18 0 -2
BITMAP
000000
0C0000
0C0000
0BFFC0
186C00
186C00
386C00
3BFF80
5B6D80
5B6D80
1B6D80
1B6D80
1B6D80
1B6D80
1B6D80
1BFF80
1B0180
000000
ENDCHAR

STARTCHAR jisx0208_3242
ENCODING 12866
SWIDTH 960 0
DWIDTH 18 0
BBX 18 18 0 -2
BITMAP
000000
0C1800
0C1800
181800
19FF80
381800
381800
581800
5BFFC0
181800
181800
181800
19FF80
181800
181800
181800
1BFFC0
000000
ENDCHAR

STARTCHAR jisx0208_3243
ENCODING 12867
SWIDTH 960 0
DWIDTH 18 0
BBX 18 18 0 -2
BITMAP
000000
0C0000
0C0000
0C1F80
7FD980
0CD980
0CD980
0CD980
0CD980
0CD980
0CD980
18D980
18D980
18D980
319980
319F80
671980
000000
ENDCHAR

STARTCHAR jisx0208_3244
ENCODING 12868
SWIDTH 960 0
DWIDTH 18 0
BBX 18 18 0 -2
BITMAP
000000
000000
7FFFC0
000300
000300
000300
0FE300
0C6300
0C6300
0C6300
0C6300
0C6300
0FE300
0C0300
000300
000300
000F00
000000
ENDCHAR

STARTCHAR jisx0208_3245
ENCODING 12869
SWIDTH 960 0
DWIDTH 18 0
BBX 18 18 0 -2
BITMAP
000000
00C000
7FFF80
00C000
1FFE00
000000
0FFC00
0C0C00
0FFC00
061800
033000
7FFF80
0C0000
7F7F00
0D6300
196300
777F00
000000
ENDCHAR

STARTCHAR jisx0208_3246
ENCODING 12870
SWIDTH 960 0
DWIDTH 18 0
BBX 18 18 0 -2
BITMAP
000000
000000
7FFF80
018000
0FFC00
0C0C00
0FFC00
0C0C00
0FFC00
0C0C00
0FFC00
030000
0FFC00
3B1800
01F000
07BC00
7C0780
000000
ENDCHAR

STARTCHAR jisx0208_3247
ENCODING 12871
SWIDTH 960 0
DWIDTH 18 0
BBX 18 18 0 -2
BITMAP
000000
301800
301800
31FF80
318180
7E0000
36FF00
363000
367000
35D980
663B00
6C6E00
6DDE00
5C2B00
166D80
31CCC0
603800
000000
ENDCHAR

STARTCHAR jisx0208_3248
ENCODING 12872
SWIDTH 960 0
DWIDTH 18 0
BBX 18 18 0 -2
BITMAP
000000
00C000
00C000
7FFF80
600180
600180
1FFC00
018000
038600
1ECC00
01D800
077000
3CD800
016C00
076600
3C6380
01C000
000000
ENDCHAR

STARTCHAR jisx0208_3249
ENCODING 12873
SWIDTH 960 0
DWIDTH 18 0
BBX 18 18 0 -2
BITMAP
000000
00C000
7FFF80
600180
6FFD80
018000
0FFC00
0C0C00
0FFC00
0C0C00
7FFF80
061800
1C0E00
77FB80
018C00
070C00
1C3800
000000
ENDCHAR

STARTCHAR jisx0208_324A
ENCODING 12874
SWIDTH 960 0
DWIDTH 18 0
BBX 18 18 0 -2
BITMAP
000000
070300
7C3300
0C1B00
0C0B00
0C0300
7F6300
0C3300
1E1B00
1E0300
2B03C0
2B3F00
6DE300
0C0300
0C0300
0C0300
0C0300
000000
ENDCHAR

STARTCHAR jisx0208_324B
ENCODING 12875
SWIDTH 960 0
DWIDTH 18 0
BBX 18 18 0 -2
BITMAP
000000
000000
01EF80
7DB180
6DB180
6DB180
6DEF80
6D8000
7D8000
6DDF80
6D8D80
6D8D80
6DED80
7D8700
618700
618D80
01B8C0
000000
ENDCHAR

STARTCHAR jisx0208_324C
ENCODING 12876
SWIDTH 960 0
DWIDTH 18 0
BBX 18 18 0 -2
BITMAP
000000
000000
1FFE00
18C600
1FFE00
18C600
18C600
1FFE00
00C000
00C000
7FFF80
01E000
02B000
06D800
1CCE00
70C380
00C000
000000
ENDCHAR

STARTCHAR jisx0208_324D
ENCODING 12877
SWIDTH 960 0
DWIDTH 18 0
BBX 18 18 0 -2
BITMAP
000000
0C0000
0C0000
7FBF00
0DB300
19B300
19B300
31BF00
66C000
00C000
7FFF80
01E000
02B000
06D800
1CCE00
70C380
00C000
000000
ENDCHAR

STARTCHAR jisx0208_324E
ENCODING 12878
SWIDTH 960 0
DWIDTH 18 0
BBX 18 18 0 -2
BITMAP
000000
001800
7FD800
019800
3DB000
35BF80
3DAD80
316B00
038C00
000C00
7FEC00
019600
3D9600
359600
3DB300
31B300
036180
000000
ENDCHAR

STARTCHAR jisx0208_324F
ENCODING 12879
SWIDTH 960 0
DWIDTH 18 0
BBX 18 18 0 -2
BITMAP
000000
300000
1BFFC0
0C0300
000300
600300
31FB00
199B00
019B00
019B00
199B00
19FB00
318300
318300
300300
600300
600F00
000000
ENDCHAR

STARTCHAR jisx0208_3250
ENCODING 12880
SWIDTH 960 0
DWIDTH 18 0
BBX 18 18 0 -2
BITMAP
000000
00C000
00C000
00C000
00C000
0CC300
0CC300
18C600
18CC00
316000
016000
033000
033000
061800
0C0C00
180600
700380
000000
ENDCHAR

STARTCHAR jisx0208_3251
ENCODING 12881
SWIDTH 960 0
DWIDTH 18 0
BBX 18 18 0 -2
BITMAP
000000
000000
000000
7DFFC0
180300
180300
18FB00
18DB00
7EDB00
18DB00
18DB00
18DB00
18FB00
1EC300
780300
000300
000F00
000000
ENDCHAR

STARTCHAR jisx0208_3252
ENCODING 12882
SWIDTH 960 0
DWIDTH 18 0
BBX 18 18 0 -2
BITMAP
000000
0C0000
0C7F00
0C6300
7F6300
035F00
065B00
065B00
0CFF80
1EC180
2AC180
6CBD80
0CB580
0CB580
0CBD80
0CB180
0CC380
000000
ENDCHAR

STARTCHAR jisx0208_3253
ENCODING 12883
SWIDTH 960 0
DWIDTH 18 0
BBX 18 18 0 -2
BITMAP
000000
001E00
01F000
3EC000
00C000
00C000
00C000
7FFF80
01E000
02B000
02B000
06D800
0CCC00
18C600
70C380
00C000
00C000
000000
ENDCHAR

STARTCHAR jisx0208_3254
ENCODING 12884
SWIDTH 960 0
DWIDTH 18 0
BBX 18 18 0 -2
BITMAP
000000
0E1800
781800
19FF80
198180
7E0000
19FF80
1C3000
3C7180
35DB00
363600
586C00
59DE00
182B00
186D80
19CCC0
183800
000000
ENDCHAR

STARTCHAR jisx0208_3255
ENCODING 12885
SWIDTH 960 0
DWIDTH 18 0
BBX 18 18 0 -2
BITMAP
000000
183000
1FBF00
2C5800
66CC00
000000
3FFF00
30C300
2FFB00
30C300
37FB00
361B00
361B00
37FB00
300300
3FFF00
300300
000000
ENDCHAR

STARTCHAR jisx0208_3256
ENCODING 12886
SWIDTH 960 0
DWIDTH 18 0
BBX 18 18 0 -2
BITMAP
000000
031800
031800
7FFFC0
031800
000000
033000
063000
0C3180
1C3300
2C2E00
6C3800
0C3000
0C3000
0C30C0
0C30C0
0C1FC0
000000
ENDCHAR

STARTCHAR jisx0208_3257
ENCODING 12887
SWIDTH 960 0
DWIDTH 18 0
BBX 18 18 0 -2
BITMAP
000000
031800
031800
7FFFC0
031800
000000
7FFFC0
000600
000600
0FE600
0C6600
0C6600
0C6600
0FE600
0C0600
000600
001E00
000000
ENDCHAR

STARTCHAR jisx0208_3258
ENCODING 12888
SWIDTH 960 0
DWIDTH 18 0
BBX 18 18 0 -2
BITMAP
000000
031800
031800
7FFFC0
031800
0B1800
0C0000
7FBF80
0DB180
0DB180
0DB180
19B180
19B180
19B180
31B180
31BF80
673180
000000
ENDCHAR

STARTCHAR jisx0208_3259
ENCODING 12889
SWIDTH 960 0
DWIDTH 18 0
BBX 18 18 0 -2
BITMAP
000000
031800
031800
7FFFC0
031800
0C0000
0BFFC0
180300
180300
3BF300
5B3300
1B3300
1B3300
1BF300
1B0300
180300
180F00
000000
ENDCHAR

STARTCHAR jisx0208_325A
ENCODING 12890
SWIDTH 960 0
DWIDTH 18 0
BBX 18 18 0 -2
BITMAP
000000
033000
7FFF80
033000
000000
3FFF00
0CCC00
0CCC00
7FFF80
0CCC00
0CCC00
3FFF00
00C000
00C000
7FFF80
00C000
00C000
000000
ENDCHAR

STARTCHAR jisx0208_325B
ENCODING 12891
SWIDTH 960 0
DWIDTH 18 0
BBX 18 18 0 -2
BITMAP
000000
033000
7FFF80
033000
000000
0FFC00
0CCC00
0FFC00
0CCC00
0FFC00
00C000
7FFF80
02B000
06D800
1CCE00
70C380
00C000
000000
ENDCHAR

STARTCHAR jisx0208_325C
ENCODING 12892
SWIDTH 960 0
DWIDTH 18 0
BBX 18 18 0 -2
BITMAP
000000
180000
19EF80
19B180
7DB180
55B180
55EF80
558000
559F80
7DED80
598D80
198D80
19ED80
158700
1D8700
758D80
01B8C0
000000
ENDCHAR

STARTCHAR jisx0208_325D
ENCODING 12893
SWIDTH 960 0
DWIDTH 18 0
BBX 18 18 0 -2
BITMAP
000000
000000
3E7F80
006D80
7F6D80
007F80
006D80
3E6D80
007F80
3E0C00
000C00
00FFC0
3E1E00
362B00
366D80
3ECCC0
300C00
000000
ENDCHAR

STARTCHAR jisx0208_325E
ENCODING 12894
SWIDTH 960 0
DWIDTH 18 0
BBX 18 18 0 -2
BITMAP
000000
006600
03FFC0
7C6600
6C0000
6DFF80
6CDB00
6CDB00
6FFFC0
6CDB00
6CDB00
7DFF80
601800
601800
03FFC0
001800
001800
000000
ENDCHAR

STARTCHAR jisx0208_325F
ENCODING 12895
SWIDTH 960 0
DWIDTH 18 0
BBX 18 18 0 -2
BITMAP
000000
036300
066E00
0E7980
166180
763F80
000000
0FFE00
0C0600
0FFE00
0C0600
0FFE00
0C0600
0FFE00
000000
071E00
3C0380
000000
ENDCHAR

STARTCHAR jisx0208_3260
ENCODING 12896
SWIDTH 960 0
DWIDTH 18 0
BBX 18 18 0 -2
BITMAP
000000
318000
198000
018F80
07ED80
01AD80
01AD80
01AD80
79AD80
19AD80
19AD80
1B2D80
1B2D80
16EF80
180000
2C0000
67FFC0
000000
ENDCHAR

STARTCHAR jisx0208_3261
ENCODING 12897
SWIDTH 960 0
DWIDTH 18 0
BBX 18 18 0 -2
BITMAP
000000
300000
19FF00
0D8300
018300
01BF00
01B300
03FF80
7B0180
1B7D80
1B6D80
1B6D80
1B7D80
1B6180
1B0380
2C0000
67FFC0
000000
ENDCHAR

STARTCHAR jisx0208_3262
ENCODING 12898
SWIDTH 960 0
DWIDTH 18 0
BBX 18 18 0 -2
BITMAP
000000
000000
1FFE00
00C000
7FFF80
60C180
5EBD80
000000
3F7F00
318300
3F7F00
300000
3F7F00
303300
3F9600
301E00
30F380
000000
ENDCHAR

STARTCHAR jisx0208_3263
ENCODING 12899
SWIDTH 960 0
DWIDTH 18 0
BBX 18 18 0 -2
BITMAP
000000
0C0C00
0C0C00
0C0C00
3EFFC0
2B3300
2B3300
2B3300
2B3300
2B3300
3F1600
2C1600
0B0C00
0B0C00
1D9600
71B300
00E1C0
000000
ENDCHAR

STARTCHAR jisx0208_3264
ENCODING 12900
SWIDTH 960 0
DWIDTH 18 0
BBX 18 18 0 -2
BITMAP
000000
0C2C00
0CEB00
17CD80
18CC00
38CC00
37FFC0
58CC00
18CC00
18AD80
19ED80
16CB00
18CB00
18C600
18CEC0
18BAC0
1BC1C0
000000
ENDCHAR

STARTCHAR jisx0208_3265
ENCODING 12901
SWIDTH 960 0
DWIDTH 18 0
BBX 18 18 0 -2
BITMAP
000000
182C00
19ED80
186CC0
566C00
566C00
55FFC0
566600
566600
5656C0
5676C0
55E580
566380
7E6300
6066C0
606DC0
00D8C0
000000
ENDCHAR

STARTCHAR jisx0208_3266
ENCODING 12902
SWIDTH 960 0
DWIDTH 18 0
BBX 18 18 0 -2
BITMAP
000000
03B600
3E3300
063180
063000
063000
7FFFC0
063000
063300
059B00
071B00
1E1600
760E00
060C00
0616C0
0632C0
1EE1C0
000000
ENDCHAR

STARTCHAR jisx0208_3267
ENCODING 12903
SWIDTH 960 0
DWIDTH 18 0
BBX 18 18 0 -2
BITMAP
000000
000000
0FFF80
0C1800
0C1800
0C1800
0C1800
0C1800
7FFFC0
005800
00D800
039800
061800
1C1800
701800
001800
007800
000000
ENDCHAR

STARTCHAR jisx0208_3268
ENCODING 12904
SWIDTH 960 0
DWIDTH 18 0
BBX 18 18 0 -2
BITMAP
000000
000000
7FFF80
00C000
00C000
00C000
37FB00
36DB00
36DB00
37FB00
36DB00
36DB00
37FB00
300300
300300
3FFF00
300300
000000
ENDCHAR

STARTCHAR jisx0208_3269
ENCODING 12905
SWIDTH 960 0
DWIDTH 18 0
BBX 18 18 0 -2
BITMAP
000000
001800
7F9800
6C1800
6C1800
6C1800
7F1800
631800
631800
632C00
7F2C00
6B2C00
6C6600
6C6600
7EC300
618180
6300C0
000000
ENDCHAR

STARTCHAR jisx0208_326A
ENCODING 12906
SWIDTH 960 0
DWIDTH 18 0
BBX 18 18 0 -2
BITMAP
000000
031800
031800
7FFFC0
031800
000000
1FFF00
061800
061800
061800
7FFFC0
005800
00D800
039800
0E1800
781800
007800
000000
ENDCHAR

STARTCHAR jisx0208_326B
ENCODING 12907
SWIDTH 960 0
DWIDTH 18 0
BBX 18 18 0 -2
BITMAP
000000
182B00
19ED80
186CC0
186C00
7E6C00
55FFC0
566C00
566C00
566D80
7DED80
586B00
166700
1666C0
1F6AC0
7359C0
00E0C0
000000
ENDCHAR

STARTCHAR jisx0208_326C
ENCODING 12908
SWIDTH 960 0
DWIDTH 18 0
BBX 18 18 0 -2
BITMAP
000000
0C0000
7FBF00
0DB300
19B300
373F00
600000
0FFC00
0C0C00
0FFC00
0C0C00
0FFC00
0C0C00
0FFC00
000000
073C00
3C0700
000000
ENDCHAR

STARTCHAR jisx0208_326D
ENCODING 12909
SWIDTH 960 0
DWIDTH 18 0
BBX 18 18 0 -2
BITMAP
000000
003600
7FB600
366C00
367FC0
36EC00
366C00
7F6C00
067F80
0E6C00
166C00
167F80
366C00
666C00
066C00
067FC0
1E6000
000000
ENDCHAR

STARTCHAR jisx0208_326E
ENCODING 12910
SWIDTH 960 0
DWIDTH 18 0
BBX 18 18 0 -2
BITMAP
000000
0C1600
16F600
333580
6C36C0
0C3600
3EFFC0
333600
3F3600
3336C0
3F36C0
30F580
363580
333300
35B6C0
3DADC0
7070C0
000000
ENDCHAR

STARTCHAR jisx0208_326F
ENCODING 12911
SWIDTH 960 0
DWIDTH 18 0
BBX 18 18 0 -2
BITMAP
000000
0C0000
7FBF80
0DB180
19B180
373F80
600000
1FFF00
18C000
1FFE00
18C000
1FFE00
18C000
1FFF80
000180
36D980
66CF00
000000
ENDCHAR

STARTCHAR jisx0208_3270
ENCODING 12912
SWIDTH 960 0
DWIDTH 18 0
BBX 18 18 0 -2
BITMAP
000000
00E000
01B000
031800
060C00
0C0600
180300
7319C0
031800
031800
031800
031800
061800
061800
0C1800
181800
301800
000000
ENDCHAR

STARTCHAR jisx0208_3271
ENCODING 12913
SWIDTH 960 0
DWIDTH 18 0
BBX 18 18 0 -2
BITMAP
000000
00E000
01B000
031800
060C00
1C0700
7001C0
07FC00
000000
000000
000000
3FFF80
018000
030C00
030600
063B00
1FE300
000000
ENDCHAR

STARTCHAR jisx0208_3272
ENCODING 12914
SWIDTH 960 0
DWIDTH 18 0
BBX 18 18 0 -2
BITMAP
000000
180000
1F7F80
1B1980
361980
3FB180
6D6700
2D8000
3F8C00
2DAC00
2DBF80
3F6C00
318C00
317FC0
318C00
618C00
678C00
000000
ENDCHAR

STARTCHAR jisx0208_3273
ENCODING 12915
SWIDTH 960 0
DWIDTH 18 0
BBX 18 18 0 -2
BITMAP
000000
000000
3FFF80
300180
300180
300180
33F980
331980
331980
331980
331980
33F980
300180
300180
300180
3FFF80
300180
000000
ENDCHAR

STARTCHAR jisx0208_3274
ENCODING 12916
SWIDTH 960 0
DWIDTH 18 0
BBX 18 18 0 -2
BITMAP
000000
183000
186000
19FF00
19B300
7DB300
19FF00
19B300
19B300
19FF00
18D800
16D600
1CD580
719EC0
019800
0318C0
0E0FC0
000000
ENDCHAR

STARTCHAR jisx0208_3275
ENCODING 12917
SWIDTH 960 0
DWIDTH 18 0
BBX 18 18 0 -2
BITMAP
000000
181800
181800
1BFFC0
181800
7DFF80
19AD80
19AD80
19FF80
181800
1BFFC0
185800
1EED80
736B00
0E6600
007B00
03C1C0
000000
ENDCHAR

STARTCHAR jisx0208_3276
ENCODING 12918
SWIDTH 960 0
DWIDTH 18 0
BBX 18 18 0 -2
BITMAP
000000
000000
3EFF80
06C180
0CC180
0CBD80
18B580
1EB580
36B580
06B580
36BD80
36C180
5CC180
0CFF80
160000
338000
60FFC0
000000
ENDCHAR

STARTCHAR jisx0208_3277
ENCODING 12919
SWIDTH 960 0
DWIDTH 18 0
BBX 18 18 0 -2
BITMAP
000000
183000
183000
183000
19FF00
563300
5B3300
5B3300
583300
1BFFC0
185800
185800
186C00
18CC00
18C600
198300
1701C0
000000
ENDCHAR

STARTCHAR jisx0208_3278
ENCODING 12920
SWIDTH 960 0
DWIDTH 18 0
BBX 18 18 0 -2
BITMAP
000000
180000
19FF00
186300
566600
5B3600
5B1C00
582C00
18E700
1B99C0
181800
181800
19FF80
181800
181800
181800
1BFFC0
000000
ENDCHAR

STARTCHAR jisx0208_3279
ENCODING 12921
SWIDTH 960 0
DWIDTH 18 0
BBX 18 18 0 -2
BITMAP
000000
18C000
18C000
19FFC0
5B0000
560000
56FF00
58DB00
18DB00
18DB00
1BFFC0
19B300
19B300
19B300
1BFFC0
1B0300
181E00
000000
ENDCHAR

STARTCHAR jisx0208_327A
ENCODING 12922
SWIDTH 960 0
DWIDTH 18 0
BBX 18 18 0 -2
BITMAP
000000
180000
19FFC0
198000
5D8C00
558C00
558C00
59AD80
19AD80
196B00
196C00
199600
199600
1B3300
1B3300
1B6180
16C0C0
000000
ENDCHAR

STARTCHAR jisx0208_327B
ENCODING 12923
SWIDTH 960 0
DWIDTH 18 0
BBX 18 18 0 -2
BITMAP
000000
181800
181800
1BFFC0
181800
5DFF80
55AD80
55AD80
59FF80
181800
1BFFC0
185800
19CD80
16CB00
18C600
18FB00
1BC1C0
000000
ENDCHAR

STARTCHAR jisx0208_327C
ENCODING 12924
SWIDTH 960 0
DWIDTH 18 0
BBX 18 18 0 -2
BITMAP
000000
003600
003300
003000
7FFF80
003000
1B3000
1B3300
1B3300
7FDB00
1B1600
1B1600
1B0C00
331D80
333580
606380
01C180
000000
ENDCHAR

STARTCHAR jisx0208_327D
ENCODING 12925
SWIDTH 960 0
DWIDTH 18 0
BBX 18 18 0 -2
BITMAP
000000
0C0000
0C7F80
0C6180
7F6180
0C6180
0C7F80
0C0000
0B0000
0E0000
1CFF80
6C1980
0C1980
0C3180
0C3180
0C6180
3DCF00
000000
ENDCHAR

STARTCHAR jisx0208_327E
ENCODING 12926
SWIDTH 960 0
DWIDTH 18 0
BBX 18 18 0 -2
BITMAP
000000
003000
003000
7F3000
037F80
036300
036300
02B300
7F3300
603600
601600
601600
630C00
630C00
3F1600
007300
01C1C0
000000
ENDCHAR

STARTCHAR jisx0208_3321
ENCODING 13089
SWIDTH 960 0
DWIDTH 18 0
BBX 18 18 0 -2
BITMAP
000000
0C0000
180600
7FB600
6D9600
6D8600
7F8600
6DB600
6D9600
7F85C0
2C1F00
2D7600
2D8600
2B6600
2BE6C0
6C00C0
67FFC0
000000
ENDCHAR

STARTCHAR jisx0208_3322
ENCODING 13090
SWIDTH 960 0
DWIDTH 18 0
BBX 18 18 0 -2
BITMAP
000000
00C000
00C000
7DFFC0
6D8000
6B0000
6AFF00
6CDB00
7CDB00
6CDB00
6BFFC0
6DB300
6DB300
7DB300
03FFC0
030300
001E00
000000
ENDCHAR

STARTCHAR jisx0208_3323
ENCODING 13091
SWIDTH 960 0
DWIDTH 18 0
BBX 18 18 0 -2
BITMAP
000000
180C00
180D80
180CC0
7DFFC0
180C00
18AC00
3CAC00
3CAD80
35FD80
56AD80
58B700
18B700
198600
198AC0
1B39C0
1860C0
000000
ENDCHAR

STARTCHAR jisx0208_3324
ENCODING 13092
SWIDTH 960 0
DWIDTH 18 0
BBX 18 18 0 -2
BITMAP
000000
318000
198000
0BFFC0
030000
660000
30FF00
18DB00
00DB00
00DB00
1BFFC0
19B300
31B300
31B300
31FFC0
618300
601E00
000000
ENDCHAR

STARTCHAR jisx0208_3325
ENCODING 13093
SWIDTH 960 0
DWIDTH 18 0
BBX 18 18 0 -2
BITMAP
000000
000000
1FFFC0
180000
183000
183000
183000
1B3180
1B3300
165600
165800
185800
30CC00
30CC00
318600
630300
6E01C0
000000
ENDCHAR

STARTCHAR jisx0208_3326
ENCODING 13094
SWIDTH 960 0
DWIDTH 18 0
BBX 18 18 0 -2
BITMAP
000000
000000
1FFE00
18C600
18C600
1FFE00
18C600
18C600
1FFE00
033000
061800
1B2E00
733380
063000
063000
0C3000
183000
000000
ENDCHAR

STARTCHAR jisx0208_3327
ENCODING 13095
SWIDTH 960 0
DWIDTH 18 0
BBX 18 18 0 -2
BITMAP
000000
183000
183380
1FBE00
183000
183180
1BB180
1EDF80
718000
0FFE00
0C0600
0C0600
0FFE00
0C0600
0C0600
0FFE00
0C0600
000000
ENDCHAR

STARTCHAR jisx0208_3328
ENCODING 13096
SWIDTH 960 0
DWIDTH 18 0
BBX 18 18 0 -2
BITMAP
000000
181800
182C00
366600
66C300
2D8180
1B00C0
187E00
360000
7E0000
19FF80
183000
563600
563300
566300
186D80
19F980
000000
ENDCHAR

STARTCHAR jisx0208_3329
ENCODING 13097
SWIDTH 960 0
DWIDTH 18 0
BBX 18 18 0 -2
BITMAP
000000
033000
033000
7FFF80
033000
00C000
016000
033000
061800
1C0E00
733380
033000
033000
063000
063000
0C3000
183000
000000
ENDCHAR

STARTCHAR jisx0208_332A
ENCODING 13098
SWIDTH 960 0
DWIDTH 18 0
BBX 18 18 0 -2
BITMAP
000000
180000
1F7F80
361980
7FB380
2D6C00
3FBF00
2D6C00
3F7F80
618C00
60C000
1FFE00
18C600
1FFE00
18CC00
00C700
7FFD80
000000
ENDCHAR

STARTCHAR jisx0208_332B
ENCODING 13099
SWIDTH 960 0
DWIDTH 18 0
BBX 18 18 0 -2
BITMAP
000000
000000
3FBF80
31B180
3FBF80
31B180
3FBF80
300180
300180
37FD80
31B180
31B180
37FD80
31B180
333180
363180
300780
000000
ENDCHAR

STARTCHAR jisx0208_332C
ENCODING 13100
SWIDTH 960 0
DWIDTH 18 0
BBX 18 18 0 -2
BITMAP
000000
018C00
7D8D80
6DEB00
6D8E00
598CC0
596CC0
73D7C0
583000
6DFF00
6D8300
6D8300
6DFF00
798300
618300
61FF00
618300
000000
ENDCHAR

STARTCHAR jisx0208_332D
ENCODING 13101
SWIDTH 960 0
DWIDTH 18 0
BBX 18 18 0 -2
BITMAP
000000
000000
1FFE00
180600
180600
1FFE00
180600
180600
1FFE00
180600
180600
180600
1FFE00
000000
061C00
1C0700
700180
000000
ENDCHAR

ENDFONT
